SplineFontDB: 3.0
FontName: TypoRoundLightDemo
FullName: Typo Round Light Demo
FamilyName: Typo Round Light Demo
Weight: Light
Copyright: Typeface (c) StudioTypo. 2016. All Rights Reserved
Version: 1.00 January 8, 2016, initial release
ItalicAngle: 0
UnderlinePosition: -292
UnderlineWidth: 150
Ascent: 1638
Descent: 410
InvalidEm: 0
sfntRevision: 0x00010000
LayerCount: 2
Layer: 0 1 "Back" 1
Layer: 1 1 "Fore" 0
XUID: [1021 598 1921762867 12804]
StyleMap: 0x0000
FSType: 2
OS2Version: 3
OS2_WeightWidthSlopeOnly: 0
OS2_UseTypoMetrics: 0
CreationTime: 1451913024
ModificationTime: 1509275036
PfmFamily: 17
TTFWeight: 300
TTFWidth: 5
LineGap: 0
VLineGap: 0
Panose: 2 0 5 0 0 0 0 0 0 0
OS2TypoAscent: 1442
OS2TypoAOffset: 0
OS2TypoDescent: -411
OS2TypoDOffset: 0
OS2TypoLinegap: 205
OS2WinAscent: 1864
OS2WinAOffset: 0
OS2WinDescent: 502
OS2WinDOffset: 0
HheadAscent: 1864
HheadAOffset: 0
HheadDescent: -502
HheadDOffset: 0
OS2SubXSize: 1398
OS2SubYSize: 1252
OS2SubXOff: 0
OS2SubYOff: 471
OS2SupXSize: 1398
OS2SupYSize: 1252
OS2SupXOff: 0
OS2SupYOff: 561
OS2StrikeYSize: 102
OS2StrikeYPos: 530
OS2CapHeight: 1442
OS2XHeight: 1032
OS2Vendor: 'STPO'
OS2CodePages: 20000093.00000000
OS2UnicodeRanges: 800000a7.5000a44f.00000000.00000000
Lookup: 1 0 0 "'sinf' Scientific Inferiors in Latin lookup 0" { "'sinf' Scientific Inferiors in Latin lookup 0 subtable"  } ['sinf' ('latn' <'dflt' > ) ]
Lookup: 1 0 0 "'frac' Diagonal Fractions in Latin lookup 1" { "'frac' Diagonal Fractions in Latin lookup 1 subtable"  } ['frac' ('latn' <'dflt' > ) ]
Lookup: 4 0 0 "'frac' Diagonal Fractions in Latin lookup 2" { "'frac' Diagonal Fractions in Latin lookup 2 subtable"  } ['frac' ('latn' <'dflt' > ) ]
Lookup: 1 0 0 "'nalt' Alternate Annotation Forms in Latin lookup 3" { "'nalt' Alternate Annotation Forms in Latin lookup 3 subtable"  } ['nalt' ('latn' <'dflt' > ) ]
Lookup: 1 0 0 "'hist' Historical Forms in Latin lookup 4" { "'hist' Historical Forms in Latin lookup 4 subtable"  } ['hist' ('latn' <'dflt' > ) ]

StartChar: .notdef
Encoding: 65536 -1 0
Width: 1547
Flags: W
LayerCount: 2
Fore
SplineSet
100 -282 m 1,0,-1
 100 1428 l 1,1,-1
 1435 1428 l 1,2,-1
 1435 -282 l 1,3,-1
 100 -282 l 1,0,-1
135 -242 m 1,4,-1
 1399 -242 l 1,5,-1
 1399 1398 l 1,6,-1
 135 1398 l 1,7,-1
 135 -242 l 1,4,-1
725 471 m 1,8,-1
 728 471 l 1,9,-1
 739 470 l 1,10,-1
 739 452 l 2,11,12
 741 382 741 382 741 326 c 1,13,-1
 734 324 l 1,14,-1
 728 324 l 1,15,16
 725 395 725 395 725 462 c 2,17,-1
 725 465 l 1,18,-1
 725 471 l 1,8,-1
1224 471 m 1,19,-1
 1225 471 l 1,20,-1
 1239 470 l 1,21,22
 1238 461 1238 461 1238 457 c 0,23,24
 1238 402 1238 402 1241 326 c 1,25,-1
 1230 324 l 1,26,-1
 1226 324 l 1,27,28
 1224 382 1224 382 1223 453 c 0,29,30
 1224 465 1224 465 1224 471 c 1,19,-1
790 466 m 1,31,-1
 794 466 l 2,32,33
 794 464 794 464 801 454 c 1,34,35
 797 436 797 436 797 424 c 2,36,-1
 797 406 l 2,37,38
 797 362 797 362 812 348 c 1,39,-1
 813 348 l 2,40,41
 834 348 834 348 848 465 c 1,42,-1
 850 465 l 1,43,44
 862 461 862 461 863 461 c 1,45,46
 857 403 857 403 857 375 c 0,47,48
 857 344 857 344 869 344 c 1,49,50
 871 328 871 328 871 324 c 1,51,-1
 863 324 l 2,52,53
 850 324 850 324 843 356 c 1,54,-1
 842 356 l 1,55,56
 831 328 831 328 815 328 c 2,57,-1
 810 328 l 2,58,59
 790 328 790 328 783 389 c 0,60,61
 782 393 782 393 782 411 c 2,62,-1
 782 422 l 2,63,64
 782 447 782 447 790 466 c 1,31,-1
1094 466 m 2,65,-1
 1100 466 l 2,66,67
 1112 466 1112 466 1128 438 c 0,68,69
 1140 416 1140 416 1140 394 c 2,70,-1
 1140 385 l 2,71,72
 1140 348 1140 348 1100 327 c 0,73,74
 1093 324 1093 324 1086 324 c 2,75,-1
 1079 324 l 2,76,77
 1049 324 1049 324 1044 367 c 1,78,-1
 1044 376 l 2,79,80
 1044 426 1044 426 1084 464 c 1,81,82
 1092 466 1092 466 1094 466 c 2,65,-1
249 462 m 2,83,-1
 258 462 l 1,84,85
 286 457 286 457 286 422 c 0,86,87
 286 388 286 388 253 373 c 0,88,89
 241 368 241 368 226 366 c 1,90,-1
 226 329 l 1,91,-1
 225 329 l 2,92,93
 220 329 220 329 211 332 c 1,94,-1
 211 366 l 1,95,-1
 206 366 l 1,96,-1
 201 367 l 1,97,98
 201 378 201 378 206 386 c 1,99,-1
 211 386 l 1,100,-1
 211 386 l 1,101,102
 211 427 211 427 205 427 c 1,103,104
 199 434 199 434 199 438 c 0,105,106
 217 462 217 462 249 462 c 2,83,-1
1059 376 m 2,107,-1
 1059 368 l 2,108,109
 1059 347 1059 347 1084 344 c 0,110,111
 1106 344 1106 344 1121 371 c 0,112,113
 1126 379 1126 379 1126 389 c 2,114,-1
 1126 392 l 2,115,116
 1126 419 1126 419 1100 445 c 0,117,118
 1097 445 1097 445 1097 447 c 1,119,120
 1080 447 1080 447 1062 397 c 0,121,122
 1059 386 1059 386 1059 376 c 2,107,-1
224 435 m 0,123,124
 225 400 225 400 225 388 c 1,125,126
 226 388 226 388 226 386 c 1,127,128
 255 392 255 392 263 403 c 0,129,130
 271 413 271 413 271 421 c 0,131,132
 271 439 271 439 256 442 c 2,133,-1
 250 442 l 2,134,135
 224 439 224 439 224 435 c 0,123,124
404 438 m 0,136,137
 423 438 423 438 432 389 c 1,138,139
 431 389 431 389 417 385 c 1,140,141
 411 418 411 418 404 418 c 0,142,143
 387 409 387 409 384 343 c 0,144,145
 385 329 385 329 385 328 c 0,146,147
 375 326 375 326 370 326 c 1,148,149
 357 395 357 395 357 413 c 1,150,151
 369 415 369 415 372 415 c 2,152,-1
 372 414 l 2,153,154
 372 410 372 410 375 395 c 1,155,-1
 376 395 l 1,156,157
 386 438 386 438 404 438 c 0,136,137
537 432 m 0,158,159
 557 432 557 432 570 400 c 0,160,161
 572 391 572 391 572 383 c 2,162,-1
 572 380 l 2,163,164
 572 344 572 344 537 327 c 0,165,166
 532 326 532 326 528 326 c 0,167,168
 501 330 501 330 501 364 c 0,169,170
 501 414 501 414 526 429 c 0,171,172
 528 430 528 430 537 432 c 0,158,159
614 432 m 0,173,174
 633 432 633 432 650 343 c 0,175,176
 651 343 651 343 651 336 c 1,177,178
 643 329 643 329 639 329 c 0,179,180
 624 391 624 391 616 409 c 1,181,182
 607 396 607 396 598 339 c 0,183,184
 597 339 597 339 593 329 c 1,185,-1
 586 329 l 2,186,187
 579 329 579 329 577 386 c 0,188,189
 575 400 575 400 575 409 c 1,190,191
 582 411 582 411 589 411 c 1,192,193
 592 394 592 394 592 391 c 2,194,-1
 593 391 l 1,195,196
 600 432 600 432 614 432 c 0,173,174
1185 432 m 0,197,198
 1201 432 1201 432 1220 336 c 1,199,200
 1211 329 1211 329 1207 329 c 0,201,202
 1192 395 1192 395 1183 409 c 1,203,204
 1177 397 1177 397 1164 335 c 0,205,206
 1161 329 1161 329 1160 329 c 2,207,-1
 1154 329 l 2,208,209
 1147 329 1147 329 1144 409 c 1,210,211
 1150 411 1150 411 1159 411 c 1,212,213
 1160 392 1160 392 1160 389 c 2,214,-1
 1161 389 l 1,215,216
 1168 432 1168 432 1185 432 c 0,197,198
472 430 m 1,217,218
 490 425 490 425 490 413 c 2,219,-1
 490 412 l 2,220,221
 490 410 490 410 480 404 c 1,222,-1
 479 404 l 1,223,224
 475 411 475 411 466 411 c 0,225,226
 453 411 453 411 450 400 c 0,227,228
 450 395 450 395 479 394 c 1,229,230
 499 383 499 383 499 360 c 0,231,232
 499 335 499 335 479 326 c 2,233,-1
 471 324 l 1,234,-1
 466 324 l 2,235,236
 442 324 442 324 432 347 c 1,237,-1
 432 348 l 2,238,239
 433 351 433 351 441 359 c 1,240,-1
 442 359 l 1,241,242
 454 344 454 344 470 344 c 1,243,244
 484 348 484 348 484 360 c 0,245,246
 480 375 480 375 463 375 c 0,247,248
 435 375 435 375 435 397 c 2,249,-1
 435 400 l 2,250,251
 435 430 435 430 472 430 c 1,217,218
912 430 m 0,252,253
 925 430 925 430 932 412 c 1,254,-1
 932 411 l 1,255,256
 921 404 921 404 918 404 c 1,257,258
 918 410 918 410 907 411 c 0,259,260
 895 411 895 411 890 401 c 1,261,-1
 890 400 l 2,262,263
 890 395 890 395 919 394 c 1,264,265
 938 385 938 385 938 358 c 0,266,267
 938 332 938 332 914 324 c 1,268,-1
 906 324 l 2,269,270
 883 324 883 324 871 347 c 1,271,-1
 871 348 l 1,272,273
 879 359 879 359 881 359 c 2,274,-1
 882 359 l 1,275,276
 894 344 894 344 909 344 c 1,277,278
 923 348 923 348 923 360 c 256,279,280
 923 372 923 372 907 375 c 0,281,282
 882 375 882 375 877 386 c 0,283,284
 875 397 875 397 875 400 c 0,285,286
 875 430 875 430 912 430 c 0,252,253
1249 429 m 1,287,-1
 1249 429 l 1,288,289
 1262 427 1262 427 1263 427 c 1,290,291
 1262 409 1262 409 1262 401 c 2,292,-1
 1262 392 l 2,293,294
 1264 357 1264 357 1275 357 c 2,295,-1
 1276 357 l 1,296,297
 1294 370 1294 370 1294 424 c 1,298,-1
 1294 424 l 1,299,-1
 1309 424 l 1,300,-1
 1309 421 l 1,301,302
 1316 343 1316 343 1316 333 c 0,303,304
 1316 287 1316 287 1286 277 c 0,305,306
 1284 277 1284 277 1281 277 c 2,307,-1
 1276 277 l 2,308,309
 1258 277 1258 277 1253 296 c 0,310,311
 1252 301 1252 301 1252 306 c 1,312,-1
 1252 306 l 1,313,314
 1252 321 1252 321 1255 321 c 2,315,-1
 1256 321 l 1,316,317
 1265 315 1265 315 1268 315 c 2,318,-1
 1267 306 l 2,319,320
 1267 298 1267 298 1276 297 c 2,321,-1
 1278 297 l 2,322,323
 1301 297 1301 297 1301 339 c 0,324,325
 1301 344 1301 344 1300 360 c 1,326,-1
 1299 360 l 1,327,328
 1291 336 1291 336 1273 336 c 2,329,-1
 1272 336 l 2,330,331
 1253 336 1253 336 1247 383 c 1,332,-1
 1247 400 l 2,333,334
 1247 410 1247 410 1249 429 c 1,287,-1
331 428 m 1,335,336
 354 424 354 424 354 406 c 2,337,-1
 354 400 l 2,338,339
 354 380 354 380 315 364 c 1,340,-1
 305 364 l 1,341,342
 305 353 305 353 322 348 c 0,343,344
 333 348 333 348 343 366 c 1,345,-1
 347 366 l 1,346,347
 355 354 355 354 355 351 c 0,348,349
 338 329 338 329 325 329 c 2,350,-1
 318 329 l 2,351,352
 292 329 292 329 288 374 c 0,353,354
 288 414 288 414 320 427 c 1,355,-1
 331 428 l 1,335,336
681 428 m 2,356,-1
 692 428 l 1,357,358
 719 419 719 419 719 383 c 0,359,360
 718 362 718 362 718 348 c 2,361,362
 718 348 718 348 720 332 c 1,363,364
 711 324 711 324 707 324 c 2,365,-1
 706 324 l 1,366,-1
 704 335 l 1,367,368
 692 327 692 327 681 327 c 2,369,-1
 674 327 l 2,370,371
 652 330 652 330 652 348 c 2,372,-1
 652 356 l 2,373,374
 652 386 652 386 684 391 c 0,375,376
 695 390 695 390 704 385 c 1,377,-1
 704 386 l 1,378,379
 700 411 700 411 687 411 c 0,380,381
 678 411 678 411 669 401 c 1,382,-1
 666 401 l 2,383,384
 664 402 664 402 658 412 c 1,385,-1
 658 414 l 1,386,387
 670 428 670 428 681 428 c 2,356,-1
983 428 m 1,388,389
 1007 424 1007 424 1007 405 c 0,390,391
 1007 376 1007 376 965 364 c 1,392,-1
 958 364 l 1,393,-1
 958 362 l 1,394,395
 965 348 965 348 974 348 c 0,396,397
 984 348 984 348 997 366 c 1,398,-1
 998 366 l 2,399,400
 999 366 999 366 1007 354 c 1,401,402
 1007 345 1007 345 986 332 c 0,403,404
 982 329 982 329 977 329 c 2,405,-1
 970 329 l 2,406,407
 946 329 946 329 941 373 c 1,408,409
 941 413 941 413 971 427 c 1,410,-1
 983 428 l 1,388,389
516 365 m 0,411,412
 518 347 518 347 528 347 c 2,413,-1
 531 347 l 1,414,415
 555 354 555 354 557 382 c 2,416,-1
 557 385 l 1,417,418
 551 411 551 411 537 411 c 2,419,-1
 535 411 l 2,420,421
 522 411 522 411 517 379 c 0,422,423
 516 372 516 372 516 365 c 0,411,412
305 385 m 1,424,425
 324 385 324 385 338 403 c 1,426,-1
 338 405 l 1,427,428
 331 407 331 407 329 407 c 0,429,430
 313 407 313 407 305 388 c 1,431,-1
 305 385 l 1,424,425
958 385 m 1,432,-1
 961 385 l 2,433,434
 978 385 978 385 992 404 c 1,435,436
 986 407 986 407 983 407 c 2,437,-1
 980 407 l 2,438,439
 964 407 964 407 958 386 c 1,440,-1
 958 385 l 1,432,-1
667 354 m 2,441,-1
 667 351 l 2,442,443
 667 348 667 348 677 345 c 0,444,445
 694 345 694 345 702 362 c 1,446,447
 694 369 694 369 683 369 c 0,448,449
 667 366 667 366 667 354 c 2,441,-1
618 254 m 2,450,451
 631 254 631 254 633 220 c 2,452,-1
 633 217 l 1,453,-1
 627 216 l 1,454,-1
 625 216 l 1,455,456
 622 237 622 237 617 237 c 0,457,458
 611 237 611 237 609 218 c 0,459,460
 610 216 610 216 610 214 c 0,461,462
 610 204 610 204 612 175 c 1,463,464
 617 178 617 178 621 178 c 2,465,-1
 624 178 l 1,466,-1
 624 163 l 1,467,-1
 613 160 l 1,468,469
 618 103 618 103 618 91 c 1,470,-1
 607 91 l 1,471,472
 603 145 603 145 603 156 c 1,473,-1
 602 156 l 2,474,475
 597 154 597 154 592 154 c 1,476,-1
 592 171 l 1,477,478
 598 171 598 171 602 173 c 1,479,480
 599 194 599 194 599 225 c 0,481,482
 602 254 602 254 616 254 c 2,483,-1
 618 254 l 2,450,451
816 254 m 0,484,485
 828 254 828 254 832 217 c 1,486,-1
 824 216 l 1,487,-1
 822 216 l 1,488,-1
 822 217 l 2,489,490
 822 232 822 232 815 237 c 1,491,492
 807 232 807 232 807 222 c 0,493,494
 807 214 807 214 810 176 c 2,495,496
 810 176 810 176 810 175 c 1,497,498
 815 178 815 178 820 178 c 2,499,-1
 821 178 l 1,500,-1
 822 170 l 1,501,-1
 822 163 l 2,502,503
 821 163 821 163 810 160 c 1,504,-1
 812 157 l 1,505,506
 812 145 812 145 816 91 c 1,507,-1
 805 91 l 1,508,509
 805 97 805 97 801 156 c 1,510,511
 792 154 792 154 789 154 c 2,512,-1
 789 171 l 1,513,-1
 800 172 l 1,514,515
 797 218 797 218 797 224 c 0,516,517
 797 254 797 254 816 254 c 0,484,485
709 237 m 1,518,-1
 713 237 l 1,519,-1
 719 237 l 1,520,-1
 719 228 l 2,521,522
 719 167 719 167 722 96 c 1,523,-1
 711 96 l 1,524,525
 709 161 709 161 709 198 c 2,526,-1
 709 237 l 1,518,-1
735 237 m 2,527,-1
 736 237 l 1,528,-1
 744 237 l 1,529,-1
 744 207 l 2,530,531
 744 175 744 175 747 96 c 1,532,-1
 736 96 l 1,533,534
 733 162 733 162 733 232 c 2,535,-1
 733 235 l 2,536,537
 733 237 733 237 735 237 c 2,527,-1
529 234 m 0,538,539
 537 232 537 232 539 232 c 1,540,541
 537 203 537 203 537 190 c 1,542,-1
 539 190 l 1,543,-1
 551 192 l 1,544,-1
 551 175 l 2,545,546
 550 175 550 175 537 173 c 1,547,-1
 541 99 l 1,548,-1
 539 97 l 1,549,-1
 531 97 l 1,550,551
 528 126 528 126 526 172 c 1,552,-1
 513 172 l 1,553,-1
 513 188 l 1,554,-1
 524 189 l 1,555,-1
 526 189 l 1,556,-1
 526 207 l 2,557,558
 526 234 526 234 529 234 c 0,538,539
994 234 m 0,559,560
 997 234 997 234 1006 232 c 1,561,562
 1003 219 1003 219 1003 203 c 2,563,-1
 1003 190 l 1,564,-1
 1006 190 l 1,565,-1
 1018 192 l 1,566,-1
 1018 175 l 1,567,-1
 1015 175 l 1,568,-1
 1003 173 l 1,569,-1
 1008 99 l 1,570,-1
 1003 97 l 1,571,-1
 997 97 l 1,572,573
 994 159 994 159 994 172 c 1,574,-1
 979 172 l 1,575,-1
 980 180 l 1,576,-1
 980 188 l 1,577,-1
 991 189 l 1,578,-1
 992 189 l 1,579,-1
 992 190 l 2,580,581
 992 211 992 211 994 234 c 0,559,560
1140 234 m 2,582,583
 1143 234 1143 234 1152 232 c 1,584,585
 1150 214 1150 214 1150 198 c 2,586,-1
 1150 190 l 1,587,-1
 1152 190 l 1,588,-1
 1164 192 l 1,589,-1
 1164 184 l 1,590,-1
 1164 175 l 2,591,592
 1163 175 1163 175 1150 173 c 1,593,-1
 1150 167 l 2,594,595
 1150 152 1150 152 1154 99 c 1,596,-1
 1152 97 l 1,597,-1
 1143 97 l 1,598,-1
 1139 172 l 1,599,-1
 1126 172 l 1,600,-1
 1126 188 l 1,601,-1
 1137 189 l 1,602,-1
 1138 189 l 1,603,-1
 1140 234 l 2,582,583
404 231 m 1,604,-1
 414 231 l 2,605,606
 428 231 428 231 437 208 c 1,607,608
 431 202 431 202 431 199 c 2,609,-1
 428 199 l 1,610,611
 419 214 419 214 407 214 c 0,612,613
 390 214 390 214 372 188 c 0,614,615
 363 169 363 169 363 154 c 2,616,-1
 363 149 l 2,617,618
 363 120 363 120 387 114 c 0,619,620
 389 113 389 113 395 113 c 0,621,622
 426 116 426 116 426 133 c 2,623,-1
 426 143 l 1,624,625
 422 146 422 146 414 146 c 2,626,-1
 404 146 l 1,627,-1
 404 163 l 1,628,629
 432 163 432 163 437 154 c 0,630,631
 439 147 439 147 439 145 c 0,632,633
 437 120 437 120 437 116 c 0,634,635
 437 105 437 105 441 90 c 1,636,637
 440 90 440 90 433 85 c 1,638,-1
 432 85 l 2,639,640
 428 85 428 85 426 107 c 1,641,642
 420 99 420 99 397 95 c 1,643,-1
 395 95 l 2,644,645
 357 95 357 95 352 146 c 1,646,-1
 352 150 l 2,647,648
 352 208 352 208 397 229 c 1,649,-1
 404 231 l 1,604,-1
866 199 m 0,650,651
 889 199 889 199 900 161 c 1,652,-1
 900 147 l 2,653,654
 900 113 900 113 866 97 c 1,655,-1
 859 96 l 2,656,657
 843 96 843 96 835 116 c 0,658,659
 833 127 833 127 833 133 c 2,660,-1
 833 137 l 2,661,662
 833 178 833 178 852 194 c 0,663,664
 860 199 860 199 866 199 c 0,650,651
943 199 m 256,665,666
 958 199 958 199 977 105 c 1,667,-1
 976 105 l 1,668,669
 971 101 971 101 967 101 c 0,670,671
 952 168 952 168 943 180 c 1,672,673
 936 173 936 173 920 101 c 1,674,-1
 918 100 l 1,675,-1
 914 100 l 2,676,677
 908 100 908 100 905 176 c 1,678,-1
 913 178 l 1,679,-1
 915 178 l 1,680,681
 918 162 918 162 918 145 c 1,682,-1
 919 145 l 1,683,684
 928 199 928 199 943 199 c 256,665,666
487 195 m 0,685,686
 507 191 507 191 507 175 c 1,687,688
 508 175 508 175 508 173 c 0,689,690
 508 150 508 150 473 137 c 0,691,692
 468 134 468 134 458 134 c 1,693,-1
 458 133 l 2,694,695
 458 122 458 122 475 116 c 1,696,-1
 476 116 l 2,697,698
 486 116 486 116 499 132 c 1,699,-1
 502 132 l 2,700,701
 502 130 502 130 508 123 c 1,702,-1
 508 122 l 1,703,704
 494 100 494 100 479 100 c 2,705,-1
 473 100 l 2,706,707
 454 100 454 100 446 132 c 1,708,-1
 446 147 l 2,709,710
 446 180 446 180 472 193 c 0,711,712
 477 195 477 195 487 195 c 0,685,686
1083 195 m 2,713,-1
 1094 195 l 2,714,715
 1110 195 1110 195 1118 167 c 0,716,717
 1120 151 1120 151 1121 149 c 0,718,719
 1120 143 1120 143 1118 123 c 0,720,721
 1120 119 1120 119 1120 100 c 1,722,-1
 1114 96 l 1,723,-1
 1111 96 l 1,724,-1
 1108 108 l 1,725,726
 1098 97 1098 97 1083 97 c 2,727,-1
 1079 97 l 2,728,729
 1058 100 1058 100 1058 117 c 2,730,-1
 1058 125 l 2,731,732
 1061 157 1061 157 1088 157 c 0,733,734
 1100 157 1100 157 1109 149 c 1,735,-1
 1109 152 l 2,736,737
 1109 177 1109 177 1091 181 c 1,738,-1
 1088 181 l 2,739,740
 1082 181 1082 181 1071 173 c 1,741,-1
 1070 173 l 2,742,743
 1069 173 1069 173 1064 180 c 1,744,-1
 1064 182 l 1,745,746
 1074 195 1074 195 1083 195 c 2,713,-1
634 193 m 2,747,748
 636 193 636 193 645 190 c 1,749,750
 645 116 645 116 659 116 c 1,751,752
 678 128 678 128 687 182 c 0,753,754
 688 187 688 187 688 193 c 1,755,-1
 689 193 l 2,756,757
 692 193 692 193 699 190 c 1,758,759
 696 166 696 166 696 145 c 2,760,-1
 696 133 l 2,761,762
 696 124 696 124 701 114 c 1,763,764
 696 107 696 107 696 103 c 1,765,-1
 694 103 l 1,766,767
 687 107 687 107 686 129 c 1,768,-1
 684 129 l 1,769,770
 680 114 680 114 665 100 c 1,771,-1
 656 100 l 2,772,773
 636 100 636 100 636 175 c 2,774,-1
 636 185 l 1,775,-1
 634 193 l 2,747,748
843 137 m 1,776,777
 845 114 845 114 858 114 c 2,778,-1
 859 114 l 2,779,780
 875 114 875 114 886 139 c 0,781,782
 889 147 889 147 889 150 c 0,783,784
 883 181 883 181 867 181 c 2,785,-1
 863 181 l 2,786,787
 848 181 848 181 843 137 c 1,776,777
457 150 m 1,788,789
 480 150 480 150 496 172 c 1,790,791
 494 178 494 178 485 178 c 2,792,-1
 482 178 l 2,793,794
 463 178 463 178 457 150 c 1,788,789
1068 122 m 0,795,796
 1071 114 1071 114 1079 114 c 2,797,-1
 1085 114 l 2,798,799
 1099 114 1099 114 1107 132 c 1,800,801
 1098 140 1098 140 1090 140 c 2,802,-1
 1088 140 l 2,803,804
 1068 137 1068 137 1068 122 c 0,795,796
507 45 m 0,805,806
 508 45 508 45 524 41 c 1,807,808
 520 3 520 3 519 -51 c 0,809,810
 519 -85 519 -85 529 -120 c 1,811,812
 518 -130 518 -130 517 -130 c 2,813,-1
 516 -130 l 2,814,815
 513 -130 513 -130 510 -117 c 1,816,-1
 508 -117 l 1,817,818
 508 -125 508 -125 487 -133 c 1,819,820
 454 -133 454 -133 440 -91 c 0,821,822
 437 -79 437 -79 437 -63 c 0,823,824
 437 -15 437 -15 471 -5 c 1,825,-1
 475 -5 l 2,826,827
 489 -5 489 -5 504 -21 c 1,828,-1
 504 -20 l 2,829,830
 504 -12 504 -12 507 45 c 0,805,806
316 39 m 2,831,-1
 331 34 l 1,832,833
 329 11 329 11 329 -2 c 2,834,-1
 329 -16 l 1,835,836
 342 -13 342 -13 344 -13 c 0,837,838
 346 -33 346 -33 346 -37 c 1,839,-1
 344 -37 l 2,840,841
 335 -38 335 -38 329 -38 c 1,842,843
 332 -101 332 -101 334 -129 c 1,844,845
 322 -131 322 -131 317 -131 c 1,846,-1
 317 -130 l 1,847,848
 312 -69 312 -69 312 -42 c 1,849,-1
 310 -40 l 1,850,-1
 296 -40 l 1,851,-1
 296 -16 l 1,852,-1
 311 -16 l 1,853,-1
 311 -7 l 2,854,855
 311 39 311 39 316 39 c 2,831,-1
674 39 m 1,856,-1
 675 39 l 1,857,-1
 690 34 l 1,858,859
 688 6 688 6 688 -11 c 2,860,-1
 688 -16 l 1,861,862
 702 -13 702 -13 704 -13 c 2,863,-1
 705 -27 l 1,864,-1
 705 -37 l 1,865,866
 689 -38 689 -38 689 -39 c 0,867,868
 689 -62 689 -62 694 -129 c 1,869,870
 681 -131 681 -131 677 -131 c 1,871,-1
 677 -130 l 1,872,873
 672 -55 672 -55 672 -40 c 1,874,-1
 654 -40 l 1,875,-1
 654 -16 l 1,876,-1
 671 -16 l 1,877,878
 671 18 671 18 674 39 c 1,856,-1
546 36 m 0,879,880
 555 36 555 36 557 22 c 2,881,-1
 557 21 l 2,882,883
 557 10 557 10 549 5 c 1,884,-1
 542 5 l 1,885,886
 534 10 534 10 534 22 c 0,887,888
 536 36 536 36 546 36 c 0,879,880
607 -5 m 0,889,890
 632 -5 632 -5 648 -43 c 0,891,892
 650 -54 650 -54 650 -60 c 2,893,-1
 650 -69 l 2,894,895
 650 -109 650 -109 611 -129 c 0,896,897
 607 -131 607 -131 598 -131 c 0,898,899
 571 -131 571 -131 566 -90 c 1,900,-1
 566 -76 l 2,901,902
 566 -25 566 -25 596 -7 c 0,903,904
 606 -5 606 -5 607 -5 c 0,889,890
800 -5 m 1,905,-1
 805 -5 l 2,906,907
 816 -5 816 -5 816 -8 c 2,908,-1
 816 -10 l 1,909,910
 825 -5 825 -5 835 -5 c 0,911,912
 860 -5 860 -5 868 -49 c 0,913,914
 868 -60 868 -60 869 -63 c 0,915,916
 866 -115 866 -115 838 -127 c 1,917,-1
 830 -128 l 1,918,-1
 820 -128 l 1,919,-1
 821 -136 l 2,920,921
 821 -142 821 -142 822 -176 c 1,922,-1
 805 -176 l 1,923,924
 800 -44 800 -44 800 -5 c 1,905,-1
915 -5 m 0,925,926
 938 -5 938 -5 954 -40 c 0,927,928
 958 -53 958 -53 958 -64 c 0,929,930
 958 -107 958 -107 920 -129 c 0,931,932
 912 -131 912 -131 906 -131 c 0,933,934
 884 -131 884 -131 875 -104 c 0,935,936
 873 -92 873 -92 873 -81 c 0,937,938
 873 -27 873 -27 903 -7 c 1,939,940
 914 -5 914 -5 915 -5 c 0,925,926
1117 -5 m 0,941,942
 1141 -5 1141 -5 1156 -40 c 0,943,944
 1160 -48 1160 -48 1160 -59 c 2,945,-1
 1160 -67 l 2,946,947
 1160 -110 1160 -110 1121 -129 c 0,948,949
 1117 -131 1117 -131 1108 -131 c 0,950,951
 1080 -131 1080 -131 1076 -90 c 1,952,-1
 1076 -76 l 2,953,954
 1076 -25 1076 -25 1106 -7 c 0,955,956
 1116 -5 1116 -5 1117 -5 c 0,941,942
1211 -5 m 0,957,958
 1228 -5 1228 -5 1238 -63 c 1,959,-1
 1239 -63 l 1,960,961
 1247 -5 1247 -5 1266 -5 c 2,962,-1
 1267 -5 l 2,963,964
 1291 -5 1291 -5 1307 -123 c 1,965,-1
 1305 -123 l 1,966,967
 1294 -128 1294 -128 1292 -128 c 2,968,-1
 1291 -128 l 1,969,970
 1272 -30 1272 -30 1266 -30 c 1,971,972
 1256 -52 1256 -52 1249 -112 c 0,973,974
 1246 -122 1246 -122 1239 -122 c 0,975,976
 1231 -122 1231 -122 1228 -107 c 0,977,978
 1215 -31 1215 -31 1209 -31 c 1,979,980
 1193 -89 1193 -89 1193 -124 c 1,981,982
 1183 -128 1183 -128 1176 -128 c 1,983,-1
 1176 -127 l 1,984,-1
 1164 -23 l 1,985,986
 1177 -17 1177 -17 1181 -17 c 0,987,988
 1183 -25 1183 -25 1185 -48 c 1,989,-1
 1187 -48 l 1,990,991
 1196 -5 1196 -5 1211 -5 c 0,957,958
258 -6 m 1,992,993
 282 -11 282 -11 282 -27 c 2,994,-1
 282 -28 l 2,995,996
 281 -30 281 -30 270 -37 c 1,997,-1
 267 -37 l 1,998,999
 267 -30 267 -30 254 -29 c 2,1000,-1
 253 -29 l 2,1001,1002
 240 -29 240 -29 233 -39 c 1,1003,-1
 233 -43 l 2,1004,1005
 233 -49 233 -49 264 -49 c 1,1006,1007
 291 -61 291 -61 291 -87 c 2,1008,-1
 291 -92 l 2,1009,1010
 291 -120 291 -120 269 -130 c 0,1011,1012
 264 -133 264 -133 259 -133 c 2,1013,-1
 250 -133 l 2,1014,1015
 227 -133 227 -133 211 -108 c 0,1016,1017
 211 -103 211 -103 222 -92 c 1,1018,-1
 225 -92 l 1,1019,1020
 233 -110 233 -110 255 -110 c 0,1021,1022
 273 -110 273 -110 273 -90 c 0,1023,1024
 273 -75 273 -75 252 -72 c 0,1025,1026
 225 -72 225 -72 220 -60 c 0,1027,1028
 216 -52 216 -52 216 -48 c 2,1029,-1
 216 -40 l 2,1030,1031
 216 -6 216 -6 258 -6 c 1,992,993
713 -7 m 0,1032,1033
 725 -11 725 -11 728 -11 c 1,1034,1035
 727 -34 727 -34 727 -45 c 2,1036,-1
 727 -51 l 2,1037,1038
 727 -84 727 -84 739 -95 c 1,1039,-1
 744 -95 l 1,1040,1041
 766 -77 766 -77 766 -23 c 2,1042,-1
 766 -13 l 1,1043,-1
 783 -13 l 1,1044,-1
 783 -14 l 1,1045,1046
 791 -103 791 -103 791 -117 c 2,1047,-1
 791 -127 l 2,1048,1049
 791 -171 791 -171 763 -187 c 0,1050,1051
 753 -191 753 -191 747 -191 c 0,1052,1053
 725 -191 725 -191 718 -171 c 0,1054,1055
 716 -167 716 -167 716 -162 c 2,1056,-1
 716 -153 l 2,1057,1058
 716 -138 716 -138 720 -138 c 2,1059,-1
 734 -145 l 1,1060,-1
 733 -153 l 1,1061,-1
 733 -157 l 2,1062,1063
 733 -165 733 -165 744 -167 c 2,1064,-1
 748 -167 l 2,1065,1066
 768 -167 768 -167 773 -134 c 0,1067,1068
 774 -130 774 -130 774 -122 c 2,1069,-1
 774 -102 l 1,1070,-1
 773 -89 l 1,1071,-1
 772 -89 l 1,1072,1073
 762 -119 762 -119 743 -119 c 2,1074,-1
 741 -119 l 2,1075,1076
 718 -119 718 -119 711 -69 c 0,1077,1078
 710 -61 710 -61 710 -49 c 2,1079,-1
 710 -40 l 2,1080,1081
 710 -7 710 -7 713 -7 c 0,1032,1033
1033 -8 m 2,1082,-1
 1041 -8 l 2,1083,1084
 1047 -8 1047 -8 1056 -17 c 0,1085,1086
 1067 -29 1067 -29 1067 -35 c 0,1087,1088
 1056 -48 1056 -48 1055 -48 c 1,1089,-1
 1055 -48 l 1,1090,1091
 1044 -33 1044 -33 1037 -33 c 2,1092,-1
 1035 -33 l 1,1093,1094
 1023 -38 1023 -38 1017 -61 c 2,1095,-1
 1013 -82 l 1,1096,1097
 1013 -104 1013 -104 1027 -106 c 2,1098,-1
 1030 -106 l 2,1099,1100
 1041 -106 1041 -106 1064 -90 c 1,1101,-1
 1065 -90 l 1,1102,1103
 1071 -110 1071 -110 1071 -112 c 0,1104,1105
 1046 -130 1046 -130 1024 -130 c 0,1106,1107
 1001 -130 1001 -130 996 -84 c 0,1108,1109
 996 -50 996 -50 1015 -20 c 0,1110,1111
 1027 -8 1027 -8 1033 -8 c 2,1082,-1
537 -10 m 1,1112,-1
 549 -10 l 1,1113,-1
 555 -11 l 2,1114,1115
 555 -14 555 -14 554 -19 c 0,1116,1117
 555 -86 555 -86 558 -128 c 1,1118,-1
 540 -128 l 1,1119,-1
 539 -120 l 1,1120,1121
 537 -52 537 -52 537 -10 c 1,1112,-1
350 -11 m 1,1122,1123
 367 -16 367 -16 367 -17 c 2,1124,-1
 367 -37 l 2,1125,1126
 367 -104 367 -104 379 -104 c 2,1127,-1
 384 -104 l 1,1128,1129
 401 -85 401 -85 408 -49 c 0,1130,1131
 413 -39 413 -39 414 -11 c 1,1132,-1
 416 -11 l 2,1133,1134
 431 -13 431 -13 431 -17 c 0,1135,1136
 428 -59 428 -59 428 -76 c 2,1137,-1
 428 -86 l 2,1138,1139
 428 -96 428 -96 433 -106 c 0,1140,1141
 433 -112 433 -112 423 -124 c 1,1142,-1
 423 -124 l 1,1143,1144
 411 -112 411 -112 411 -99 c 1,1145,-1
 410 -99 l 1,1146,1147
 399 -128 399 -128 382 -128 c 2,1148,-1
 379 -128 l 2,1149,1150
 350 -128 350 -128 350 -35 c 2,1151,-1
 350 -11 l 1,1122,1123
454 -67 m 2,1152,1153
 454 -101 454 -101 484 -107 c 1,1154,-1
 487 -107 l 2,1155,1156
 499 -107 499 -107 502 -81 c 2,1157,-1
 502 -78 l 2,1158,1159
 502 -42 502 -42 481 -30 c 1,1160,-1
 475 -29 l 1,1161,-1
 473 -29 l 2,1162,1163
 456 -29 456 -29 454 -64 c 2,1164,-1
 454 -67 l 2,1152,1153
583 -82 m 0,1165,1166
 583 -104 583 -104 598 -107 c 2,1167,-1
 602 -107 l 2,1168,1169
 617 -107 617 -107 631 -78 c 0,1170,1171
 633 -74 633 -74 633 -69 c 2,1172,-1
 633 -60 l 1,1173,1174
 626 -29 626 -29 609 -29 c 2,1175,-1
 607 -29 l 2,1176,1177
 586 -29 586 -29 583 -82 c 0,1165,1166
816 -37 m 0,1178,1179
 816 -40 816 -40 819 -104 c 1,1180,-1
 826 -105 l 2,1181,1182
 848 -105 848 -105 852 -63 c 1,1183,1184
 849 -29 849 -29 835 -29 c 2,1185,-1
 834 -29 l 2,1186,1187
 824 -29 824 -29 816 -37 c 0,1178,1179
890 -82 m 1,1188,-1
 890 -87 l 2,1189,1190
 890 -104 890 -104 905 -107 c 2,1191,-1
 907 -107 l 2,1192,1193
 923 -107 923 -107 937 -81 c 0,1194,1195
 941 -73 941 -73 941 -63 c 0,1196,1197
 935 -29 935 -29 913 -29 c 0,1198,1199
 894 -29 894 -29 890 -82 c 1,1188,-1
1092 -82 m 0,1200,1201
 1092 -107 1092 -107 1109 -107 c 2,1202,-1
 1112 -107 l 2,1203,1204
 1126 -107 1126 -107 1141 -77 c 0,1205,1206
 1143 -71 1143 -71 1143 -67 c 2,1207,-1
 1143 -60 l 1,1208,1209
 1135 -29 1135 -29 1118 -29 c 2,1210,-1
 1117 -29 l 2,1211,1212
 1097 -29 1097 -29 1092 -82 c 0,1200,1201
977 -96 m 0,1213,1214
 986 -96 986 -96 989 -110 c 2,1215,-1
 989 -115 l 2,1216,1217
 986 -128 986 -128 977 -128 c 256,1218,1219
 968 -128 968 -128 966 -113 c 0,1220,1221
 967 -96 967 -96 977 -96 c 0,1213,1214
717 1368 m 1,1222,-1
 717 1126 l 1,1223,-1
 456 1126 l 2,1224,1225
 402 1126 402 1126 353 1088 c 1,1226,-1
 353 1098 l 1,1227,1228
 500 1368 500 1368 717 1368 c 1,1222,-1
800 1368 m 1,1229,-1
 810 1368 l 2,1230,1231
 942 1368 942 1368 1089 1219 c 1,1232,1233
 1145 1151 1145 1151 1145 1126 c 1,1234,-1
 800 1126 l 1,1235,-1
 800 1368 l 1,1229,-1
428 1042 m 2,1236,-1
 717 1042 l 1,1237,-1
 717 948 l 1,1238,1239
 682 967 682 967 642 967 c 2,1240,-1
 428 967 l 2,1241,1242
 409 967 409 967 409 986 c 2,1243,-1
 409 1023 l 2,1244,1245
 412 1042 412 1042 428 1042 c 2,1236,-1
800 1042 m 1,1246,-1
 1183 1042 l 1,1247,-1
 1192 948 l 1,1248,-1
 1192 930 l 2,1249,1250
 1192 745 1192 745 1061 632 c 1,1251,-1
 894 632 l 1,1252,1253
 800 644 800 644 800 725 c 2,1254,-1
 800 1042 l 1,1246,-1
325 967 m 1,1255,-1
 334 967 l 1,1256,1257
 334 895 334 895 474 883 c 1,1258,-1
 651 883 l 2,1259,1260
 717 883 717 883 717 818 c 2,1261,-1
 717 715 l 2,1262,1263
 717 632 717 632 614 632 c 2,1264,-1
 456 632 l 1,1265,1266
 325 752 325 752 325 911 c 2,1267,-1
 325 967 l 1,1255,-1
754 604 m 1,1268,-1
 763 604 l 1,1269,1270
 824 548 824 548 950 548 c 1,1271,-1
 950 538 l 1,1272,1273
 842 501 842 501 763 501 c 2,1274,-1
 754 501 l 2,1275,1276
 674 501 674 501 567 538 c 1,1277,-1
 567 548 l 1,1278,1279
 699 548 699 548 754 604 c 1,1268,-1
EndSplineSet
EndChar

StartChar: exclam
Encoding: 33 33 4
Width: 360
Flags: W
LayerCount: 2
Fore
SplineSet
242 790 m 1,0,-1
 211 394 l 1,1,-1
 148 394 l 1,2,-1
 117 790 l 1,3,-1
 117 1381 l 2,4,5
 117 1407 117 1407 135 1425 c 0,6,7
 153 1442 153 1442 178 1442 c 2,8,-1
 181 1442 l 2,9,10
 206 1442 206 1442 224 1425 c 0,11,12
 242 1407 242 1407 242 1381 c 2,13,-1
 242 790 l 1,0,-1
180 0 m 0,14,15
 146 0 146 0 123 23 c 256,16,17
 100 46 100 46 100 80 c 0,18,19
 100 113 100 113 123 136 c 256,20,21
 146 159 146 159 180 159 c 0,22,23
 213 159 213 159 236 136 c 0,24,25
 260 112 260 112 260 80 c 0,26,27
 260 47 260 47 236 23 c 0,28,29
 213 0 213 0 180 0 c 0,14,15
EndSplineSet
EndChar

StartChar: quotedbl
Encoding: 34 34 5
Width: 521
Flags: W
LayerCount: 2
Fore
SplineSet
55 1443 m 1,0,-1
 180 1443 l 1,1,-1
 180 1262 l 1,2,-1
 150 986 l 1,3,-1
 85 986 l 1,4,-1
 55 1262 l 1,5,-1
 55 1443 l 1,0,-1
341 1443 m 1,6,-1
 466 1443 l 1,7,-1
 466 1262 l 1,8,-1
 436 986 l 1,9,-1
 371 986 l 1,10,-1
 341 1262 l 1,11,-1
 341 1443 l 1,6,-1
EndSplineSet
EndChar

StartChar: numbersign
Encoding: 35 35 6
Width: 1292
Flags: W
LayerCount: 2
Fore
SplineSet
323 540 m 1,0,-1
 394 893 l 1,1,-1
 145 893 l 2,2,3
 124 893 124 893 109 908 c 0,4,5
 95 923 95 923 95 944 c 2,6,-1
 95 946 l 2,7,8
 95 967 95 967 109 982 c 0,9,10
 124 997 124 997 145 997 c 2,11,-1
 415 997 l 1,12,-1
 473 1291 l 2,13,14
 478 1312 478 1312 495 1323 c 0,15,16
 513 1334 513 1334 529 1331 c 1,17,-1
 531 1330 l 1,18,19
 557 1326 557 1326 568 1309 c 0,20,21
 579 1291 579 1291 576 1270 c 2,22,-1
 520 997 l 1,23,-1
 870 997 l 1,24,-1
 928 1291 l 2,25,26
 933 1312 933 1312 950 1323 c 0,27,28
 968 1334 968 1334 986 1331 c 2,29,-1
 989 1330 l 2,30,31
 1011 1326 1011 1326 1023 1309 c 0,32,33
 1034 1291 1034 1291 1031 1270 c 2,34,-1
 975 997 l 1,35,-1
 1227 997 l 2,36,37
 1247 997 1247 997 1262 982 c 256,38,39
 1277 967 1277 967 1277 946 c 2,40,-1
 1277 944 l 2,41,42
 1277 923 1277 923 1262 908 c 256,43,44
 1247 893 1247 893 1227 893 c 2,45,-1
 954 893 l 1,46,-1
 883 540 l 1,47,-1
 1147 540 l 2,48,49
 1168 540 1168 540 1183 525 c 256,50,51
 1198 510 1198 510 1198 489 c 2,52,-1
 1198 486 l 2,53,54
 1198 466 1198 466 1183 451 c 256,55,56
 1168 436 1168 436 1147 436 c 2,57,-1
 862 436 l 1,58,-1
 800 123 l 2,59,60
 796 102 796 102 779 91 c 0,61,62
 761 80 761 80 743 83 c 2,63,-1
 740 84 l 2,64,65
 718 88 718 88 706 106 c 0,66,67
 694 123 694 123 698 144 c 2,68,-1
 757 436 l 1,69,-1
 407 436 l 1,70,-1
 345 123 l 2,71,72
 341 102 341 102 324 91 c 0,73,74
 306 80 306 80 289 83 c 1,75,-1
 287 84 l 1,76,77
 263 88 263 88 251 106 c 0,78,79
 239 123 239 123 243 144 c 2,80,-1
 302 436 l 1,81,-1
 66 436 l 2,82,83
 44 436 44 436 29 451 c 0,84,85
 15 466 15 466 15 486 c 2,86,-1
 15 489 l 2,87,88
 15 510 15 510 29 525 c 0,89,90
 44 540 44 540 66 540 c 2,91,-1
 323 540 l 1,0,-1
499 893 m 1,92,-1
 428 540 l 1,93,-1
 778 540 l 1,94,-1
 849 893 l 1,95,-1
 499 893 l 1,92,-1
EndSplineSet
EndChar

StartChar: dollar
Encoding: 36 36 7
Width: 921
Flags: W
LayerCount: 2
Fore
SplineSet
496 112 m 1,0,-1
 496 653 l 1,1,2
 465 661 465 661 425 672 c 1,3,-1
 425 112 l 1,4,5
 448 109 448 109 460 109 c 256,6,7
 472 109 472 109 496 112 c 1,0,-1
366 811 m 1,8,-1
 366 1319 l 1,9,10
 270 1272 270 1272 230 1212 c 0,11,12
 185 1143 185 1143 185 1060 c 0,13,14
 185 896 185 896 366 811 c 1,8,-1
555 634 m 1,15,-1
 555 125 l 1,16,17
 650 172 650 172 690 231 c 0,18,19
 736 301 736 301 736 384 c 0,20,21
 736 549 736 549 555 634 c 1,15,-1
555 759 m 1,22,23
 706 716 706 716 766 658 c 0,24,25
 861 569 861 569 861 384 c 0,26,27
 861 244 861 244 773 134 c 0,28,29
 693 35 693 35 555 -4 c 1,30,-1
 555 -76 l 2,31,32
 555 -101 555 -101 546 -119 c 0,33,34
 538 -137 538 -137 526 -137 c 2,35,-1
 525 -137 l 2,36,37
 513 -137 513 -137 504 -119 c 0,38,39
 496 -101 496 -101 496 -76 c 2,40,-1
 496 -15 l 1,41,42
 470 -16 470 -16 460 -16 c 256,43,44
 450 -16 450 -16 425 -15 c 1,45,-1
 425 -76 l 2,46,47
 425 -101 425 -101 416 -119 c 0,48,49
 408 -137 408 -137 396 -137 c 2,50,-1
 395 -137 l 2,51,52
 383 -137 383 -137 375 -119 c 0,53,54
 366 -101 366 -101 366 -76 c 2,55,-1
 366 -4 l 1,56,57
 255 27 255 27 184 95 c 0,58,59
 105 170 105 170 76 273 c 0,60,61
 68 299 68 299 84 319 c 0,62,63
 100 340 100 340 126 340 c 2,64,-1
 147 340 l 2,65,66
 186 340 186 340 197 303 c 0,67,68
 230 193 230 193 366 125 c 1,69,-1
 366 686 l 1,70,71
 213 728 213 728 154 787 c 0,72,73
 60 876 60 876 60 1060 c 0,74,75
 60 1201 60 1201 147 1310 c 0,76,77
 226 1409 226 1409 366 1449 c 1,78,-1
 366 1544 l 2,79,80
 366 1570 366 1570 375 1588 c 0,81,82
 383 1605 383 1605 395 1605 c 2,83,-1
 396 1605 l 2,84,85
 408 1605 408 1605 416 1588 c 0,86,87
 425 1570 425 1570 425 1544 c 2,88,-1
 425 1458 l 1,89,90
 450 1461 450 1461 460 1461 c 256,91,92
 470 1461 470 1461 496 1460 c 1,93,-1
 496 1544 l 2,94,95
 496 1569 496 1569 504 1587 c 0,96,97
 513 1605 513 1605 525 1605 c 2,98,-1
 526 1605 l 2,99,100
 538 1605 538 1605 546 1587 c 0,101,102
 555 1569 555 1569 555 1544 c 2,103,-1
 555 1448 l 1,104,105
 665 1418 665 1418 736 1350 c 0,106,107
 815 1275 815 1275 845 1171 c 0,108,109
 852 1146 852 1146 837 1125 c 0,110,111
 821 1104 821 1104 795 1104 c 2,112,-1
 774 1104 l 2,113,114
 735 1104 735 1104 724 1141 c 0,115,116
 690 1252 690 1252 555 1319 c 1,117,-1
 555 759 l 1,22,23
496 773 m 1,118,-1
 496 1333 l 1,119,120
 472 1336 472 1336 460 1336 c 256,121,122
 448 1336 448 1336 425 1333 c 1,123,-1
 425 792 l 1,124,125
 455 783 455 783 496 773 c 1,118,-1
EndSplineSet
EndChar

StartChar: percent
Encoding: 37 37 8
Width: 1391
Flags: W
LayerCount: 2
Fore
SplineSet
1023 1442 m 1,0,-1
 471 0 l 1,1,-1
 358 0 l 1,2,-1
 910 1442 l 1,3,-1
 1023 1442 l 1,0,-1
1055 410 m 0,4,5
 994 410 994 410 950 365 c 0,6,7
 906 321 906 321 906 260 c 2,8,-1
 906 242 l 2,9,10
 906 181 906 181 950 137 c 0,11,12
 994 92 994 92 1055 92 c 0,13,14
 1118 92 1118 92 1161 137 c 0,15,16
 1205 180 1205 180 1205 242 c 2,17,-1
 1205 260 l 2,18,19
 1205 322 1205 322 1161 365 c 0,20,21
 1118 410 1118 410 1055 410 c 0,4,5
1055 502 m 0,22,23
 1153 502 1153 502 1222 433 c 256,24,25
 1291 364 1291 364 1291 266 c 2,26,-1
 1291 236 l 2,27,28
 1291 138 1291 138 1222 69 c 256,29,30
 1153 0 1153 0 1055 0 c 0,31,32
 958 0 958 0 888 69 c 0,33,34
 819 138 819 138 819 236 c 2,35,-1
 819 266 l 2,36,37
 819 364 819 364 888 433 c 0,38,39
 958 502 958 502 1055 502 c 0,22,23
336 1358 m 0,40,41
 271 1358 271 1358 225 1312 c 0,42,43
 178 1265 178 1265 178 1201 c 2,44,-1
 178 1182 l 2,45,46
 178 1116 178 1116 225 1071 c 0,47,48
 270 1024 270 1024 336 1024 c 0,49,50
 400 1024 400 1024 447 1071 c 0,51,52
 493 1117 493 1117 493 1182 c 2,53,-1
 493 1201 l 2,54,55
 493 1265 493 1265 447 1312 c 0,56,57
 400 1358 400 1358 336 1358 c 0,40,41
336 1442 m 256,58,59
 434 1442 434 1442 503 1373 c 256,60,61
 572 1304 572 1304 572 1207 c 2,62,-1
 572 1176 l 2,63,64
 572 1078 572 1078 503 1009 c 256,65,66
 434 940 434 940 336 940 c 256,67,68
 238 940 238 940 169 1009 c 256,69,70
 100 1078 100 1078 100 1176 c 2,71,-1
 100 1207 l 2,72,73
 100 1304 100 1304 169 1373 c 256,74,75
 238 1442 238 1442 336 1442 c 256,58,59
EndSplineSet
EndChar

StartChar: ampersand
Encoding: 38 38 9
Width: 1221
Flags: W
LayerCount: 2
Fore
SplineSet
867 682 m 1,0,-1
 503 682 l 2,1,2
 389 682 389 682 307 600 c 256,3,4
 225 518 225 518 225 403 c 256,5,6
 225 288 225 288 307 206 c 0,7,8
 389 125 389 125 503 125 c 2,9,-1
 588 125 l 2,10,11
 702 125 702 125 784 206 c 0,12,13
 866 288 866 288 866 373 c 1,14,-1
 867 373 l 1,15,-1
 867 682 l 1,0,-1
1145 793 m 2,16,17
 1166 793 1166 793 1181 778 c 256,18,19
 1196 763 1196 763 1196 742 c 2,20,-1
 1196 739 l 2,21,22
 1196 718 1196 718 1181 703 c 0,23,24
 1167 689 1167 689 1145 689 c 2,25,-1
 972 689 l 1,26,-1
 972 234 l 2,27,28
 972 181 972 181 1010 143 c 0,29,30
 1049 105 1049 105 1102 105 c 2,31,-1
 1145 105 l 2,32,33
 1167 105 1167 105 1182 90 c 0,34,35
 1196 75 1196 75 1196 54 c 2,36,-1
 1196 51 l 2,37,38
 1196 30 1196 30 1182 15 c 0,39,40
 1167 0 1167 0 1145 0 c 2,41,-1
 1122 0 l 2,42,43
 990 0 990 0 893 138 c 1,44,45
 751 0 751 0 588 0 c 2,46,-1
 503 0 l 2,47,48
 336 0 336 0 218 118 c 256,49,50
 100 236 100 236 100 403 c 0,51,52
 100 602 100 602 288 746 c 1,53,54
 123 884 123 884 123 1062 c 0,55,56
 123 1220 123 1220 234 1331 c 256,57,58
 345 1442 345 1442 503 1442 c 2,59,-1
 653 1442 l 2,60,61
 783 1442 783 1442 863 1381 c 1,62,-1
 790 1280 l 1,63,64
 745 1318 745 1318 653 1318 c 2,65,-1
 503 1318 l 2,66,67
 397 1318 397 1318 323 1242 c 0,68,69
 248 1167 248 1167 248 1052 c 0,70,71
 248 936 248 936 323 861 c 0,72,73
 398 787 398 787 503 787 c 2,74,-1
 867 787 l 1,75,-1
 867 1042 l 1,76,-1
 972 1083 l 1,77,-1
 972 793 l 1,78,-1
 1145 793 l 2,16,17
EndSplineSet
EndChar

StartChar: quotesingle
Encoding: 39 39 10
Width: 325
Flags: W
LayerCount: 2
Fore
SplineSet
100 1443 m 1,0,-1
 225 1443 l 1,1,-1
 225 1262 l 1,2,-1
 195 986 l 1,3,-1
 130 986 l 1,4,-1
 100 1262 l 1,5,-1
 100 1443 l 1,0,-1
EndSplineSet
EndChar

StartChar: parenleft
Encoding: 40 40 11
Width: 587
Flags: W
LayerCount: 2
Fore
SplineSet
208 -242 m 0,1,2
 100 -109 100 -109 100 61 c 2,3,-1
 100 969 l 2,4,5
 100 1139 100 1139 208 1272 c 0,6,7
 314 1403 314 1403 477 1440 c 0,8,9
 506 1446 506 1446 529 1428 c 0,10,11
 553 1409 553 1409 553 1379 c 2,12,-1
 553 1371 l 2,13,14
 553 1349 553 1349 540 1332 c 0,15,16
 526 1315 526 1315 505 1310 c 0,17,18
 382 1283 382 1283 300 1187 c 0,19,20
 216 1088 216 1088 216 963 c 2,21,-1
 216 67 l 2,22,23
 216 -58 216 -58 300 -157 c 0,24,25
 382 -253 382 -253 505 -280 c 0,26,27
 526 -285 526 -285 540 -302 c 0,28,29
 553 -319 553 -319 553 -341 c 2,30,-1
 553 -350 l 2,31,32
 553 -380 553 -380 529 -399 c 0,33,34
 507 -417 507 -417 477 -410 c 0,35,0
 314 -373 314 -373 208 -242 c 0,1,2
EndSplineSet
Substitution2: "'sinf' Scientific Inferiors in Latin lookup 0 subtable" uni208D
EndChar

StartChar: parenright
Encoding: 41 41 12
Width: 587
Flags: W
LayerCount: 2
Fore
SplineSet
109 -410 m 0,0,1
 80 -416 80 -416 58 -399 c 0,2,3
 34 -380 34 -380 34 -350 c 2,4,-1
 34 -341 l 2,5,6
 34 -319 34 -319 47 -302 c 0,7,8
 61 -285 61 -285 82 -280 c 0,9,10
 205 -253 205 -253 287 -157 c 0,11,12
 371 -58 371 -58 371 67 c 2,13,-1
 371 963 l 2,14,15
 371 1088 371 1088 287 1187 c 0,16,17
 205 1283 205 1283 82 1310 c 0,18,19
 61 1315 61 1315 47 1332 c 0,20,21
 34 1349 34 1349 34 1371 c 2,22,-1
 34 1379 l 2,23,24
 34 1409 34 1409 58 1428 c 0,25,26
 81 1446 81 1446 109 1440 c 0,27,28
 272 1403 272 1403 379 1272 c 0,29,30
 487 1139 487 1139 487 969 c 2,31,-1
 487 61 l 2,32,33
 487 -109 487 -109 379 -242 c 0,34,35
 272 -373 272 -373 109 -410 c 0,0,1
EndSplineSet
Substitution2: "'sinf' Scientific Inferiors in Latin lookup 0 subtable" uni208E
EndChar

StartChar: asterisk
Encoding: 42 42 13
Width: 856
Flags: W
LayerCount: 2
Fore
SplineSet
429 1274 m 2,0,1
 450 1274 450 1274 465 1259 c 256,2,3
 480 1244 480 1244 480 1223 c 2,4,-1
 480 1011 l 1,5,-1
 682 1076 l 2,6,7
 703 1083 703 1083 721 1073 c 0,8,9
 740 1063 740 1063 747 1041 c 2,10,-1
 748 1039 l 2,11,12
 754 1021 754 1021 744 1002 c 0,13,14
 735 983 735 983 714 976 c 2,15,-1
 512 911 l 1,16,-1
 638 740 l 2,17,18
 650 723 650 723 646 701 c 0,19,20
 643 680 643 680 625 667 c 2,21,-1
 623 665 l 2,22,23
 608 654 608 654 586 658 c 0,24,25
 565 661 565 661 553 677 c 2,26,-1
 428 850 l 1,27,-1
 303 677 l 2,28,29
 291 661 291 661 271 658 c 0,30,31
 248 654 248 654 237 662 c 1,32,-1
 236 664 l 1,33,34
 213 680 213 680 210 701 c 256,35,36
 207 722 207 722 219 739 c 2,37,-1
 343 911 l 1,38,-1
 142 976 l 2,39,40
 122 983 122 983 112 1003 c 0,41,42
 102 1021 102 1021 108 1039 c 2,43,-1
 109 1041 l 2,44,45
 116 1063 116 1063 135 1073 c 256,46,47
 154 1083 154 1083 174 1076 c 2,48,-1
 376 1011 l 1,49,-1
 376 1223 l 2,50,51
 376 1244 376 1244 391 1259 c 256,52,53
 406 1274 406 1274 427 1274 c 2,54,-1
 429 1274 l 2,0,1
EndSplineSet
EndChar

StartChar: plus
Encoding: 43 43 14
Width: 1032
Flags: W
LayerCount: 2
Fore
SplineSet
579 784 m 1,0,-1
 920 784 l 2,1,2
 946 784 946 784 964 766 c 256,3,4
 982 748 982 748 982 722 c 2,5,-1
 982 720 l 2,6,7
 982 695 982 695 964 677 c 256,8,9
 946 659 946 659 920 659 c 2,10,-1
 579 659 l 1,11,-1
 579 318 l 2,12,13
 579 292 579 292 561 274 c 256,14,15
 543 256 543 256 517 256 c 2,16,-1
 515 256 l 2,17,18
 490 256 490 256 472 274 c 256,19,20
 454 292 454 292 454 318 c 2,21,-1
 454 659 l 1,22,-1
 111 659 l 2,23,24
 86 659 86 659 68 677 c 256,25,26
 50 695 50 695 50 720 c 2,27,-1
 50 722 l 2,28,29
 50 748 50 748 68 766 c 256,30,31
 86 784 86 784 111 784 c 2,32,-1
 454 784 l 1,33,-1
 454 1127 l 2,34,35
 454 1152 454 1152 472 1170 c 256,36,37
 490 1188 490 1188 515 1188 c 2,38,-1
 517 1188 l 2,39,40
 543 1188 543 1188 561 1170 c 256,41,42
 579 1152 579 1152 579 1127 c 2,43,-1
 579 784 l 1,0,-1
EndSplineSet
Substitution2: "'sinf' Scientific Inferiors in Latin lookup 0 subtable" uni208A
EndChar

StartChar: comma
Encoding: 44 44 15
Width: 321
Flags: W
LayerCount: 2
Fore
SplineSet
228 121 m 2,0,1
 232 121 232 121 235 117 c 0,2,3
 237 114 237 114 235 110 c 2,4,-1
 106 -179 l 2,5,6
 103 -184 103 -184 98 -184 c 2,7,-1
 32 -184 l 2,8,9
 27 -184 27 -184 25 -181 c 256,10,11
 23 -178 23 -178 24 -174 c 2,12,-1
 102 115 l 2,13,14
 104 121 104 121 109 121 c 2,15,-1
 228 121 l 2,0,1
EndSplineSet
EndChar

StartChar: hyphen
Encoding: 45 45 16
AltUni2: 0000ad.ffffffff.0
Width: 702
Flags: W
LayerCount: 2
Fore
SplineSet
652 720 m 2,0,1
 652 695 652 695 634 677 c 256,2,3
 616 659 616 659 590 659 c 2,4,-1
 111 659 l 2,5,6
 86 659 86 659 68 677 c 256,7,8
 50 695 50 695 50 720 c 2,9,-1
 50 722 l 2,10,11
 50 748 50 748 68 766 c 256,12,13
 86 784 86 784 111 784 c 2,14,-1
 590 784 l 2,15,16
 616 784 616 784 634 766 c 256,17,18
 652 748 652 748 652 722 c 2,19,-1
 652 720 l 2,0,1
EndSplineSet
EndChar

StartChar: period
Encoding: 46 46 17
Width: 321
Flags: W
LayerCount: 2
Fore
SplineSet
558 58 m 128,-1,1
 558 82 558 82 575 99 c 132,-1,2
 592 116 592 116 616 116 c 128,-1,3
 640 116 640 116 657 99 c 128,-1,4
 674 82 674 82 674 58 c 128,-1,5
 674 34 674 34 657 17 c 128,-1,6
 640 0 640 0 616 0 c 128,-1,7
 592 0 592 0 575 17 c 128,-1,0
 558 34 558 34 558 58 c 128,-1,1
EndSplineSet
EndChar

StartChar: slash
Encoding: 47 47 18
Width: 575
Flags: W
LayerCount: 2
Fore
SplineSet
555 1442 m 1,0,-1
 129 0 l 1,1,-1
 20 0 l 1,2,-1
 447 1442 l 1,3,-1
 555 1442 l 1,0,-1
EndSplineSet
Substitution2: "'frac' Diagonal Fractions in Latin lookup 1 subtable" fraction
EndChar

StartChar: zero
Encoding: 48 48 19
Width: 1155
Flags: W
LayerCount: 2
Fore
SplineSet
915 1303 m 256,1,2
 1055 1163 1055 1163 1055 966 c 2,3,-1
 1055 478 l 2,4,5
 1055 280 1055 280 915 140 c 256,6,7
 775 0 775 0 577 0 c 0,8,9
 380 0 380 0 240 140 c 256,10,11
 100 280 100 280 100 478 c 2,12,-1
 100 966 l 2,13,14
 100 1163 100 1163 240 1303 c 256,15,16
 380 1443 380 1443 577 1443 c 0,17,0
 775 1443 775 1443 915 1303 c 256,1,2
328 1209 m 0,19,20
 225 1105 225 1105 225 960 c 2,21,-1
 225 484 l 2,22,23
 225 339 225 339 328 235 c 0,24,25
 432 131 432 131 577 131 c 256,26,27
 722 131 722 131 826 235 c 256,28,29
 930 339 930 339 930 484 c 2,30,-1
 930 960 l 2,31,32
 930 1105 930 1105 826 1209 c 256,33,34
 722 1313 722 1313 577 1313 c 256,35,18
 432 1313 432 1313 328 1209 c 0,19,20
EndSplineSet
Substitution2: "'sinf' Scientific Inferiors in Latin lookup 0 subtable" uni2080
EndChar

StartChar: one
Encoding: 49 49 20
Width: 569
Flags: W
LayerCount: 2
Fore
SplineSet
419 61 m 2,0,1
 419 35 419 35 402 18 c 0,2,3
 384 0 384 0 358 0 c 2,4,-1
 356 0 l 2,5,6
 330 0 330 0 312 18 c 0,7,8
 295 35 295 35 295 61 c 2,9,-1
 295 1318 l 1,10,-1
 71 1318 l 2,11,12
 46 1318 46 1318 28 1335 c 0,13,14
 10 1353 10 1353 10 1379 c 2,15,-1
 10 1381 l 2,16,17
 10 1407 10 1407 28 1425 c 0,18,19
 46 1442 46 1442 71 1442 c 2,20,-1
 358 1442 l 2,21,22
 384 1442 384 1442 402 1425 c 0,23,24
 419 1407 419 1407 419 1381 c 2,25,-1
 419 61 l 2,0,1
EndSplineSet
Substitution2: "'sinf' Scientific Inferiors in Latin lookup 0 subtable" uni2081
EndChar

StartChar: two
Encoding: 50 50 21
Width: 1104
Flags: W
LayerCount: 2
Fore
SplineSet
613 1442 m 2,0,1
 772 1442 772 1442 883 1331 c 256,2,3
 994 1220 994 1220 994 1062 c 0,4,5
 994 926 994 926 884 814 c 0,6,7
 813 742 813 742 627 626 c 0,8,9
 432 505 432 505 360 434 c 0,10,11
 232 309 232 309 232 125 c 1,12,-1
 943 125 l 2,13,14
 968 125 968 125 986 107 c 256,15,16
 1004 89 1004 89 1004 63 c 2,17,-1
 1004 61 l 2,18,19
 1004 36 1004 36 986 18 c 256,20,21
 968 0 968 0 943 0 c 2,22,-1
 161 0 l 2,23,24
 136 0 136 0 118 18 c 256,25,26
 100 36 100 36 100 61 c 2,27,-1
 100 155 l 2,28,29
 100 317 100 317 213 450 c 0,30,31
 294 544 294 544 470 657 c 0,32,33
 697 803 697 803 738 836 c 0,34,35
 869 945 869 945 869 1062 c 0,36,37
 869 1167 869 1167 794 1242 c 0,38,39
 720 1318 720 1318 613 1318 c 2,40,-1
 211 1318 l 2,41,42
 185 1318 185 1318 167 1335 c 0,43,44
 149 1353 149 1353 149 1379 c 2,45,-1
 149 1381 l 2,46,47
 149 1407 149 1407 167 1425 c 0,48,49
 185 1442 185 1442 211 1442 c 2,50,-1
 613 1442 l 2,0,1
EndSplineSet
Substitution2: "'sinf' Scientific Inferiors in Latin lookup 0 subtable" uni2082
EndChar

StartChar: three
Encoding: 51 51 22
Width: 915
Flags: W
LayerCount: 2
Fore
SplineSet
411 1442 m 2,0,1
 569 1442 569 1442 681 1331 c 0,2,3
 792 1220 792 1220 792 1062 c 0,4,5
 792 884 792 884 627 746 c 1,6,7
 815 602 815 602 815 403 c 0,8,9
 815 236 815 236 697 118 c 256,10,11
 579 0 579 0 411 0 c 2,12,-1
 131 0 l 2,13,14
 106 0 106 0 88 18 c 256,15,16
 70 36 70 36 70 61 c 2,17,-1
 70 63 l 2,18,19
 70 89 70 89 88 107 c 256,20,21
 106 125 106 125 131 125 c 2,22,-1
 411 125 l 2,23,24
 526 125 526 125 608 206 c 0,25,26
 689 288 689 288 689 403 c 256,27,28
 689 518 689 518 608 600 c 0,29,30
 526 682 526 682 411 682 c 2,31,-1
 175 682 l 2,32,33
 149 682 149 682 131 700 c 0,34,35
 114 717 114 717 114 743 c 2,36,-1
 114 745 l 2,37,38
 114 771 114 771 131 789 c 0,39,40
 149 806 149 806 175 806 c 2,41,-1
 411 807 l 2,42,43
 516 807 516 807 591 881 c 0,44,45
 666 956 666 956 666 1062 c 0,46,47
 666 1167 666 1167 591 1242 c 0,48,49
 517 1318 517 1318 411 1318 c 2,50,-1
 131 1318 l 2,51,52
 106 1318 106 1318 88 1335 c 0,53,54
 70 1353 70 1353 70 1379 c 2,55,-1
 70 1381 l 2,56,57
 70 1407 70 1407 88 1425 c 0,58,59
 106 1442 106 1442 131 1442 c 2,60,-1
 411 1442 l 2,0,1
EndSplineSet
Substitution2: "'sinf' Scientific Inferiors in Latin lookup 0 subtable" uni2083
EndChar

StartChar: four
Encoding: 52 52 23
Width: 1173
Flags: W
LayerCount: 2
Fore
SplineSet
176 290 m 2,0,1
 151 290 151 290 133 308 c 256,2,3
 115 326 115 326 115 351 c 2,4,-1
 115 421 l 2,5,6
 115 437 115 437 122 451 c 2,7,-1
 694 1410 l 2,8,9
 712 1442 712 1442 748 1442 c 2,10,-1
 853 1442 l 2,11,12
 878 1442 878 1442 896 1425 c 0,13,14
 914 1407 914 1407 914 1381 c 2,15,-1
 914 415 l 1,16,-1
 1069 415 l 2,17,18
 1095 415 1095 415 1113 397 c 0,19,20
 1130 379 1130 379 1130 353 c 2,21,-1
 1130 351 l 2,22,23
 1130 325 1130 325 1113 308 c 0,24,25
 1095 290 1095 290 1069 290 c 2,26,-1
 914 290 l 1,27,-1
 914 61 l 2,28,29
 914 36 914 36 896 18 c 256,30,31
 878 0 878 0 853 0 c 2,32,-1
 850 0 l 2,33,34
 825 0 825 0 807 18 c 256,35,36
 789 36 789 36 789 61 c 2,37,-1
 789 290 l 1,38,-1
 176 290 l 2,0,1
789 415 m 1,39,-1
 789 1325 l 1,40,-1
 245 415 l 1,41,-1
 789 415 l 1,39,-1
EndSplineSet
Substitution2: "'sinf' Scientific Inferiors in Latin lookup 0 subtable" uni2084
EndChar

StartChar: five
Encoding: 53 53 24
Width: 1054
Flags: W
LayerCount: 2
Fore
SplineSet
181 682 m 2,0,1
 156 682 156 682 138 700 c 256,2,3
 120 718 120 718 120 743 c 2,4,-1
 120 1381 l 2,5,6
 120 1407 120 1407 138 1425 c 0,7,8
 156 1442 156 1442 181 1442 c 2,9,-1
 791 1442 l 2,10,11
 816 1442 816 1442 834 1425 c 0,12,13
 852 1407 852 1407 852 1381 c 2,14,-1
 852 1379 l 2,15,16
 852 1353 852 1353 834 1335 c 0,17,18
 816 1318 816 1318 791 1318 c 2,19,-1
 245 1318 l 1,20,-1
 245 806 l 1,21,-1
 580 806 l 2,22,23
 748 806 748 806 866 689 c 0,24,25
 984 571 984 571 984 403 c 0,26,27
 984 236 984 236 866 118 c 256,28,29
 748 0 748 0 580 0 c 2,30,-1
 181 0 l 2,31,32
 156 0 156 0 138 18 c 256,33,34
 120 36 120 36 120 61 c 2,35,-1
 120 63 l 2,36,37
 120 89 120 89 138 107 c 256,38,39
 156 125 156 125 181 125 c 2,40,-1
 580 125 l 2,41,42
 695 125 695 125 777 206 c 0,43,44
 858 288 858 288 858 403 c 256,45,46
 858 518 858 518 777 600 c 0,47,48
 695 682 695 682 580 682 c 2,49,-1
 181 682 l 2,0,1
EndSplineSet
Substitution2: "'sinf' Scientific Inferiors in Latin lookup 0 subtable" uni2085
EndChar

StartChar: six
Encoding: 54 54 25
Width: 1138
Flags: W
LayerCount: 2
Fore
SplineSet
225 682 m 1,0,-1
 225 403 l 2,1,2
 225 288 225 288 307 206 c 0,3,4
 389 125 389 125 503 125 c 2,5,-1
 634 125 l 2,6,7
 749 125 749 125 831 206 c 0,8,9
 912 288 912 288 912 403 c 256,10,11
 912 518 912 518 831 600 c 0,12,13
 749 682 749 682 634 682 c 2,14,-1
 225 682 l 1,0,-1
503 0 m 2,15,16
 336 0 336 0 218 118 c 256,17,18
 100 236 100 236 100 403 c 2,19,-1
 100 1039 l 2,20,21
 100 1207 100 1207 218 1324 c 0,22,23
 336 1442 336 1442 503 1442 c 2,24,-1
 808 1442 l 2,25,26
 834 1442 834 1442 852 1425 c 0,27,28
 870 1407 870 1407 870 1381 c 2,29,-1
 870 1379 l 2,30,31
 870 1353 870 1353 852 1335 c 0,32,33
 834 1318 834 1318 808 1318 c 2,34,-1
 503 1318 l 2,35,36
 389 1318 389 1318 307 1236 c 256,37,38
 225 1154 225 1154 225 1039 c 2,39,-1
 225 806 l 1,40,-1
 634 806 l 2,41,42
 802 806 802 806 920 689 c 0,43,44
 1038 571 1038 571 1038 403 c 0,45,46
 1038 236 1038 236 920 118 c 256,47,48
 802 0 802 0 634 0 c 2,49,-1
 503 0 l 2,15,16
EndSplineSet
Substitution2: "'sinf' Scientific Inferiors in Latin lookup 0 subtable" uni2086
EndChar

StartChar: seven
Encoding: 55 55 26
Width: 840
Flags: W
LayerCount: 2
Fore
SplineSet
410 65 m 1,0,1
 410 35 410 35 393 18 c 0,2,3
 375 0 375 0 349 0 c 2,4,-1
 347 0 l 2,5,6
 322 0 322 0 304 18 c 256,7,8
 286 36 286 36 286 57 c 1,9,-1
 666 1318 l 1,10,-1
 71 1318 l 2,11,12
 46 1318 46 1318 28 1335 c 0,13,14
 10 1353 10 1353 10 1379 c 2,15,-1
 10 1381 l 2,16,17
 10 1407 10 1407 28 1425 c 0,18,19
 46 1442 46 1442 71 1442 c 2,20,-1
 749 1442 l 2,21,22
 775 1442 775 1442 793 1425 c 0,23,24
 810 1407 810 1407 810 1385 c 1,25,-1
 410 65 l 1,0,1
EndSplineSet
Substitution2: "'sinf' Scientific Inferiors in Latin lookup 0 subtable" uni2087
EndChar

StartChar: eight
Encoding: 56 56 27
Width: 1156
Flags: W
LayerCount: 2
Fore
SplineSet
653 1442 m 2,0,1
 811 1442 811 1442 922 1331 c 0,2,3
 1034 1220 1034 1220 1034 1062 c 0,4,5
 1034 884 1034 884 869 746 c 1,6,7
 1056 602 1056 602 1056 403 c 0,8,9
 1056 236 1056 236 938 118 c 0,10,11
 821 0 821 0 653 0 c 2,12,-1
 503 0 l 2,13,14
 336 0 336 0 218 118 c 256,15,16
 100 236 100 236 100 403 c 0,17,18
 100 602 100 602 288 746 c 1,19,20
 123 884 123 884 123 1062 c 0,21,22
 123 1220 123 1220 234 1331 c 256,23,24
 345 1442 345 1442 503 1442 c 2,25,-1
 653 1442 l 2,0,1
653 125 m 2,26,27
 768 125 768 125 849 206 c 0,28,29
 931 288 931 288 931 403 c 256,30,31
 931 518 931 518 849 600 c 0,32,33
 769 682 769 682 653 682 c 2,34,-1
 503 682 l 2,35,36
 389 682 389 682 307 600 c 256,37,38
 225 518 225 518 225 403 c 256,39,40
 225 288 225 288 307 206 c 0,41,42
 389 125 389 125 503 125 c 2,43,-1
 653 125 l 2,26,27
653 807 m 2,44,45
 758 807 758 807 833 881 c 0,46,47
 908 956 908 956 908 1062 c 0,48,49
 908 1167 908 1167 833 1242 c 0,50,51
 759 1318 759 1318 653 1318 c 2,52,-1
 503 1318 l 2,53,54
 397 1318 397 1318 323 1242 c 0,55,56
 248 1167 248 1167 248 1062 c 0,57,58
 248 956 248 956 323 881 c 0,59,60
 398 807 398 807 503 807 c 2,61,-1
 653 807 l 2,44,45
EndSplineSet
Substitution2: "'sinf' Scientific Inferiors in Latin lookup 0 subtable" uni2088
EndChar

StartChar: nine
Encoding: 57 57 28
Width: 1138
Flags: W
LayerCount: 2
Fore
SplineSet
913 760 m 1,0,-1
 913 1039 l 2,1,2
 913 1154 913 1154 831 1236 c 256,3,4
 749 1318 749 1318 634 1318 c 2,5,-1
 503 1318 l 2,6,7
 389 1318 389 1318 307 1236 c 256,8,9
 225 1154 225 1154 225 1039 c 256,10,11
 225 924 225 924 307 842 c 256,12,13
 389 760 389 760 503 760 c 2,14,-1
 913 760 l 1,0,-1
634 1442 m 2,15,16
 802 1442 802 1442 920 1324 c 0,17,18
 1038 1207 1038 1207 1038 1039 c 2,19,-1
 1038 403 l 2,20,21
 1038 236 1038 236 920 118 c 256,22,23
 802 0 802 0 634 0 c 2,24,-1
 242 0 l 2,25,26
 216 0 216 0 198 18 c 0,27,28
 181 35 181 35 181 61 c 2,29,-1
 181 63 l 2,30,31
 181 89 181 89 198 107 c 0,32,33
 216 125 216 125 242 125 c 2,34,-1
 634 125 l 2,35,36
 749 125 749 125 831 206 c 0,37,38
 912 288 912 288 912 403 c 2,39,-1
 913 636 l 1,40,-1
 503 636 l 2,41,42
 336 636 336 636 218 754 c 256,43,44
 100 872 100 872 100 1039 c 0,45,46
 100 1207 100 1207 218 1324 c 0,47,48
 336 1442 336 1442 503 1442 c 2,49,-1
 634 1442 l 2,15,16
EndSplineSet
Substitution2: "'sinf' Scientific Inferiors in Latin lookup 0 subtable" uni2089
EndChar

StartChar: colon
Encoding: 58 58 29
Width: 360
Flags: W
LayerCount: 2
Fore
SplineSet
180 0 m 0,0,1
 146 0 146 0 123 23 c 256,2,3
 100 46 100 46 100 80 c 0,4,5
 100 113 100 113 123 136 c 256,6,7
 146 159 146 159 180 159 c 0,8,9
 213 159 213 159 236 136 c 0,10,11
 260 112 260 112 260 80 c 0,12,13
 260 47 260 47 236 23 c 0,14,15
 213 0 213 0 180 0 c 0,0,1
180 873 m 0,16,17
 146 873 146 873 123 896 c 256,18,19
 100 919 100 919 100 953 c 0,20,21
 100 986 100 986 123 1009 c 256,22,23
 146 1032 146 1032 180 1032 c 0,24,25
 213 1032 213 1032 236 1009 c 0,26,27
 260 985 260 985 260 953 c 0,28,29
 260 920 260 920 236 896 c 0,30,31
 213 873 213 873 180 873 c 0,16,17
EndSplineSet
EndChar

StartChar: semicolon
Encoding: 59 59 30
AltUni2: 00037e.ffffffff.0
Width: 360
Flags: W
LayerCount: 2
Fore
SplineSet
228 121 m 2,0,1
 232 121 232 121 235 117 c 0,2,3
 237 114 237 114 235 110 c 2,4,-1
 106 -179 l 2,5,6
 103 -184 103 -184 98 -184 c 2,7,-1
 32 -184 l 2,8,9
 27 -184 27 -184 25 -181 c 256,10,11
 23 -178 23 -178 24 -174 c 2,12,-1
 102 115 l 2,13,14
 104 121 104 121 109 121 c 2,15,-1
 228 121 l 2,0,1
180 873 m 0,16,17
 146 873 146 873 123 896 c 256,18,19
 100 919 100 919 100 953 c 0,20,21
 100 986 100 986 123 1009 c 256,22,23
 146 1032 146 1032 180 1032 c 0,24,25
 213 1032 213 1032 236 1009 c 0,26,27
 260 985 260 985 260 953 c 0,28,29
 260 920 260 920 236 896 c 0,30,31
 213 873 213 873 180 873 c 0,16,17
EndSplineSet
EndChar

StartChar: less
Encoding: 60 60 31
Width: 1070
Flags: W
LayerCount: 2
Fore
SplineSet
50 761 m 2,0,1
 50 778 50 778 65 784 c 2,2,-1
 987 1142 l 2,3,4
 999 1147 999 1147 1009 1140 c 0,5,6
 1020 1133 1020 1133 1020 1120 c 2,7,-1
 1020 1053 l 2,8,9
 1020 1037 1020 1037 1005 1031 c 2,10,-1
 191 711 l 1,11,-1
 1005 390 l 2,12,13
 1020 384 1020 384 1020 368 c 2,14,-1
 1020 301 l 2,15,16
 1020 288 1020 288 1009 281 c 0,17,18
 999 274 999 274 987 279 c 2,19,-1
 65 638 l 2,20,21
 50 644 50 644 50 660 c 2,22,-1
 50 761 l 2,0,1
EndSplineSet
EndChar

StartChar: equal
Encoding: 61 61 32
Width: 1032
Flags: W
LayerCount: 2
Fore
SplineSet
982 495 m 2,0,1
 982 470 982 470 964 452 c 256,2,3
 946 434 946 434 920 434 c 2,4,-1
 111 434 l 2,5,6
 86 434 86 434 68 452 c 256,7,8
 50 470 50 470 50 495 c 2,9,-1
 50 497 l 2,10,11
 50 523 50 523 68 541 c 256,12,13
 86 559 86 559 111 559 c 2,14,-1
 920 559 l 2,15,16
 946 559 946 559 964 541 c 256,17,18
 982 523 982 523 982 497 c 2,19,-1
 982 495 l 2,0,1
982 930 m 2,20,21
 982 905 982 905 964 887 c 256,22,23
 946 869 946 869 920 869 c 2,24,-1
 111 869 l 2,25,26
 86 869 86 869 68 887 c 256,27,28
 50 905 50 905 50 930 c 2,29,-1
 50 932 l 2,30,31
 50 958 50 958 68 976 c 256,32,33
 86 994 86 994 111 994 c 2,34,-1
 920 994 l 2,35,36
 946 994 946 994 964 976 c 256,37,38
 982 958 982 958 982 932 c 2,39,-1
 982 930 l 2,20,21
EndSplineSet
Substitution2: "'sinf' Scientific Inferiors in Latin lookup 0 subtable" uni208C
EndChar

StartChar: greater
Encoding: 62 62 33
Width: 1070
Flags: W
LayerCount: 2
Fore
SplineSet
1020 660 m 2,0,1
 1020 644 1020 644 1005 638 c 2,2,-1
 83 279 l 2,3,4
 71 274 71 274 61 281 c 0,5,6
 50 288 50 288 50 301 c 2,7,-1
 50 368 l 2,8,9
 50 384 50 384 65 390 c 2,10,-1
 879 711 l 1,11,-1
 65 1031 l 2,12,13
 50 1037 50 1037 50 1053 c 2,14,-1
 50 1120 l 2,15,16
 50 1133 50 1133 61 1140 c 0,17,18
 71 1147 71 1147 83 1142 c 2,19,-1
 1005 784 l 2,20,21
 1020 778 1020 778 1020 761 c 2,22,-1
 1020 660 l 2,0,1
EndSplineSet
EndChar

StartChar: question
Encoding: 63 63 34
Width: 990
Flags: W
LayerCount: 2
Fore
SplineSet
779 1305 m 0,1,2
 900 1183 900 1183 900 1010 c 0,3,4
 900 863 900 863 808 749 c 0,5,6
 717 636 717 636 542 596 c 1,7,-1
 542 418 l 2,8,9
 542 395 542 395 525 377 c 0,10,11
 508 360 508 360 483 360 c 2,12,-1
 480 360 l 2,13,14
 455 360 455 360 438 377 c 0,15,16
 421 395 421 395 421 420 c 2,17,-1
 421 655 l 2,18,19
 421 680 421 680 438 697 c 0,20,21
 456 714 456 714 479 715 c 2,22,-1
 484 715 l 2,23,24
 606 715 606 715 692 801 c 0,25,26
 779 888 779 888 779 1010 c 256,27,28
 779 1132 779 1132 692 1219 c 0,29,30
 606 1305 606 1305 484 1305 c 0,31,32
 385 1305 385 1305 307 1246 c 0,33,34
 230 1188 230 1188 201 1097 c 0,35,36
 196 1077 196 1077 180 1066 c 0,37,38
 165 1055 165 1055 145 1055 c 2,39,-1
 142 1055 l 2,40,41
 112 1055 112 1055 94 1079 c 0,42,43
 77 1103 77 1103 86 1131 c 0,44,45
 125 1261 125 1261 234 1343 c 0,46,47
 345 1426 345 1426 484 1426 c 0,48,0
 657 1426 657 1426 779 1305 c 0,1,2
481 -1 m 0,49,50
 447 -1 447 -1 424 22 c 256,51,52
 401 45 401 45 401 79 c 0,53,54
 401 112 401 112 424 135 c 256,55,56
 447 158 447 158 481 158 c 0,57,58
 514 158 514 158 537 135 c 0,59,60
 561 111 561 111 561 79 c 0,61,62
 561 46 561 46 537 22 c 0,63,64
 514 -1 514 -1 481 -1 c 0,49,50
EndSplineSet
EndChar

StartChar: at
Encoding: 64 64 35
Width: 2085
Flags: W
LayerCount: 2
Fore
SplineSet
1043 -408 m 2,1,-1
 1041 -408 l 2,2,3
 649 -408 649 -408 375 -132 c 0,4,5
 100 141 100 141 100 528 c 0,6,7
 100 914 100 914 375 1187 c 0,8,9
 650 1464 650 1464 1043 1464 c 0,10,11
 1435 1464 1435 1464 1710 1187 c 0,12,13
 1985 914 1985 914 1985 528 c 0,14,15
 1985 295 1985 295 1864 121 c 0,16,17
 1752 -44 1752 -44 1617 -50 c 1,18,-1
 1602 -50 l 2,19,20
 1526 -50 1526 -50 1477 -1 c 0,21,22
 1404 67 1404 67 1404 277 c 2,23,-1
 1404 297 l 1,24,-1
 1406 520 l 2,25,26
 1406 702 1406 702 1287 807 c 0,27,28
 1213 870 1213 870 1107 890 c 0,29,30
 1067 897 1067 897 1027 897 c 0,31,32
 964 897 964 897 902 878 c 0,33,34
 654 801 654 801 654 520 c 0,35,36
 654 288 654 288 856 183 c 0,37,38
 939 141 939 141 1032 141 c 0,39,40
 1047 141 1047 141 1059 143 c 0,41,42
 1157 151 1157 151 1214 188 c 1,43,-1
 1262 81 l 1,44,45
 1186 37 1186 37 1070 29 c 0,46,47
 1051 28 1051 28 1032 28 c 0,48,49
 909 28 909 28 795 86 c 0,50,51
 669 150 669 150 601 264 c 0,52,53
 529 380 529 380 529 520 c 0,54,55
 529 749 529 749 683 885 c 0,56,57
 825 1011 825 1011 1030 1011 c 0,58,59
 1234 1011 1234 1011 1376 884 c 0,60,61
 1531 749 1531 749 1531 520 c 2,62,-1
 1530 295 l 1,63,-1
 1530 271 l 2,64,65
 1530 114 1530 114 1569 75 c 0,66,67
 1583 63 1583 63 1604 63 c 2,68,-1
 1610 63 l 1,69,70
 1690 68 1690 68 1772 200 c 0,71,72
 1860 348 1860 348 1860 528 c 0,73,74
 1860 869 1860 869 1617 1112 c 0,75,76
 1378 1351 1378 1351 1043 1351 c 0,77,78
 707 1351 707 1351 465 1109 c 0,79,80
 225 869 225 869 225 528 c 0,81,82
 225 186 225 186 468 -57 c 0,83,84
 708 -295 708 -295 1041 -295 c 2,85,-1
 1043 -295 l 2,86,87
 1237 -295 1237 -295 1392 -214 c 1,88,-1
 1439 -321 l 1,89,0
 1264 -408 1264 -408 1043 -408 c 2,1,-1
EndSplineSet
EndChar

StartChar: A
Encoding: 65 65 36
Width: 1135
Flags: W
LayerCount: 2
Fore
SplineSet
1025 61 m 2,0,1
 1025 36 1025 36 1007 18 c 256,2,3
 989 0 989 0 964 0 c 2,4,-1
 961 0 l 2,5,6
 936 0 936 0 918 18 c 256,7,8
 900 36 900 36 900 61 c 2,9,-1
 900 567 l 1,10,-1
 235 567 l 1,11,-1
 235 61 l 2,12,13
 235 36 235 36 217 18 c 256,14,15
 199 0 199 0 174 0 c 2,16,-1
 171 0 l 2,17,18
 146 0 146 0 128 18 c 256,19,20
 110 36 110 36 110 61 c 2,21,-1
 110 985 l 2,22,23
 110 1175 110 1175 244 1309 c 0,24,25
 378 1442 378 1442 567 1442 c 0,26,27
 757 1442 757 1442 891 1309 c 0,28,29
 1025 1175 1025 1175 1025 985 c 2,30,-1
 1025 61 l 2,0,1
900 691 m 1,31,-1
 900 985 l 2,32,33
 900 1122 900 1122 803 1220 c 0,34,35
 705 1318 705 1318 567 1318 c 0,36,37
 430 1318 430 1318 332 1220 c 0,38,39
 235 1122 235 1122 235 985 c 2,40,-1
 235 691 l 1,41,-1
 900 691 l 1,31,-1
EndSplineSet
Substitution2: "'nalt' Alternate Annotation Forms in Latin lookup 3 subtable" uni24B6
EndChar

StartChar: B
Encoding: 66 66 37
Width: 1044
Flags: W
LayerCount: 2
Fore
SplineSet
235 806 m 1,0,-1
 570 807 l 2,1,2
 676 807 676 807 751 881 c 0,3,4
 826 956 826 956 826 1062 c 0,5,6
 826 1167 826 1167 751 1242 c 0,7,8
 677 1318 677 1318 570 1318 c 2,9,-1
 332 1318 l 2,10,11
 292 1318 292 1318 263 1289 c 0,12,13
 235 1260 235 1260 235 1220 c 2,14,-1
 235 806 l 1,0,-1
110 1220 m 2,15,16
 110 1313 110 1313 175 1378 c 0,17,18
 240 1442 240 1442 332 1442 c 2,19,-1
 570 1442 l 2,20,21
 729 1442 729 1442 840 1331 c 256,22,23
 951 1220 951 1220 951 1062 c 0,24,25
 951 884 951 884 786 746 c 1,26,27
 974 602 974 602 974 403 c 0,28,29
 974 236 974 236 856 118 c 256,30,31
 738 0 738 0 570 0 c 2,32,-1
 332 0 l 2,33,34
 240 0 240 0 175 65 c 256,35,36
 110 130 110 130 110 222 c 2,37,-1
 110 1220 l 2,15,16
570 125 m 2,38,39
 685 125 685 125 767 206 c 0,40,41
 848 288 848 288 848 403 c 256,42,43
 848 518 848 518 767 600 c 0,44,45
 685 682 685 682 570 682 c 2,46,-1
 235 682 l 1,47,-1
 235 222 l 2,48,49
 235 182 235 182 263 153 c 0,50,51
 292 125 292 125 332 125 c 2,52,-1
 570 125 l 2,38,39
EndSplineSet
Substitution2: "'nalt' Alternate Annotation Forms in Latin lookup 3 subtable" uni24B7
EndChar

StartChar: C
Encoding: 67 67 38
Width: 1082
Flags: W
LayerCount: 2
Fore
SplineSet
976 1420 m 0,1,2
 1022 1408 1022 1408 1022 1361 c 2,3,-1
 1022 1358 l 2,4,5
 1022 1329 1022 1329 998 1310 c 0,6,7
 974 1292 974 1292 945 1299 c 0,8,9
 872 1318 872 1318 796 1318 c 0,10,11
 550 1318 550 1318 375 1143 c 256,12,13
 200 968 200 968 200 721 c 256,14,15
 200 474 200 474 375 299 c 0,16,17
 550 125 550 125 796 125 c 0,18,19
 872 125 872 125 945 143 c 0,20,21
 974 150 974 150 998 132 c 256,22,23
 1022 114 1022 114 1022 84 c 2,24,-1
 1022 82 l 2,25,26
 1022 34 1022 34 976 22 c 0,27,28
 887 0 887 0 796 0 c 0,29,30
 497 0 497 0 286 211 c 256,31,32
 75 422 75 422 75 721 c 256,33,34
 75 1020 75 1020 286 1231 c 256,35,36
 497 1442 497 1442 796 1442 c 0,37,0
 887 1442 887 1442 976 1420 c 0,1,2
EndSplineSet
Substitution2: "'nalt' Alternate Annotation Forms in Latin lookup 3 subtable" uni24B8
EndChar

StartChar: D
Encoding: 68 68 39
Width: 1264
Flags: W
LayerCount: 2
Fore
SplineSet
235 222 m 2,0,1
 235 182 235 182 263 153 c 0,2,3
 292 125 292 125 332 125 c 2,4,-1
 483 125 l 2,5,6
 730 125 730 125 905 299 c 0,7,8
 1080 474 1080 474 1080 721 c 256,9,10
 1080 968 1080 968 905 1143 c 256,11,12
 730 1318 730 1318 483 1318 c 2,13,-1
 332 1318 l 2,14,15
 292 1318 292 1318 263 1289 c 0,16,17
 235 1260 235 1260 235 1220 c 2,18,-1
 235 222 l 2,0,1
483 1442 m 2,19,20
 782 1442 782 1442 993 1231 c 256,21,22
 1204 1020 1204 1020 1204 721 c 256,23,24
 1204 422 1204 422 993 211 c 256,25,26
 782 0 782 0 483 0 c 2,27,-1
 332 0 l 2,28,29
 240 0 240 0 175 65 c 256,30,31
 110 130 110 130 110 222 c 2,32,-1
 110 1220 l 2,33,34
 110 1313 110 1313 175 1378 c 0,35,36
 240 1442 240 1442 332 1442 c 2,37,-1
 483 1442 l 2,19,20
EndSplineSet
Substitution2: "'nalt' Alternate Annotation Forms in Latin lookup 3 subtable" uni24B9
EndChar

StartChar: E
Encoding: 69 69 40
Width: 888
Flags: W
LayerCount: 2
Fore
SplineSet
235 783 m 1,0,-1
 772 783 l 2,1,2
 797 783 797 783 815 766 c 0,3,4
 833 748 833 748 833 722 c 2,5,-1
 833 720 l 2,6,7
 833 694 833 694 815 676 c 0,8,9
 797 659 797 659 772 659 c 2,10,-1
 235 659 l 1,11,-1
 235 305 l 2,12,13
 235 231 235 231 288 178 c 256,14,15
 341 125 341 125 415 125 c 2,16,-1
 772 125 l 2,17,18
 797 125 797 125 815 107 c 256,19,20
 833 89 833 89 833 63 c 2,21,-1
 833 61 l 2,22,23
 833 36 833 36 815 18 c 256,24,25
 797 0 797 0 772 0 c 2,26,-1
 415 0 l 2,27,28
 288 0 288 0 199 89 c 256,29,30
 110 178 110 178 110 305 c 2,31,-1
 110 1137 l 2,32,33
 110 1264 110 1264 199 1353 c 256,34,35
 288 1442 288 1442 415 1442 c 2,36,-1
 772 1442 l 2,37,38
 797 1442 797 1442 815 1424 c 256,39,40
 833 1406 833 1406 833 1381 c 2,41,-1
 833 1379 l 2,42,43
 833 1353 833 1353 815 1335 c 256,44,45
 797 1317 797 1317 772 1317 c 2,46,-1
 415 1317 l 2,47,48
 341 1317 341 1317 288 1264 c 256,49,50
 235 1211 235 1211 235 1137 c 2,51,-1
 235 783 l 1,0,-1
EndSplineSet
Substitution2: "'nalt' Alternate Annotation Forms in Latin lookup 3 subtable" uni24BA
EndChar

StartChar: F
Encoding: 70 70 41
Width: 813
Flags: W
LayerCount: 2
Fore
SplineSet
235 783 m 1,0,-1
 712 783 l 2,1,2
 737 783 737 783 755 766 c 0,3,4
 773 748 773 748 773 722 c 2,5,-1
 773 720 l 2,6,7
 773 695 773 695 755 677 c 256,8,9
 737 659 737 659 712 659 c 2,10,-1
 235 659 l 1,11,-1
 235 61 l 2,12,13
 235 36 235 36 217 18 c 256,14,15
 199 0 199 0 174 0 c 2,16,-1
 171 0 l 2,17,18
 146 0 146 0 128 18 c 256,19,20
 110 36 110 36 110 61 c 2,21,-1
 110 1137 l 2,22,23
 110 1264 110 1264 199 1353 c 256,24,25
 288 1442 288 1442 415 1442 c 2,26,-1
 722 1442 l 2,27,28
 747 1442 747 1442 765 1425 c 0,29,30
 783 1407 783 1407 783 1381 c 2,31,-1
 783 1379 l 2,32,33
 783 1353 783 1353 765 1335 c 0,34,35
 747 1318 747 1318 722 1318 c 2,36,-1
 415 1318 l 2,37,38
 341 1318 341 1318 288 1265 c 256,39,40
 235 1212 235 1212 235 1137 c 2,41,-1
 235 783 l 1,0,-1
EndSplineSet
Substitution2: "'nalt' Alternate Annotation Forms in Latin lookup 3 subtable" uni24BB
EndChar

StartChar: G
Encoding: 71 71 42
Width: 1603
Flags: W
LayerCount: 2
Fore
SplineSet
1332 1210 m 0,1,2
 1351 1189 1351 1189 1348 1161 c 0,3,4
 1345 1134 1345 1134 1321 1117 c 1,5,-1
 1319 1115 l 2,6,7
 1302 1103 1302 1103 1279 1106 c 0,8,9
 1256 1108 1256 1108 1240 1125 c 0,10,11
 1063 1318 1063 1318 801 1318 c 0,12,13
 555 1318 555 1318 380 1143 c 256,14,15
 205 968 205 968 205 721 c 256,16,17
 205 474 205 474 380 299 c 0,18,19
 555 125 555 125 801 125 c 0,20,21
 1022 125 1022 125 1190 268 c 0,22,23
 1355 410 1355 410 1395 659 c 1,24,-1
 826 659 l 2,25,26
 800 659 800 659 782 677 c 0,27,28
 765 694 765 694 765 720 c 2,29,-1
 765 722 l 2,30,31
 765 748 765 748 782 766 c 0,32,33
 800 783 800 783 826 783 c 2,34,-1
 1461 783 l 2,35,36
 1487 783 1487 783 1505 766 c 0,37,38
 1522 748 1522 748 1523 722 c 2,39,-1
 1523 721 l 2,40,41
 1523 422 1523 422 1312 211 c 0,42,43
 1100 0 1100 0 801 0 c 256,44,45
 502 0 502 0 291 211 c 256,46,47
 80 422 80 422 80 721 c 256,48,49
 80 1020 80 1020 291 1231 c 256,50,51
 502 1442 502 1442 801 1442 c 0,52,0
 1118 1442 1118 1442 1332 1210 c 0,1,2
EndSplineSet
Substitution2: "'nalt' Alternate Annotation Forms in Latin lookup 3 subtable" uni24BC
EndChar

StartChar: H
Encoding: 72 72 43
Width: 1144
Flags: W
LayerCount: 2
Fore
SplineSet
174 1442 m 2,0,1
 199 1442 199 1442 217 1425 c 0,2,3
 235 1407 235 1407 235 1381 c 2,4,-1
 235 783 l 1,5,-1
 909 783 l 1,6,-1
 909 1381 l 2,7,8
 909 1407 909 1407 927 1425 c 0,9,10
 945 1442 945 1442 970 1442 c 2,11,-1
 973 1442 l 2,12,13
 998 1442 998 1442 1016 1425 c 0,14,15
 1034 1407 1034 1407 1034 1381 c 2,16,-1
 1034 61 l 2,17,18
 1034 36 1034 36 1016 18 c 256,19,20
 998 0 998 0 973 0 c 2,21,-1
 970 0 l 2,22,23
 945 0 945 0 927 18 c 256,24,25
 909 36 909 36 909 61 c 2,26,-1
 909 659 l 1,27,-1
 235 659 l 1,28,-1
 235 61 l 2,29,30
 235 36 235 36 217 18 c 256,31,32
 199 0 199 0 174 0 c 2,33,-1
 171 0 l 2,34,35
 146 0 146 0 128 18 c 256,36,37
 110 36 110 36 110 61 c 2,38,-1
 110 1381 l 2,39,40
 110 1407 110 1407 128 1425 c 0,41,42
 146 1442 146 1442 171 1442 c 2,43,-1
 174 1442 l 2,0,1
EndSplineSet
Substitution2: "'nalt' Alternate Annotation Forms in Latin lookup 3 subtable" uni24BD
EndChar

StartChar: I
Encoding: 73 73 44
Width: 405
Flags: W
LayerCount: 2
Fore
SplineSet
204 1442 m 2,0,1
 229 1442 229 1442 247 1425 c 0,2,3
 265 1407 265 1407 265 1381 c 2,4,-1
 265 61 l 2,5,6
 265 36 265 36 247 18 c 256,7,8
 229 0 229 0 204 0 c 2,9,-1
 201 0 l 2,10,11
 176 0 176 0 158 18 c 256,12,13
 140 36 140 36 140 61 c 2,14,-1
 140 1381 l 2,15,16
 140 1407 140 1407 158 1425 c 0,17,18
 176 1442 176 1442 201 1442 c 2,19,-1
 204 1442 l 2,0,1
EndSplineSet
Substitution2: "'nalt' Alternate Annotation Forms in Latin lookup 3 subtable" uni24BE
EndChar

StartChar: J
Encoding: 74 74 45
Width: 681
Flags: W
LayerCount: 2
Fore
SplineSet
437 1381 m 2,0,1
 437 1407 437 1407 454 1425 c 0,2,3
 472 1442 472 1442 498 1442 c 2,4,-1
 500 1442 l 2,5,6
 526 1442 526 1442 544 1425 c 0,7,8
 561 1407 561 1407 561 1381 c 2,9,-1
 561 305 l 2,10,11
 561 178 561 178 472 89 c 256,12,13
 383 0 383 0 256 0 c 2,14,-1
 71 0 l 2,15,16
 46 0 46 0 28 18 c 256,17,18
 10 36 10 36 10 61 c 2,19,-1
 10 63 l 2,20,21
 10 89 10 89 28 107 c 256,22,23
 46 125 46 125 71 125 c 2,24,-1
 256 125 l 2,25,26
 331 125 331 125 384 178 c 256,27,28
 437 231 437 231 437 305 c 2,29,-1
 437 1381 l 2,0,1
EndSplineSet
Substitution2: "'nalt' Alternate Annotation Forms in Latin lookup 3 subtable" uni24BF
EndChar

StartChar: K
Encoding: 75 75 46
Width: 1068
Flags: W
LayerCount: 2
Fore
SplineSet
174 1442 m 2,0,1
 199 1442 199 1442 217 1425 c 0,2,3
 235 1407 235 1407 235 1381 c 2,4,-1
 235 833 l 1,5,-1
 399 833 l 2,6,7
 560 833 560 833 674 947 c 0,8,9
 789 1060 789 1060 790 1222 c 2,10,-1
 790 1381 l 2,11,12
 790 1407 790 1407 808 1425 c 0,13,14
 825 1442 825 1442 851 1442 c 2,15,-1
 854 1442 l 2,16,17
 879 1442 879 1442 897 1425 c 0,18,19
 915 1407 915 1407 915 1381 c 2,20,-1
 915 1222 l 2,21,22
 915 963 915 963 671 781 c 1,23,24
 824 689 824 689 890 574 c 0,25,26
 958 455 958 455 958 317 c 2,27,-1
 958 61 l 2,28,29
 958 35 958 35 941 18 c 0,30,31
 923 0 923 0 897 0 c 2,32,-1
 895 0 l 2,33,34
 869 0 869 0 851 18 c 0,35,36
 834 35 834 35 834 61 c 2,37,-1
 834 317 l 2,38,39
 833 479 833 479 718 592 c 0,40,41
 603 706 603 706 442 706 c 2,42,-1
 235 706 l 1,43,-1
 235 61 l 2,44,45
 235 36 235 36 217 18 c 256,46,47
 199 0 199 0 174 0 c 2,48,-1
 171 0 l 2,49,50
 146 0 146 0 128 18 c 256,51,52
 110 36 110 36 110 61 c 2,53,-1
 110 1381 l 2,54,55
 110 1407 110 1407 128 1425 c 0,56,57
 146 1442 146 1442 171 1442 c 2,58,-1
 174 1442 l 2,0,1
EndSplineSet
Substitution2: "'nalt' Alternate Annotation Forms in Latin lookup 3 subtable" uni24C0
EndChar

StartChar: L
Encoding: 76 76 47
Width: 788
Flags: W
LayerCount: 2
Fore
SplineSet
245 305 m 2,0,1
 245 231 245 231 298 178 c 256,2,3
 351 125 351 125 425 125 c 2,4,-1
 716 125 l 2,5,6
 742 125 742 125 760 107 c 256,7,8
 778 89 778 89 778 63 c 2,9,-1
 778 61 l 2,10,11
 778 36 778 36 760 18 c 256,12,13
 742 0 742 0 716 0 c 2,14,-1
 425 0 l 2,15,16
 298 0 298 0 209 89 c 256,17,18
 120 178 120 178 120 305 c 2,19,-1
 120 1381 l 2,20,21
 120 1407 120 1407 138 1425 c 0,22,23
 156 1442 156 1442 181 1442 c 2,24,-1
 184 1442 l 2,25,26
 209 1442 209 1442 227 1425 c 0,27,28
 245 1407 245 1407 245 1381 c 2,29,-1
 245 305 l 2,0,1
EndSplineSet
Substitution2: "'nalt' Alternate Annotation Forms in Latin lookup 3 subtable" uni24C1
EndChar

StartChar: M
Encoding: 77 77 48
Width: 1779
Flags: W
LayerCount: 2
Fore
SplineSet
235 61 m 2,0,1
 235 36 235 36 217 18 c 256,2,3
 199 0 199 0 174 0 c 2,4,-1
 171 0 l 2,5,6
 146 0 146 0 128 18 c 256,7,8
 110 36 110 36 110 61 c 2,9,-1
 110 1021 l 2,10,11
 110 1196 110 1196 233 1319 c 256,12,13
 356 1442 356 1442 531 1442 c 0,14,15
 739 1442 739 1442 890 1246 c 1,16,17
 1040 1442 1040 1442 1248 1442 c 0,18,19
 1423 1442 1423 1442 1546 1319 c 256,20,21
 1669 1196 1669 1196 1669 1021 c 2,22,-1
 1669 61 l 2,23,24
 1669 35 1669 35 1652 18 c 0,25,26
 1634 0 1634 0 1608 0 c 2,27,-1
 1606 0 l 2,28,29
 1581 0 1581 0 1563 18 c 256,30,31
 1545 36 1545 36 1545 61 c 2,32,-1
 1545 1021 l 2,33,34
 1545 1144 1545 1144 1458 1231 c 256,35,36
 1371 1318 1371 1318 1248 1318 c 0,37,38
 1126 1318 1126 1318 1039 1231 c 256,39,40
 952 1144 952 1144 952 1021 c 2,41,-1
 952 61 l 2,42,43
 952 36 952 36 934 18 c 256,44,45
 916 0 916 0 891 0 c 2,46,-1
 889 0 l 2,47,48
 863 0 863 0 845 18 c 256,49,50
 827 36 827 36 827 61 c 2,51,-1
 827 1021 l 2,52,53
 827 1144 827 1144 740 1231 c 256,54,55
 653 1318 653 1318 531 1318 c 256,56,57
 409 1318 409 1318 322 1231 c 256,58,59
 235 1144 235 1144 235 1021 c 2,60,-1
 235 61 l 2,0,1
EndSplineSet
Substitution2: "'nalt' Alternate Annotation Forms in Latin lookup 3 subtable" uni24C2
EndChar

StartChar: N
Encoding: 78 78 49
Width: 1135
Flags: W
LayerCount: 2
Fore
SplineSet
1025 61 m 2,0,1
 1025 36 1025 36 1007 18 c 256,2,3
 989 0 989 0 964 0 c 2,4,-1
 961 0 l 2,5,6
 936 0 936 0 918 18 c 256,7,8
 900 36 900 36 900 61 c 2,9,-1
 900 985 l 2,10,11
 900 1122 900 1122 803 1220 c 0,12,13
 705 1318 705 1318 567 1318 c 0,14,15
 430 1318 430 1318 332 1220 c 0,16,17
 235 1122 235 1122 235 985 c 2,18,-1
 235 61 l 2,19,20
 235 36 235 36 217 18 c 256,21,22
 199 0 199 0 174 0 c 2,23,-1
 171 0 l 2,24,25
 146 0 146 0 128 18 c 256,26,27
 110 36 110 36 110 61 c 2,28,-1
 110 985 l 2,29,30
 110 1175 110 1175 244 1309 c 0,31,32
 378 1442 378 1442 567 1442 c 0,33,34
 757 1442 757 1442 891 1309 c 0,35,36
 1025 1175 1025 1175 1025 985 c 2,37,-1
 1025 61 l 2,0,1
EndSplineSet
Substitution2: "'nalt' Alternate Annotation Forms in Latin lookup 3 subtable" uni24C3
EndChar

StartChar: O
Encoding: 79 79 50
Width: 1603
Flags: W
LayerCount: 2
Fore
SplineSet
1312 1231 m 0,1,2
 1523 1020 1523 1020 1523 721 c 256,3,4
 1523 422 1523 422 1312 211 c 0,5,6
 1100 0 1100 0 801 0 c 256,7,8
 502 0 502 0 291 211 c 256,9,10
 80 422 80 422 80 721 c 256,11,12
 80 1020 80 1020 291 1231 c 256,13,14
 502 1442 502 1442 801 1442 c 256,15,0
 1100 1442 1100 1442 1312 1231 c 0,1,2
380 1143 m 256,17,18
 205 968 205 968 205 721 c 256,19,20
 205 474 205 474 380 299 c 0,21,22
 555 125 555 125 801 125 c 0,23,24
 1048 125 1048 125 1223 299 c 0,25,26
 1398 474 1398 474 1398 721 c 256,27,28
 1398 968 1398 968 1223 1143 c 256,29,30
 1048 1318 1048 1318 801 1318 c 0,31,16
 555 1318 555 1318 380 1143 c 256,17,18
EndSplineSet
EndChar

StartChar: P
Encoding: 80 80 51
Width: 1122
Flags: W
LayerCount: 2
Fore
SplineSet
235 625 m 1,0,-1
 581 625 l 2,1,2
 724 625 724 625 826 727 c 0,3,4
 927 828 927 828 927 971 c 256,5,6
 927 1114 927 1114 826 1216 c 0,7,8
 724 1318 724 1318 581 1318 c 256,9,10
 438 1318 438 1318 336 1216 c 0,11,12
 235 1114 235 1114 235 971 c 2,13,-1
 235 625 l 1,0,-1
235 500 m 1,14,-1
 235 61 l 2,15,16
 235 36 235 36 217 18 c 256,17,18
 199 0 199 0 174 0 c 2,19,-1
 171 0 l 2,20,21
 146 0 146 0 128 18 c 256,22,23
 110 36 110 36 110 61 c 2,24,-1
 110 971 l 2,25,26
 110 1167 110 1167 248 1305 c 0,27,28
 386 1442 386 1442 581 1442 c 0,29,30
 777 1442 777 1442 914 1305 c 0,31,32
 1052 1167 1052 1167 1052 971 c 0,33,34
 1052 776 1052 776 914 638 c 0,35,36
 777 500 777 500 581 500 c 2,37,-1
 235 500 l 1,14,-1
EndSplineSet
Substitution2: "'nalt' Alternate Annotation Forms in Latin lookup 3 subtable" uni24C5
EndChar

StartChar: Q
Encoding: 81 81 52
Width: 1603
Flags: W
LayerCount: 2
Fore
SplineSet
1312 1231 m 0,1,2
 1523 1020 1523 1020 1523 721 c 0,3,4
 1523 446 1523 446 1340 242 c 0,5,6
 1159 38 1159 38 864 3 c 1,7,-1
 864 -208 l 2,8,9
 864 -234 864 -234 846 -252 c 0,10,11
 828 -269 828 -269 802 -269 c 2,12,-1
 800 -269 l 2,13,14
 774 -269 774 -269 757 -252 c 0,15,16
 739 -234 739 -234 739 -208 c 2,17,-1
 739 3 l 1,18,19
 444 38 444 38 262 242 c 256,20,21
 80 446 80 446 80 721 c 0,22,23
 80 1020 80 1020 291 1231 c 256,24,25
 502 1442 502 1442 801 1442 c 256,26,0
 1100 1442 1100 1442 1312 1231 c 0,1,2
802 471 m 2,27,28
 828 471 828 471 846 453 c 256,29,30
 864 435 864 435 864 410 c 2,31,-1
 864 127 l 1,32,33
 1113 167 1113 167 1255 334 c 0,34,35
 1398 501 1398 501 1398 721 c 0,36,37
 1398 968 1398 968 1223 1143 c 256,38,39
 1048 1318 1048 1318 801 1318 c 0,40,41
 555 1318 555 1318 380 1143 c 256,42,43
 205 968 205 968 205 721 c 0,44,45
 205 500 205 500 348 333 c 0,46,47
 490 167 490 167 739 127 c 1,48,-1
 739 410 l 2,49,50
 739 435 739 435 757 453 c 256,51,52
 775 471 775 471 800 471 c 2,53,-1
 802 471 l 2,27,28
EndSplineSet
Substitution2: "'nalt' Alternate Annotation Forms in Latin lookup 3 subtable" uni24C6
EndChar

StartChar: R
Encoding: 82 82 53
Width: 1070
Flags: W
LayerCount: 2
Fore
SplineSet
570 686 m 2,0,1
 700 686 700 686 793 778 c 0,2,3
 886 871 886 871 886 1001 c 0,4,5
 886 1132 886 1132 793 1225 c 0,6,7
 700 1317 700 1317 570 1317 c 2,8,-1
 455 1317 l 2,9,10
 356 1317 356 1317 296 1258 c 0,11,12
 249 1213 249 1213 238 1150 c 0,13,14
 234 1133 234 1133 234 1103 c 2,15,-1
 234 686 l 1,16,-1
 570 686 l 2,0,1
886 246 m 2,17,18
 886 376 886 376 793 469 c 0,19,20
 709 554 709 554 591 561 c 1,21,-1
 234 561 l 1,22,-1
 234 61 l 2,23,24
 234 35 234 35 217 18 c 0,25,26
 199 0 199 0 173 0 c 2,27,-1
 171 0 l 2,28,29
 146 0 146 0 128 18 c 256,30,31
 110 36 110 36 110 61 c 2,32,-1
 110 1112 l 2,33,34
 110 1249 110 1249 206 1345 c 0,35,36
 303 1442 303 1442 440 1442 c 2,37,-1
 570 1442 l 2,38,39
 753 1442 753 1442 881 1313 c 0,40,41
 1010 1184 1010 1184 1010 1001 c 0,42,43
 1010 819 1010 819 881 690 c 0,44,45
 857 667 857 667 802 624 c 1,46,47
 858 580 858 580 882 557 c 0,48,49
 1010 429 1010 429 1010 246 c 2,50,-1
 1010 61 l 2,51,52
 1010 36 1010 36 992 18 c 256,53,54
 974 0 974 0 949 0 c 2,55,-1
 947 0 l 2,56,57
 922 0 922 0 904 18 c 256,58,59
 886 36 886 36 886 61 c 2,60,-1
 886 246 l 2,17,18
EndSplineSet
Substitution2: "'nalt' Alternate Annotation Forms in Latin lookup 3 subtable" uni24C7
EndChar

StartChar: S
Encoding: 83 83 54
Width: 976
Flags: W
LayerCount: 2
Fore
SplineSet
470 1320 m 2,0,1
 360 1320 360 1320 282 1242 c 256,2,3
 204 1164 204 1164 204 1054 c 0,4,5
 204 918 204 918 327 847 c 0,6,7
 374 820 374 820 582 760 c 0,8,9
 739 713 739 713 808 651 c 0,10,11
 906 562 906 562 906 394 c 0,12,13
 906 230 906 230 790 115 c 0,14,15
 675 0 675 0 512 0 c 2,16,-1
 131 0 l 2,17,18
 106 0 106 0 88 18 c 256,19,20
 70 36 70 36 70 61 c 2,21,-1
 70 67 l 2,22,23
 70 92 70 92 88 110 c 256,24,25
 106 128 106 128 131 128 c 2,26,-1
 522 128 l 2,27,28
 631 128 631 128 710 206 c 0,29,30
 788 284 788 284 788 394 c 0,31,32
 788 528 788 528 665 602 c 0,33,34
 615 632 615 632 411 696 c 0,35,36
 252 748 252 748 184 809 c 0,37,38
 86 897 86 897 86 1054 c 0,39,40
 86 1218 86 1218 201 1333 c 256,41,42
 316 1448 316 1448 480 1448 c 2,43,-1
 749 1448 l 2,44,45
 775 1448 775 1448 793 1430 c 0,46,47
 810 1413 810 1413 810 1387 c 2,48,-1
 810 1381 l 2,49,50
 810 1356 810 1356 793 1338 c 0,51,52
 775 1320 775 1320 749 1320 c 2,53,-1
 470 1320 l 2,0,1
EndSplineSet
Substitution2: "'nalt' Alternate Annotation Forms in Latin lookup 3 subtable" uni24C8
EndChar

StartChar: T
Encoding: 84 84 55
Width: 934
Flags: W
LayerCount: 2
Fore
SplineSet
894 1379 m 2,0,1
 894 1353 894 1353 876 1335 c 0,2,3
 859 1318 859 1318 833 1318 c 2,4,-1
 529 1318 l 1,5,-1
 529 61 l 2,6,7
 529 35 529 35 512 18 c 0,8,9
 494 0 494 0 468 0 c 2,10,-1
 466 0 l 2,11,12
 440 0 440 0 422 18 c 0,13,14
 405 35 405 35 405 61 c 2,15,-1
 405 1318 l 1,16,-1
 101 1318 l 2,17,18
 76 1318 76 1318 58 1335 c 0,19,20
 40 1353 40 1353 40 1379 c 2,21,-1
 40 1381 l 2,22,23
 40 1407 40 1407 58 1425 c 0,24,25
 76 1442 76 1442 101 1442 c 2,26,-1
 833 1442 l 2,27,28
 859 1442 859 1442 876 1425 c 0,29,30
 894 1407 894 1407 894 1381 c 2,31,-1
 894 1379 l 2,0,1
EndSplineSet
Substitution2: "'nalt' Alternate Annotation Forms in Latin lookup 3 subtable" uni24C9
EndChar

StartChar: U
Encoding: 85 85 56
Width: 1135
Flags: W
LayerCount: 2
Fore
SplineSet
1025 457 m 2,0,1
 1025 267 1025 267 891 134 c 0,2,3
 757 0 757 0 567 0 c 0,4,5
 378 0 378 0 244 134 c 0,6,7
 110 267 110 267 110 457 c 2,8,-1
 110 1381 l 2,9,10
 110 1407 110 1407 128 1425 c 0,11,12
 146 1442 146 1442 171 1442 c 2,13,-1
 174 1442 l 2,14,15
 199 1442 199 1442 217 1425 c 0,16,17
 235 1407 235 1407 235 1381 c 2,18,-1
 235 457 l 2,19,20
 235 320 235 320 332 222 c 0,21,22
 430 125 430 125 567 125 c 0,23,24
 705 125 705 125 803 222 c 0,25,26
 900 320 900 320 900 457 c 2,27,-1
 900 1381 l 2,28,29
 900 1407 900 1407 918 1425 c 0,30,31
 936 1442 936 1442 961 1442 c 2,32,-1
 964 1442 l 2,33,34
 989 1442 989 1442 1007 1425 c 0,35,36
 1025 1407 1025 1407 1025 1381 c 2,37,-1
 1025 457 l 2,0,1
EndSplineSet
Substitution2: "'nalt' Alternate Annotation Forms in Latin lookup 3 subtable" uni24CA
EndChar

StartChar: V
Encoding: 86 86 57
Width: 1096
Flags: W
LayerCount: 2
Fore
SplineSet
548 1 m 0,0,1
 488 0 488 0 463 62 c 1,2,-1
 54 1361 l 2,3,4
 43 1391 43 1391 61 1416 c 0,5,6
 80 1442 80 1442 112 1442 c 2,7,-1
 119 1442 l 2,8,9
 163 1442 163 1442 176 1402 c 2,10,-1
 540 199 l 1,11,-1
 548 164 l 1,12,-1
 556 199 l 1,13,-1
 920 1402 l 2,14,15
 933 1442 933 1442 977 1442 c 2,16,-1
 984 1442 l 2,17,18
 1016 1442 1016 1442 1034 1416 c 0,19,20
 1052 1391 1052 1391 1042 1361 c 2,21,-1
 632 62 l 1,22,23
 608 0 608 0 548 1 c 0,0,1
EndSplineSet
Substitution2: "'nalt' Alternate Annotation Forms in Latin lookup 3 subtable" uni24CB
EndChar

StartChar: W
Encoding: 87 87 58
Width: 1779
Flags: W
LayerCount: 2
Fore
SplineSet
235 421 m 2,0,1
 235 299 235 299 322 212 c 256,2,3
 409 125 409 125 531 125 c 256,4,5
 653 125 653 125 740 212 c 256,6,7
 827 299 827 299 827 421 c 2,8,-1
 827 1381 l 2,9,10
 827 1407 827 1407 845 1425 c 0,11,12
 863 1442 863 1442 889 1442 c 2,13,-1
 891 1442 l 2,14,15
 917 1442 917 1442 934 1425 c 0,16,17
 952 1407 952 1407 952 1381 c 2,18,-1
 952 421 l 2,19,20
 952 299 952 299 1039 212 c 256,21,22
 1126 125 1126 125 1248 125 c 0,23,24
 1371 125 1371 125 1458 212 c 256,25,26
 1545 299 1545 299 1545 421 c 2,27,-1
 1545 1381 l 2,28,29
 1545 1407 1545 1407 1563 1425 c 0,30,31
 1580 1442 1580 1442 1606 1442 c 2,32,-1
 1608 1442 l 2,33,34
 1634 1442 1634 1442 1652 1425 c 0,35,36
 1669 1407 1669 1407 1669 1381 c 2,37,-1
 1669 421 l 2,38,39
 1669 246 1669 246 1546 123 c 256,40,41
 1423 0 1423 0 1248 0 c 0,42,43
 1040 0 1040 0 890 196 c 1,44,45
 739 0 739 0 531 0 c 0,46,47
 356 0 356 0 233 123 c 256,48,49
 110 246 110 246 110 421 c 2,50,-1
 110 1381 l 2,51,52
 110 1407 110 1407 128 1425 c 0,53,54
 146 1442 146 1442 171 1442 c 2,55,-1
 174 1442 l 2,56,57
 199 1442 199 1442 217 1425 c 0,58,59
 235 1407 235 1407 235 1381 c 2,60,-1
 235 421 l 2,0,1
EndSplineSet
Substitution2: "'nalt' Alternate Annotation Forms in Latin lookup 3 subtable" uni24CC
EndChar

StartChar: X
Encoding: 88 88 59
Width: 1115
Flags: W
LayerCount: 2
Fore
SplineSet
1015 61 m 2,0,1
 1015 36 1015 36 997 18 c 256,2,3
 979 0 979 0 954 0 c 2,4,-1
 951 0 l 2,5,6
 926 0 926 0 908 18 c 256,7,8
 890 36 890 36 890 61 c 2,9,-1
 890 364 l 2,10,11
 890 501 890 501 793 599 c 0,12,13
 695 697 695 697 557 697 c 0,14,15
 420 697 420 697 322 599 c 0,16,17
 225 501 225 501 225 364 c 2,18,-1
 225 61 l 2,19,20
 225 36 225 36 207 18 c 256,21,22
 189 0 189 0 164 0 c 2,23,-1
 161 0 l 2,24,25
 136 0 136 0 118 18 c 256,26,27
 100 36 100 36 100 61 c 2,28,-1
 100 364 l 2,29,30
 100 598 100 598 323 759 c 1,31,32
 100 920 100 920 100 1154 c 2,33,-1
 100 1381 l 2,34,35
 100 1407 100 1407 118 1425 c 0,36,37
 136 1442 136 1442 161 1442 c 2,38,-1
 164 1442 l 2,39,40
 189 1442 189 1442 207 1425 c 0,41,42
 225 1407 225 1407 225 1381 c 2,43,-1
 225 1154 l 2,44,45
 225 1017 225 1017 322 919 c 0,46,47
 420 821 420 821 557 821 c 0,48,49
 695 821 695 821 793 919 c 0,50,51
 890 1017 890 1017 890 1154 c 2,52,-1
 890 1381 l 2,53,54
 890 1407 890 1407 908 1425 c 0,55,56
 926 1442 926 1442 951 1442 c 2,57,-1
 954 1442 l 2,58,59
 979 1442 979 1442 997 1425 c 0,60,61
 1015 1407 1015 1407 1015 1381 c 2,62,-1
 1015 1154 l 2,63,64
 1015 920 1015 920 792 759 c 1,65,66
 1015 598 1015 598 1015 364 c 2,67,-1
 1015 61 l 2,0,1
EndSplineSet
Substitution2: "'nalt' Alternate Annotation Forms in Latin lookup 3 subtable" uni24CD
EndChar

StartChar: Y
Encoding: 89 89 60
Width: 1115
Flags: W
LayerCount: 2
Fore
SplineSet
1015 937 m 2,0,1
 1015 771 1015 771 909 643 c 0,2,3
 804 518 804 518 620 483 c 1,4,-1
 620 61 l 2,5,6
 620 36 620 36 602 18 c 256,7,8
 584 0 584 0 559 0 c 2,9,-1
 556 0 l 2,10,11
 531 0 531 0 513 18 c 256,12,13
 495 36 495 36 495 61 c 2,14,-1
 495 483 l 1,15,16
 311 518 311 518 206 643 c 0,17,18
 100 771 100 771 100 937 c 2,19,-1
 100 1381 l 2,20,21
 100 1407 100 1407 118 1425 c 0,22,23
 136 1442 136 1442 161 1442 c 2,24,-1
 164 1442 l 2,25,26
 189 1442 189 1442 207 1425 c 0,27,28
 225 1407 225 1407 225 1381 c 2,29,-1
 225 937 l 2,30,31
 225 799 225 799 322 701 c 0,32,33
 420 604 420 604 557 604 c 0,34,35
 695 604 695 604 793 701 c 0,36,37
 890 799 890 799 890 937 c 2,38,-1
 890 1381 l 2,39,40
 890 1407 890 1407 908 1425 c 0,41,42
 926 1442 926 1442 951 1442 c 2,43,-1
 954 1442 l 2,44,45
 979 1442 979 1442 997 1425 c 0,46,47
 1015 1407 1015 1407 1015 1381 c 2,48,-1
 1015 937 l 2,0,1
EndSplineSet
Substitution2: "'nalt' Alternate Annotation Forms in Latin lookup 3 subtable" uni24CE
EndChar

StartChar: Z
Encoding: 90 90 61
Width: 973
Flags: W
LayerCount: 2
Fore
SplineSet
84 1381 m 2,0,1
 84 1407 84 1407 101 1425 c 0,2,3
 119 1442 119 1442 145 1442 c 2,4,-1
 764 1442 l 2,5,6
 826 1441 826 1441 871 1396 c 0,7,8
 915 1351 915 1351 915 1288 c 0,9,10
 915 1241 915 1241 890 1203 c 2,11,-1
 139 125 l 1,12,-1
 872 125 l 2,13,14
 897 125 897 125 915 107 c 256,15,16
 933 89 933 89 933 63 c 2,17,-1
 933 61 l 2,18,19
 933 36 933 36 915 18 c 256,20,21
 897 0 897 0 872 0 c 2,22,-1
 177 0 l 1,23,24
 120 6 120 6 80 50 c 0,25,26
 40 95 40 95 40 155 c 0,27,28
 40 194 40 194 59 228 c 2,29,-1
 818 1318 l 1,30,-1
 145 1318 l 2,31,32
 119 1318 119 1318 101 1335 c 0,33,34
 84 1353 84 1353 84 1379 c 2,35,-1
 84 1381 l 2,0,1
EndSplineSet
Substitution2: "'nalt' Alternate Annotation Forms in Latin lookup 3 subtable" uni24CF
EndChar

StartChar: bracketleft
Encoding: 91 91 62
Width: 591
Flags: W
LayerCount: 2
Fore
SplineSet
100 1442 m 1,0,-1
 491 1442 l 1,1,-1
 491 1341 l 1,2,-1
 225 1341 l 1,3,-1
 225 -309 l 1,4,-1
 491 -309 l 1,5,-1
 491 -411 l 1,6,-1
 100 -411 l 1,7,-1
 100 1442 l 1,0,-1
EndSplineSet
EndChar

StartChar: backslash
Encoding: 92 92 63
Width: 575
Flags: W
LayerCount: 2
Fore
SplineSet
128 1442 m 1,0,-1
 555 0 l 1,1,-1
 446 0 l 1,2,-1
 20 1442 l 1,3,-1
 128 1442 l 1,0,-1
EndSplineSet
EndChar

StartChar: bracketright
Encoding: 93 93 64
Width: 591
Flags: W
LayerCount: 2
Fore
SplineSet
491 -411 m 1,0,-1
 100 -411 l 1,1,-1
 100 -309 l 1,2,-1
 366 -309 l 1,3,-1
 366 1341 l 1,4,-1
 100 1341 l 1,5,-1
 100 1442 l 1,6,-1
 491 1442 l 1,7,-1
 491 -411 l 1,0,-1
EndSplineSet
EndChar

StartChar: asciicircum
Encoding: 94 94 65
Width: 899
Flags: W
LayerCount: 2
Fore
SplineSet
496 1442 m 2,0,1
 516 1442 516 1442 524 1423 c 2,2,-1
 794 856 l 2,3,4
 799 843 799 843 790 831 c 0,5,6
 782 818 782 818 767 818 c 2,7,-1
 695 818 l 2,8,9
 676 818 676 818 669 837 c 2,10,-1
 449 1317 l 1,11,-1
 229 837 l 2,12,13
 222 818 222 818 203 818 c 2,14,-1
 131 818 l 2,15,16
 116 818 116 818 108 831 c 0,17,18
 100 843 100 843 105 856 c 2,19,-1
 376 1423 l 2,20,21
 383 1442 383 1442 402 1442 c 2,22,-1
 496 1442 l 2,0,1
EndSplineSet
EndChar

StartChar: underscore
Encoding: 95 95 66
Width: 887
Flags: W
LayerCount: 2
Fore
SplineSet
-10 -185 m 1,0,-1
 -10 -60 l 1,1,-1
 897 -60 l 1,2,-1
 897 -185 l 1,3,-1
 -10 -185 l 1,0,-1
EndSplineSet
EndChar

StartChar: grave
Encoding: 96 96 67
Width: 561
Flags: W
LayerCount: 2
Fore
SplineSet
16 1402 m 1,0,1
 14 1412 14 1412 26 1413 c 2,2,-1
 200 1413 l 2,3,4
 204 1413 204 1413 205 1411 c 2,5,-1
 381 1160 l 2,6,7
 385 1154 385 1154 383 1150 c 256,8,9
 381 1146 381 1146 376 1146 c 2,10,-1
 285 1146 l 2,11,12
 276 1146 276 1146 269 1153 c 2,13,-1
 16 1402 l 1,0,1
EndSplineSet
EndChar

StartChar: a
Encoding: 97 97 68
Width: 1232
Flags: W
LayerCount: 2
Fore
SplineSet
981 881 m 256,1,2
 1132 730 1132 730 1132 516 c 2,3,-1
 1132 61 l 2,4,5
 1132 36 1132 36 1114 18 c 256,6,7
 1096 0 1096 0 1071 0 c 2,8,-1
 1068 0 l 2,9,10
 1043 0 1043 0 1025 18 c 256,11,12
 1007 36 1007 36 1007 61 c 2,13,-1
 1007 174 l 1,14,15
 811 0 811 0 616 0 c 0,16,17
 402 0 402 0 251 151 c 256,18,19
 100 302 100 302 100 516 c 256,20,21
 100 730 100 730 251 881 c 256,22,23
 402 1032 402 1032 616 1032 c 256,24,0
 830 1032 830 1032 981 881 c 256,1,2
339 792 m 0,26,27
 225 677 225 677 225 516 c 0,28,29
 225 354 225 354 339 239 c 0,30,31
 454 125 454 125 616 125 c 256,32,33
 778 125 778 125 892 239 c 0,34,35
 1007 354 1007 354 1007 516 c 0,36,37
 1007 677 1007 677 892 792 c 0,38,39
 779 907 779 907 616 907 c 0,40,25
 454 907 454 907 339 792 c 0,26,27
EndSplineSet
EndChar

StartChar: b
Encoding: 98 98 69
Width: 1202
Flags: W
LayerCount: 2
Fore
SplineSet
616 905 m 0,0,1
 454 905 454 905 339 790 c 0,2,3
 225 675 225 675 225 513 c 0,4,5
 225 352 225 352 339 237 c 0,6,7
 454 122 454 122 616 122 c 0,8,9
 779 122 779 122 892 237 c 0,10,11
 1007 352 1007 352 1007 513 c 0,12,13
 1007 675 1007 675 892 790 c 0,14,15
 779 905 779 905 616 905 c 0,0,1
164 1442 m 2,16,17
 189 1442 189 1442 207 1425 c 0,18,19
 225 1407 225 1407 225 1381 c 2,20,-1
 225 858 l 1,21,22
 420 1032 420 1032 616 1032 c 0,23,24
 830 1032 830 1032 981 881 c 256,25,26
 1132 730 1132 730 1132 516 c 256,27,28
 1132 302 1132 302 981 151 c 256,29,30
 830 0 830 0 616 0 c 256,31,32
 402 0 402 0 252 150 c 0,33,34
 101 301 101 301 100 513 c 2,35,-1
 100 1381 l 2,36,37
 100 1407 100 1407 118 1425 c 0,38,39
 136 1442 136 1442 161 1442 c 2,40,-1
 164 1442 l 2,16,17
EndSplineSet
EndChar

StartChar: c
Encoding: 99 99 70
Width: 855
Flags: W
LayerCount: 2
Fore
SplineSet
742 1007 m 0,1,2
 785 994 785 994 785 949 c 2,3,-1
 785 944 l 2,4,5
 785 913 785 913 760 895 c 0,6,7
 735 876 735 876 705 885 c 0,8,9
 648 905 648 905 586 905 c 0,10,11
 424 905 424 905 309 790 c 0,12,13
 195 675 195 675 195 513 c 0,14,15
 195 352 195 352 309 237 c 0,16,17
 424 122 424 122 586 122 c 0,18,19
 648 122 648 122 705 140 c 0,20,21
 735 150 735 150 760 132 c 256,22,23
 785 114 785 114 785 82 c 0,24,25
 785 38 785 38 742 24 c 0,26,27
 666 0 666 0 586 0 c 0,28,29
 372 0 372 0 221 151 c 256,30,31
 70 302 70 302 70 516 c 256,32,33
 70 730 70 730 221 881 c 256,34,35
 372 1032 372 1032 586 1032 c 0,36,0
 666 1032 666 1032 742 1007 c 0,1,2
EndSplineSet
EndChar

StartChar: d
Encoding: 100 100 71
Width: 1202
Flags: W
LayerCount: 2
Fore
SplineSet
309 790 m 0,1,2
 195 675 195 675 195 513 c 0,3,4
 195 352 195 352 309 237 c 0,5,6
 424 122 424 122 586 122 c 0,7,8
 749 122 749 122 862 237 c 0,9,10
 977 352 977 352 977 513 c 0,11,12
 977 675 977 675 862 790 c 0,13,14
 749 905 749 905 586 905 c 0,15,0
 424 905 424 905 309 790 c 0,1,2
1041 1442 m 2,16,17
 1066 1442 1066 1442 1084 1425 c 0,18,19
 1102 1407 1102 1407 1102 1381 c 2,20,-1
 1102 513 l 2,21,22
 1101 301 1101 301 950 150 c 0,23,24
 799 0 799 0 586 0 c 0,25,26
 372 0 372 0 221 151 c 256,27,28
 70 302 70 302 70 516 c 256,29,30
 70 730 70 730 221 881 c 256,31,32
 372 1032 372 1032 586 1032 c 0,33,34
 781 1032 781 1032 977 858 c 1,35,-1
 977 1381 l 2,36,37
 977 1407 977 1407 995 1425 c 0,38,39
 1013 1442 1013 1442 1038 1442 c 2,40,-1
 1041 1442 l 2,16,17
EndSplineSet
EndChar

StartChar: e
Encoding: 101 101 72
Width: 1157
Flags: W
LayerCount: 2
Fore
SplineSet
586 905 m 0,0,1
 424 905 424 905 309 790 c 0,2,3
 195 675 195 675 195 513 c 0,4,5
 195 484 195 484 205 416 c 1,6,-1
 910 735 l 1,7,8
 768 905 768 905 586 905 c 0,0,1
1055 730 m 0,9,10
 1066 707 1066 707 1057 683 c 0,11,12
 1048 660 1048 660 1025 649 c 0,13,14
 885 586 885 586 657 483 c 0,15,16
 374 355 374 355 255 302 c 1,17,18
 395 122 395 122 586 122 c 0,19,20
 713 122 713 122 816 197 c 0,21,22
 915 269 915 269 955 385 c 0,23,24
 970 427 970 427 1015 427 c 0,25,26
 1047 427 1047 427 1066 401 c 0,27,28
 1084 375 1084 375 1073 345 c 0,29,30
 1020 192 1020 192 888 97 c 0,31,32
 752 0 752 0 586 0 c 0,33,34
 372 0 372 0 221 151 c 256,35,36
 70 302 70 302 70 516 c 256,37,38
 70 730 70 730 221 881 c 256,39,40
 372 1032 372 1032 586 1032 c 0,41,42
 740 1032 740 1032 868 948 c 0,43,44
 993 866 993 866 1055 730 c 0,9,10
EndSplineSet
EndChar

StartChar: f
Encoding: 102 102 73
Width: 639
Flags: W
LayerCount: 2
Fore
SplineSet
538 1442 m 2,0,1
 564 1442 564 1442 582 1425 c 0,2,3
 599 1407 599 1407 599 1381 c 2,4,-1
 599 1379 l 2,5,6
 599 1353 599 1353 582 1335 c 0,7,8
 564 1318 564 1318 538 1318 c 2,9,-1
 481 1318 l 2,10,11
 375 1318 375 1318 300 1243 c 0,12,13
 226 1168 226 1168 225 1062 c 2,14,-1
 225 1031 l 1,15,-1
 538 1031 l 2,16,17
 564 1031 564 1031 582 1013 c 0,18,19
 599 996 599 996 599 970 c 2,20,-1
 599 968 l 2,21,22
 599 942 599 942 582 924 c 0,23,24
 564 906 564 906 538 906 c 2,25,-1
 225 906 l 1,26,-1
 225 61 l 2,27,28
 225 36 225 36 207 18 c 256,29,30
 189 0 189 0 164 0 c 2,31,-1
 161 0 l 2,32,33
 136 0 136 0 118 18 c 256,34,35
 100 36 100 36 100 61 c 2,36,-1
 100 1062 l 2,37,38
 102 1221 102 1221 211 1331 c 0,39,40
 322 1442 322 1442 481 1442 c 2,41,-1
 538 1442 l 2,0,1
EndSplineSet
EndChar

StartChar: g
Encoding: 103 103 74
Width: 1202
Flags: W
LayerCount: 2
Fore
SplineSet
586 -286 m 0,1,2
 735 -286 735 -286 854 -172 c 0,3,4
 977 -54 977 -54 977 105 c 2,5,-1
 977 174 l 1,6,7
 781 0 781 0 586 0 c 0,8,9
 372 0 372 0 221 151 c 256,10,11
 70 302 70 302 70 516 c 256,12,13
 70 730 70 730 221 881 c 256,14,15
 372 1032 372 1032 586 1032 c 0,16,17
 799 1032 799 1032 950 882 c 0,18,19
 1101 731 1101 731 1102 518 c 2,20,-1
 1102 105 l 2,21,22
 1102 -103 1102 -103 939 -259 c 0,23,24
 782 -411 782 -411 586 -411 c 0,25,26
 281 -411 281 -411 131 -177 c 0,27,28
 115 -152 115 -152 124 -123 c 0,29,30
 134 -95 134 -95 162 -85 c 2,31,-1
 165 -84 l 2,32,33
 210 -69 210 -69 237 -109 c 0,34,0
 354 -286 354 -286 586 -286 c 0,1,2
977 522 m 2,35,36
 975 683 975 683 860 794 c 0,37,38
 746 907 746 907 586 907 c 0,39,40
 424 907 424 907 309 792 c 0,41,42
 195 677 195 677 195 516 c 0,43,44
 195 354 195 354 309 239 c 0,45,46
 424 125 424 125 586 125 c 256,47,48
 748 125 748 125 862 239 c 0,49,50
 977 354 977 354 977 516 c 2,51,-1
 977 522 l 2,35,36
EndSplineSet
EndChar

StartChar: h
Encoding: 104 104 75
Width: 1047
Flags: W
LayerCount: 2
Fore
SplineSet
164 1442 m 2,0,1
 189 1442 189 1442 207 1425 c 0,2,3
 225 1407 225 1407 225 1381 c 2,4,-1
 225 913 l 1,5,6
 384 1032 384 1032 524 1032 c 0,7,8
 699 1032 699 1032 823 908 c 256,9,10
 947 784 947 784 947 608 c 2,11,-1
 947 61 l 2,12,13
 947 36 947 36 929 18 c 256,14,15
 911 0 911 0 886 0 c 2,16,-1
 884 0 l 2,17,18
 858 0 858 0 840 18 c 256,19,20
 822 36 822 36 822 61 c 2,21,-1
 822 608 l 2,22,23
 822 731 822 731 735 819 c 0,24,25
 647 907 647 907 524 907 c 0,26,27
 400 907 400 907 312 819 c 0,28,29
 225 731 225 731 225 608 c 2,30,-1
 225 61 l 2,31,32
 225 36 225 36 207 18 c 256,33,34
 189 0 189 0 164 0 c 2,35,-1
 161 0 l 2,36,37
 136 0 136 0 118 18 c 256,38,39
 100 36 100 36 100 61 c 2,40,-1
 100 1381 l 2,41,42
 100 1407 100 1407 118 1425 c 0,43,44
 136 1442 136 1442 161 1442 c 2,45,-1
 164 1442 l 2,0,1
EndSplineSet
EndChar

StartChar: i
Encoding: 105 105 76
Width: 400
Flags: W
LayerCount: 2
Fore
SplineSet
201 1032 m 2,0,1
 226 1032 226 1032 244 1014 c 256,2,3
 262 996 262 996 262 970 c 2,4,-1
 262 61 l 2,5,6
 262 36 262 36 244 18 c 256,7,8
 226 0 226 0 201 0 c 2,9,-1
 199 0 l 2,10,11
 173 0 173 0 155 18 c 256,12,13
 137 36 137 36 137 61 c 2,14,-1
 137 970 l 2,15,16
 137 996 137 996 155 1014 c 256,17,18
 173 1032 173 1032 199 1032 c 2,19,-1
 201 1032 l 2,0,1
200 1282 m 0,20,21
 166 1282 166 1282 143 1305 c 256,22,23
 120 1328 120 1328 120 1362 c 0,24,25
 120 1395 120 1395 143 1418 c 256,26,27
 166 1441 166 1441 200 1441 c 0,28,29
 233 1441 233 1441 256 1418 c 0,30,31
 280 1394 280 1394 280 1362 c 0,32,33
 280 1329 280 1329 256 1305 c 0,34,35
 233 1282 233 1282 200 1282 c 0,20,21
EndSplineSet
EndChar

StartChar: j
Encoding: 106 106 77
Width: 409
Flags: W
LayerCount: 2
Fore
SplineSet
-149 -411 m 2,0,1
 -174 -411 -174 -411 -192 -393 c 256,2,3
 -210 -375 -210 -375 -210 -350 c 2,4,-1
 -210 -347 l 2,5,6
 -210 -322 -210 -322 -192 -304 c 256,7,8
 -174 -286 -174 -286 -149 -286 c 2,9,-1
 -91 -286 l 2,10,11
 16 -286 16 -286 89 -211 c 0,12,13
 164 -138 164 -138 165 -30 c 2,14,-1
 165 970 l 2,15,16
 165 996 165 996 182 1014 c 0,17,18
 200 1032 200 1032 226 1032 c 2,19,-1
 228 1032 l 2,20,21
 254 1032 254 1032 272 1014 c 0,22,23
 289 996 289 996 289 970 c 2,24,-1
 289 -30 l 2,25,26
 287 -190 287 -190 178 -300 c 0,27,28
 68 -411 68 -411 -91 -411 c 2,29,-1
 -149 -411 l 2,0,1
226 1284 m 0,30,31
 192 1284 192 1284 169 1307 c 256,32,33
 146 1330 146 1330 146 1364 c 0,34,35
 146 1397 146 1397 169 1420 c 256,36,37
 192 1443 192 1443 226 1443 c 0,38,39
 259 1443 259 1443 282 1420 c 0,40,41
 306 1396 306 1396 306 1364 c 0,42,43
 306 1331 306 1331 282 1307 c 0,44,45
 259 1284 259 1284 226 1284 c 0,30,31
EndSplineSet
EndChar

StartChar: k
Encoding: 107 107 78
Width: 953
Flags: W
LayerCount: 2
Fore
SplineSet
164 1442 m 2,0,1
 189 1442 189 1442 207 1425 c 0,2,3
 225 1407 225 1407 225 1381 c 2,4,-1
 225 628 l 1,5,-1
 323 628 l 2,6,7
 473 628 473 628 586 729 c 0,8,9
 697 830 697 830 712 977 c 0,10,11
 714 1000 714 1000 732 1016 c 256,12,13
 750 1032 750 1032 773 1032 c 2,14,-1
 776 1032 l 2,15,16
 803 1032 803 1032 821 1012 c 256,17,18
 839 992 839 992 836 964 c 0,19,20
 814 739 814 739 596 576 c 1,21,22
 748 484 748 484 814 369 c 0,23,24
 883 250 883 250 883 112 c 2,25,-1
 883 61 l 2,26,27
 883 36 883 36 865 18 c 256,28,29
 847 0 847 0 822 0 c 2,30,-1
 819 0 l 2,31,32
 794 0 794 0 776 18 c 256,33,34
 758 36 758 36 758 61 c 2,35,-1
 758 112 l 2,36,37
 757 274 757 274 643 387 c 0,38,39
 528 501 528 501 367 501 c 2,40,-1
 225 501 l 1,41,-1
 225 61 l 2,42,43
 225 36 225 36 207 18 c 256,44,45
 189 0 189 0 164 0 c 2,46,-1
 161 0 l 2,47,48
 136 0 136 0 118 18 c 256,49,50
 100 36 100 36 100 61 c 2,51,-1
 100 1381 l 2,52,53
 100 1407 100 1407 118 1425 c 0,54,55
 136 1442 136 1442 161 1442 c 2,56,-1
 164 1442 l 2,0,1
EndSplineSet
EndChar

StartChar: l
Encoding: 108 108 79
Width: 405
Flags: W
LayerCount: 2
Fore
SplineSet
204 1442 m 2,0,1
 229 1442 229 1442 247 1425 c 0,2,3
 265 1407 265 1407 265 1381 c 2,4,-1
 265 61 l 2,5,6
 265 36 265 36 247 18 c 256,7,8
 229 0 229 0 204 0 c 2,9,-1
 201 0 l 2,10,11
 176 0 176 0 158 18 c 256,12,13
 140 36 140 36 140 61 c 2,14,-1
 140 1381 l 2,15,16
 140 1407 140 1407 158 1425 c 0,17,18
 176 1442 176 1442 201 1442 c 2,19,-1
 204 1442 l 2,0,1
EndSplineSet
EndChar

StartChar: l_alt
Encoding: 65538 -1 80
Width: 547
Flags: W
LayerCount: 2
Fore
SplineSet
204 1442 m 2,0,1
 229 1442 229 1442 247 1425 c 0,2,3
 265 1407 265 1407 265 1381 c 2,4,-1
 265 254 l 2,5,6
 265 201 265 201 303 163 c 256,7,8
 341 125 341 125 395 125 c 2,9,-1
 475 125 l 2,10,11
 500 125 500 125 518 107 c 256,12,13
 536 89 536 89 536 63 c 2,14,-1
 536 61 l 2,15,16
 536 36 536 36 518 18 c 256,17,18
 500 0 500 0 475 0 c 2,19,-1
 395 0 l 2,20,21
 289 0 289 0 214 74 c 0,22,23
 140 149 140 149 140 254 c 2,24,-1
 140 1381 l 2,25,26
 140 1407 140 1407 158 1425 c 0,27,28
 176 1442 176 1442 201 1442 c 2,29,-1
 204 1442 l 2,0,1
EndSplineSet
EndChar

StartChar: m
Encoding: 109 109 81
Width: 1759
Flags: W
LayerCount: 2
Fore
SplineSet
225 61 m 2,0,1
 225 36 225 36 207 18 c 256,2,3
 189 0 189 0 164 0 c 2,4,-1
 161 0 l 2,5,6
 136 0 136 0 118 18 c 256,7,8
 100 36 100 36 100 61 c 2,9,-1
 100 611 l 2,10,11
 100 785 100 785 223 909 c 0,12,13
 346 1032 346 1032 521 1032 c 0,14,15
 729 1032 729 1032 880 834 c 1,16,17
 1030 1032 1030 1032 1238 1032 c 0,18,19
 1413 1032 1413 1032 1536 909 c 0,20,21
 1659 785 1659 785 1659 611 c 2,22,-1
 1659 61 l 2,23,24
 1659 35 1659 35 1642 18 c 0,25,26
 1624 0 1624 0 1598 0 c 2,27,-1
 1596 0 l 2,28,29
 1571 0 1571 0 1553 18 c 256,30,31
 1535 36 1535 36 1535 61 c 2,32,-1
 1535 611 l 2,33,34
 1535 733 1535 733 1448 820 c 256,35,36
 1361 907 1361 907 1238 907 c 0,37,38
 1116 907 1116 907 1029 820 c 256,39,40
 942 733 942 733 942 611 c 2,41,-1
 942 61 l 2,42,43
 942 36 942 36 924 18 c 256,44,45
 906 0 906 0 881 0 c 2,46,-1
 879 0 l 2,47,48
 853 0 853 0 835 18 c 256,49,50
 817 36 817 36 817 61 c 2,51,-1
 817 611 l 2,52,53
 817 733 817 733 730 820 c 256,54,55
 643 907 643 907 521 907 c 256,56,57
 399 907 399 907 312 820 c 256,58,59
 225 733 225 733 225 611 c 2,60,-1
 225 61 l 2,0,1
EndSplineSet
EndChar

StartChar: n
Encoding: 110 110 82
Width: 1047
Flags: W
LayerCount: 2
Fore
SplineSet
225 61 m 2,0,1
 225 36 225 36 207 18 c 256,2,3
 189 0 189 0 164 0 c 2,4,-1
 161 0 l 2,5,6
 136 0 136 0 118 18 c 256,7,8
 100 36 100 36 100 61 c 2,9,-1
 100 608 l 2,10,11
 100 784 100 784 224 908 c 256,12,13
 348 1032 348 1032 524 1032 c 0,14,15
 699 1032 699 1032 823 908 c 256,16,17
 947 784 947 784 947 608 c 2,18,-1
 947 61 l 2,19,20
 947 36 947 36 929 18 c 256,21,22
 911 0 911 0 886 0 c 2,23,-1
 884 0 l 2,24,25
 858 0 858 0 840 18 c 256,26,27
 822 36 822 36 822 61 c 2,28,-1
 822 608 l 2,29,30
 822 731 822 731 735 819 c 0,31,32
 647 907 647 907 524 907 c 0,33,34
 400 907 400 907 312 819 c 0,35,36
 225 731 225 731 225 608 c 2,37,-1
 225 61 l 2,0,1
EndSplineSet
EndChar

StartChar: o
Encoding: 111 111 83
Width: 1172
Flags: W
LayerCount: 2
Fore
SplineSet
586 905 m 0,0,1
 424 905 424 905 309 790 c 0,2,3
 195 675 195 675 195 513 c 0,4,5
 195 352 195 352 309 237 c 0,6,7
 424 122 424 122 586 122 c 0,8,9
 749 122 749 122 862 237 c 0,10,11
 977 352 977 352 977 513 c 0,12,13
 977 675 977 675 862 790 c 0,14,15
 749 905 749 905 586 905 c 0,0,1
586 1032 m 256,16,17
 800 1032 800 1032 951 881 c 256,18,19
 1102 730 1102 730 1102 516 c 256,20,21
 1102 302 1102 302 951 151 c 256,22,23
 800 0 800 0 586 0 c 256,24,25
 372 0 372 0 221 151 c 256,26,27
 70 302 70 302 70 516 c 256,28,29
 70 730 70 730 221 881 c 256,30,31
 372 1032 372 1032 586 1032 c 256,16,17
EndSplineSet
EndChar

StartChar: p
Encoding: 112 112 84
Width: 1202
Flags: W
LayerCount: 2
Fore
SplineSet
892 242 m 0,1,2
 1007 357 1007 357 1007 518 c 0,3,4
 1007 680 1007 680 892 795 c 0,5,6
 778 909 778 909 616 909 c 256,7,8
 454 909 454 909 339 795 c 0,9,10
 225 680 225 680 225 518 c 0,11,12
 225 357 225 357 339 242 c 0,13,14
 454 127 454 127 616 127 c 0,15,0
 779 127 779 127 892 242 c 0,1,2
161 -411 m 2,16,17
 136 -411 136 -411 118 -393 c 256,18,19
 100 -375 100 -375 100 -350 c 2,20,-1
 100 518 l 2,21,22
 101 731 101 731 252 882 c 0,23,24
 402 1032 402 1032 616 1032 c 256,25,26
 830 1032 830 1032 981 881 c 256,27,28
 1132 730 1132 730 1132 516 c 256,29,30
 1132 302 1132 302 981 151 c 256,31,32
 830 0 830 0 616 0 c 0,33,34
 420 0 420 0 225 174 c 1,35,-1
 225 -350 l 2,36,37
 225 -375 225 -375 207 -393 c 256,38,39
 189 -411 189 -411 164 -411 c 2,40,-1
 161 -411 l 2,16,17
EndSplineSet
EndChar

StartChar: q
Encoding: 113 113 85
Width: 1202
Flags: W
LayerCount: 2
Fore
SplineSet
586 127 m 0,0,1
 749 127 749 127 862 242 c 0,2,3
 977 357 977 357 977 518 c 0,4,5
 977 680 977 680 862 795 c 0,6,7
 748 909 748 909 586 909 c 256,8,9
 424 909 424 909 309 795 c 0,10,11
 195 680 195 680 195 518 c 0,12,13
 195 357 195 357 309 242 c 0,14,15
 424 127 424 127 586 127 c 0,0,1
1038 -411 m 2,16,17
 1013 -411 1013 -411 995 -393 c 256,18,19
 977 -375 977 -375 977 -350 c 2,20,-1
 977 174 l 1,21,22
 781 0 781 0 586 0 c 0,23,24
 372 0 372 0 221 151 c 256,25,26
 70 302 70 302 70 516 c 256,27,28
 70 730 70 730 221 881 c 256,29,30
 372 1032 372 1032 586 1032 c 0,31,32
 799 1032 799 1032 950 882 c 0,33,34
 1101 731 1101 731 1102 518 c 2,35,-1
 1102 -350 l 2,36,37
 1102 -375 1102 -375 1084 -393 c 256,38,39
 1066 -411 1066 -411 1041 -411 c 2,40,-1
 1038 -411 l 2,16,17
EndSplineSet
EndChar

StartChar: r
Encoding: 114 114 86
Width: 609
Flags: W
LayerCount: 2
Fore
SplineSet
538 1032 m 2,0,1
 564 1032 564 1032 582 1014 c 0,2,3
 599 996 599 996 599 970 c 2,4,-1
 599 968 l 2,5,6
 599 942 599 942 582 925 c 0,7,8
 564 907 564 907 538 907 c 2,9,-1
 481 907 l 2,10,11
 375 907 375 907 300 832 c 0,12,13
 226 757 226 757 225 651 c 2,14,-1
 225 61 l 2,15,16
 225 36 225 36 207 18 c 256,17,18
 189 0 189 0 164 0 c 2,19,-1
 161 0 l 2,20,21
 136 0 136 0 118 18 c 256,22,23
 100 36 100 36 100 61 c 2,24,-1
 100 651 l 2,25,26
 102 810 102 810 211 921 c 0,27,28
 322 1032 322 1032 481 1032 c 2,29,-1
 538 1032 l 2,0,1
EndSplineSet
EndChar

StartChar: s
Encoding: 115 115 87
Width: 731
Flags: W
LayerCount: 2
Fore
SplineSet
350 907 m 2,0,1
 282 907 282 907 234 859 c 0,2,3
 186 810 186 810 186 743 c 0,4,5
 186 647 186 647 276 599 c 0,6,7
 302 586 302 586 455 545 c 0,8,9
 560 515 560 515 606 470 c 0,10,11
 671 409 671 409 671 289 c 256,12,13
 671 169 671 169 587 84 c 0,14,15
 502 0 502 0 382 0 c 2,16,-1
 121 0 l 2,17,18
 96 0 96 0 78 18 c 256,19,20
 60 36 60 36 60 61 c 2,21,-1
 60 63 l 2,22,23
 60 89 60 89 78 107 c 256,24,25
 96 125 96 125 121 125 c 2,26,-1
 392 125 l 2,27,28
 460 125 460 125 508 173 c 256,29,30
 556 221 556 221 556 289 c 0,31,32
 556 382 556 382 465 426 c 0,33,34
 446 435 446 435 287 480 c 0,35,36
 184 511 184 511 136 556 c 0,37,38
 71 621 71 621 71 743 c 0,39,40
 71 863 71 863 155 947 c 0,41,42
 240 1032 240 1032 360 1032 c 2,43,-1
 544 1032 l 2,44,45
 570 1032 570 1032 588 1014 c 256,46,47
 606 996 606 996 606 970 c 2,48,-1
 606 968 l 2,49,50
 606 943 606 943 588 925 c 256,51,52
 570 907 570 907 544 907 c 2,53,-1
 350 907 l 2,0,1
EndSplineSet
Substitution2: "'hist' Historical Forms in Latin lookup 4 subtable" longs
EndChar

StartChar: t
Encoding: 116 116 88
Width: 536
Flags: W
LayerCount: 2
Fore
SplineSet
164 1442 m 2,0,1
 189 1442 189 1442 207 1425 c 0,2,3
 225 1407 225 1407 225 1381 c 2,4,-1
 225 1032 l 1,5,-1
 435 1032 l 2,6,7
 460 1032 460 1032 478 1014 c 256,8,9
 496 996 496 996 496 970 c 2,10,-1
 496 968 l 2,11,12
 496 943 496 943 478 925 c 256,13,14
 460 907 460 907 435 907 c 2,15,-1
 225 907 l 1,16,-1
 225 254 l 2,17,18
 225 201 225 201 263 163 c 256,19,20
 301 125 301 125 355 125 c 2,21,-1
 435 125 l 2,22,23
 460 125 460 125 478 107 c 256,24,25
 496 89 496 89 496 63 c 2,26,-1
 496 61 l 2,27,28
 496 36 496 36 478 18 c 256,29,30
 460 0 460 0 435 0 c 2,31,-1
 355 0 l 2,32,33
 249 0 249 0 174 74 c 0,34,35
 100 149 100 149 100 254 c 2,36,-1
 100 1381 l 2,37,38
 100 1407 100 1407 118 1425 c 0,39,40
 136 1442 136 1442 161 1442 c 2,41,-1
 164 1442 l 2,0,1
EndSplineSet
EndChar

StartChar: u
Encoding: 117 117 89
Width: 1047
Flags: W
LayerCount: 2
Fore
SplineSet
225 423 m 2,0,1
 225 300 225 300 312 212 c 0,2,3
 400 125 400 125 524 125 c 0,4,5
 647 125 647 125 735 212 c 0,6,7
 822 300 822 300 822 423 c 2,8,-1
 822 970 l 2,9,10
 822 996 822 996 840 1014 c 256,11,12
 858 1032 858 1032 884 1032 c 2,13,-1
 886 1032 l 2,14,15
 911 1032 911 1032 929 1014 c 256,16,17
 947 996 947 996 947 970 c 2,18,-1
 947 423 l 2,19,20
 947 248 947 248 823 124 c 256,21,22
 699 0 699 0 524 0 c 0,23,24
 348 0 348 0 224 124 c 256,25,26
 100 248 100 248 100 423 c 2,27,-1
 100 970 l 2,28,29
 100 996 100 996 118 1014 c 256,30,31
 136 1032 136 1032 161 1032 c 2,32,-1
 164 1032 l 2,33,34
 189 1032 189 1032 207 1014 c 256,35,36
 225 996 225 996 225 970 c 2,37,-1
 225 423 l 2,0,1
EndSplineSet
EndChar

StartChar: v
Encoding: 118 118 90
Width: 1018
Flags: W
LayerCount: 2
Fore
SplineSet
541 202 m 2,1,-1
 546 214 l 1,2,-1
 881 994 l 2,3,4
 897 1032 897 1032 937 1032 c 2,5,-1
 939 1032 l 2,6,7
 972 1032 972 1032 990 1005 c 0,8,9
 1008 977 1008 977 995 947 c 2,10,-1
 623 78 l 2,11,12
 589 0 589 0 509 0 c 256,13,14
 429 0 429 0 395 78 c 2,15,-1
 23 947 l 2,16,17
 10 977 10 977 28 1005 c 0,18,19
 46 1032 46 1032 79 1032 c 2,20,-1
 81 1032 l 2,21,22
 121 1032 121 1032 137 994 c 2,23,-1
 472 214 l 1,24,-1
 477 202 l 2,25,26
 494 161 494 161 509 161 c 128,-1,0
 524 161 524 161 541 202 c 2,1,-1
EndSplineSet
EndChar

StartChar: w
Encoding: 119 119 91
Width: 1759
Flags: W
LayerCount: 2
Fore
SplineSet
225 421 m 2,0,1
 225 299 225 299 312 212 c 256,2,3
 399 125 399 125 521 125 c 256,4,5
 643 125 643 125 730 212 c 256,6,7
 817 299 817 299 817 421 c 2,8,-1
 817 970 l 2,9,10
 817 996 817 996 835 1014 c 256,11,12
 853 1032 853 1032 879 1032 c 2,13,-1
 881 1032 l 2,14,15
 906 1032 906 1032 924 1014 c 256,16,17
 942 996 942 996 942 970 c 2,18,-1
 942 421 l 2,19,20
 942 299 942 299 1029 212 c 256,21,22
 1116 125 1116 125 1238 125 c 0,23,24
 1361 125 1361 125 1448 212 c 256,25,26
 1535 299 1535 299 1535 421 c 2,27,-1
 1535 970 l 2,28,29
 1535 996 1535 996 1553 1014 c 256,30,31
 1571 1032 1571 1032 1596 1032 c 2,32,-1
 1598 1032 l 2,33,34
 1624 1032 1624 1032 1642 1014 c 0,35,36
 1659 996 1659 996 1659 970 c 2,37,-1
 1659 421 l 2,38,39
 1659 246 1659 246 1536 123 c 256,40,41
 1413 0 1413 0 1238 0 c 0,42,43
 1030 0 1030 0 880 196 c 1,44,45
 729 0 729 0 521 0 c 0,46,47
 346 0 346 0 223 123 c 256,48,49
 100 246 100 246 100 421 c 2,50,-1
 100 970 l 2,51,52
 100 996 100 996 118 1014 c 256,53,54
 136 1032 136 1032 161 1032 c 2,55,-1
 164 1032 l 2,56,57
 189 1032 189 1032 207 1014 c 256,58,59
 225 996 225 996 225 970 c 2,60,-1
 225 421 l 2,0,1
EndSplineSet
EndChar

StartChar: x
Encoding: 120 120 92
Width: 1017
Flags: W
LayerCount: 2
Fore
SplineSet
210 882 m 2,0,1
 210 759 210 759 297 671 c 0,2,3
 385 583 385 583 509 583 c 0,4,5
 632 583 632 583 720 671 c 0,6,7
 807 759 807 759 807 882 c 2,8,-1
 807 970 l 2,9,10
 807 996 807 996 825 1014 c 256,11,12
 843 1032 843 1032 869 1032 c 2,13,-1
 871 1032 l 2,14,15
 896 1032 896 1032 914 1014 c 256,16,17
 932 996 932 996 932 971 c 2,18,-1
 932 882 l 2,19,20
 932 672 932 672 734 521 c 1,21,22
 932 369 932 369 932 160 c 2,23,-1
 932 61 l 2,24,25
 932 36 932 36 914 18 c 256,26,27
 896 0 896 0 871 0 c 2,28,-1
 869 0 l 2,29,30
 843 0 843 0 825 18 c 256,31,32
 807 36 807 36 807 61 c 2,33,-1
 807 160 l 2,34,35
 807 283 807 283 720 371 c 0,36,37
 632 458 632 458 509 458 c 0,38,39
 385 458 385 458 297 371 c 0,40,41
 210 283 210 283 210 160 c 2,42,-1
 210 61 l 2,43,44
 210 36 210 36 192 18 c 256,45,46
 174 0 174 0 149 0 c 2,47,-1
 146 0 l 2,48,49
 121 0 121 0 103 18 c 256,50,51
 85 36 85 36 85 61 c 2,52,-1
 85 160 l 2,53,54
 85 369 85 369 283 521 c 1,55,56
 85 672 85 672 85 882 c 2,57,-1
 85 970 l 2,58,59
 85 996 85 996 103 1014 c 256,60,61
 121 1032 121 1032 146 1032 c 2,62,-1
 149 1032 l 2,63,64
 174 1032 174 1032 192 1014 c 256,65,66
 210 996 210 996 210 970 c 2,67,-1
 210 882 l 2,0,1
EndSplineSet
EndChar

StartChar: y
Encoding: 121 121 93
Width: 1047
Flags: W
LayerCount: 2
Fore
SplineSet
225 445 m 2,0,1
 225 322 225 322 312 234 c 0,2,3
 400 146 400 146 524 146 c 256,4,5
 648 146 648 146 734 234 c 0,6,7
 822 320 822 320 822 445 c 2,8,-1
 822 970 l 2,9,10
 822 996 822 996 840 1014 c 256,11,12
 858 1032 858 1032 884 1032 c 2,13,-1
 886 1032 l 2,14,15
 911 1032 911 1032 929 1014 c 256,16,17
 947 996 947 996 947 970 c 2,18,-1
 947 13 l 2,19,20
 947 -159 947 -159 816 -287 c 0,21,22
 689 -411 689 -411 524 -411 c 0,23,24
 390 -411 390 -411 281 -345 c 0,25,26
 177 -283 177 -283 123 -176 c 0,27,28
 110 -152 110 -152 121 -126 c 0,29,30
 131 -100 131 -100 159 -91 c 1,31,-1
 163 -89 l 2,32,33
 182 -82 182 -82 203 -90 c 0,34,35
 224 -99 224 -99 235 -119 c 0,36,37
 275 -195 275 -195 353 -240 c 0,38,39
 432 -286 432 -286 524 -286 c 0,40,41
 643 -286 643 -286 732 -198 c 0,42,43
 822 -110 822 -110 822 13 c 2,44,-1
 822 139 l 1,45,46
 663 22 663 22 524 22 c 0,47,48
 348 22 348 22 224 146 c 0,49,50
 100 269 100 269 100 445 c 2,51,-1
 100 970 l 2,52,53
 100 996 100 996 118 1014 c 256,54,55
 136 1032 136 1032 161 1032 c 2,56,-1
 164 1032 l 2,57,58
 189 1032 189 1032 207 1014 c 256,59,60
 225 996 225 996 225 970 c 2,61,-1
 225 445 l 2,0,1
EndSplineSet
EndChar

StartChar: z
Encoding: 122 122 94
Width: 963
Flags: W
LayerCount: 2
Fore
SplineSet
884 957 m 0,0,1
 851 1034 851 1034 767 1032 c 2,2,-1
 166 1032 l 2,3,4
 141 1032 141 1032 123 1014 c 256,5,6
 105 996 105 996 105 971 c 2,7,-1
 105 968 l 2,8,9
 105 943 105 943 123 925 c 256,10,11
 141 907 141 907 166 907 c 2,12,-1
 779 907 l 1,13,-1
 105 212 l 2,14,15
 46 152 46 152 79 75 c 256,16,17
 112 -2 112 -2 196 0 c 2,18,-1
 841 0 l 2,19,20
 867 0 867 0 884 17 c 0,21,22
 902 35 902 35 902 61 c 2,23,-1
 902 63 l 2,24,25
 902 89 902 89 884 107 c 0,26,27
 867 124 867 124 841 124 c 2,28,-1
 185 124 l 1,29,-1
 858 820 l 2,30,31
 897 859 897 859 896 907 c 0,32,33
 895 931 895 931 884 957 c 0,0,1
EndSplineSet
EndChar

StartChar: braceleft
Encoding: 123 123 95
Width: 617
Flags: W
LayerCount: 2
Fore
SplineSet
165 612 m 0,1,2
 222 658 222 658 240 736 c 0,3,4
 259 820 259 820 259 969 c 0,5,6
 259 1154 259 1154 263 1196 c 0,7,8
 271 1276 271 1276 293 1321 c 0,9,10
 314 1366 314 1366 345 1392 c 0,11,12
 377 1419 377 1419 426 1433 c 0,13,14
 457 1441 457 1441 527 1442 c 0,15,16
 544 1442 544 1442 556 1431 c 0,17,18
 567 1419 567 1419 567 1402 c 2,19,-1
 567 1382 l 2,20,21
 567 1367 567 1367 557 1355 c 0,22,23
 546 1344 546 1344 531 1343 c 0,24,25
 444 1337 444 1337 408 1297 c 0,26,27
 367 1252 367 1252 364 1048 c 0,28,29
 359 805 359 805 355 784 c 0,30,31
 324 594 324 594 175 509 c 1,32,33
 331 432 331 432 358 204 c 0,34,35
 367 126 367 126 367 3 c 0,36,37
 367 -148 367 -148 369 -172 c 0,38,39
 379 -252 379 -252 420 -287 c 0,40,41
 453 -314 453 -314 530 -320 c 0,42,43
 546 -321 546 -321 556 -332 c 0,44,45
 567 -343 567 -343 567 -359 c 2,46,-1
 567 -378 l 2,47,48
 567 -395 567 -395 555 -407 c 0,49,50
 544 -418 544 -418 527 -418 c 0,51,52
 445 -417 445 -417 409 -404 c 0,53,54
 353 -384 353 -384 317 -339 c 0,55,56
 280 -294 280 -294 269 -223 c 0,57,58
 257 -152 257 -152 257 29 c 0,59,60
 258 201 258 201 238 286 c 0,61,62
 220 365 220 365 164 411 c 0,63,64
 134 437 134 437 94 449 c 0,65,66
 50 462 50 462 50 507 c 2,67,-1
 50 516 l 2,68,69
 50 562 50 562 94 574 c 0,70,0
 134 587 134 587 165 612 c 0,1,2
EndSplineSet
EndChar

StartChar: bar
Encoding: 124 124 96
Width: 525
Flags: W
LayerCount: 2
Fore
SplineSet
200 1442 m 1,0,-1
 321 1442 l 1,1,-1
 321 -416 l 1,2,-1
 200 -416 l 1,3,-1
 200 1442 l 1,0,-1
EndSplineSet
EndChar

StartChar: braceright
Encoding: 125 125 97
Width: 617
Flags: W
LayerCount: 2
Fore
SplineSet
523 574 m 0,0,1
 567 562 567 562 567 516 c 2,2,-1
 567 507 l 2,3,4
 567 462 567 462 524 449 c 0,5,6
 485 437 485 437 453 411 c 0,7,8
 397 364 397 364 380 286 c 0,9,10
 360 201 360 201 360 29 c 0,11,12
 360 -152 360 -152 348 -223 c 0,13,14
 338 -294 338 -294 301 -339 c 256,15,16
 264 -384 264 -384 208 -404 c 0,17,18
 172 -417 172 -417 90 -418 c 0,19,20
 73 -418 73 -418 62 -407 c 0,21,22
 50 -395 50 -395 50 -378 c 2,23,-1
 50 -359 l 2,24,25
 50 -343 50 -343 61 -332 c 0,26,27
 71 -321 71 -321 87 -320 c 0,28,29
 164 -314 164 -314 197 -287 c 0,30,31
 238 -252 238 -252 249 -172 c 0,32,33
 250 -148 250 -148 250 3 c 0,34,35
 250 126 250 126 259 204 c 0,36,37
 286 432 286 432 443 509 c 1,38,39
 293 594 293 594 262 784 c 0,40,41
 258 805 258 805 254 1048 c 0,42,43
 250 1252 250 1252 210 1297 c 0,44,45
 174 1337 174 1337 87 1343 c 0,46,47
 71 1344 71 1344 61 1355 c 0,48,49
 50 1367 50 1367 50 1382 c 2,50,-1
 50 1402 l 2,51,52
 50 1419 50 1419 62 1431 c 0,53,54
 73 1442 73 1442 90 1442 c 0,55,56
 160 1441 160 1441 191 1433 c 0,57,58
 240 1419 240 1419 272 1392 c 0,59,60
 303 1366 303 1366 324 1321 c 0,61,62
 346 1276 346 1276 354 1196 c 0,63,64
 358 1154 358 1154 358 969 c 0,65,66
 358 819 358 819 378 736 c 0,67,68
 395 658 395 658 452 612 c 0,69,70
 484 587 484 587 523 574 c 0,0,1
EndSplineSet
EndChar

StartChar: asciitilde
Encoding: 126 126 98
Width: 934
Flags: W
LayerCount: 2
Fore
SplineSet
251 752 m 0,1,2
 303 756 303 756 365 741 c 0,3,4
 406 731 406 731 475 707 c 0,5,6
 553 678 553 678 583 670 c 0,7,8
 646 653 646 653 695 656 c 0,9,10
 769 659 769 659 846 714 c 0,11,12
 861 725 861 725 878 717 c 0,13,14
 883 714 883 714 888 704 c 0,15,16
 895 692 895 692 897 677 c 256,17,18
 899 662 899 662 895 649 c 0,19,20
 892 637 892 637 887 632 c 0,21,22
 842 591 842 591 795 571 c 0,23,24
 746 550 746 550 683 546 c 0,25,26
 623 542 623 542 560 559 c 0,27,28
 520 570 520 570 435 603 c 0,29,30
 320 647 320 647 241 643 c 0,31,32
 160 638 160 638 87 586 c 0,33,34
 80 581 80 581 72 580 c 0,35,36
 65 579 65 579 57 583 c 0,37,38
 50 586 50 586 45 595 c 0,39,40
 39 605 39 605 38 619 c 0,41,42
 35 634 35 634 38 647 c 0,43,44
 41 657 41 657 46 662 c 0,45,0
 124 746 124 746 251 752 c 0,1,2
EndSplineSet
EndChar

StartChar: exclamdown
Encoding: 161 161 99
Width: 420
Flags: W
LayerCount: 2
Fore
SplineSet
148 302 m 1,0,-1
 179 698 l 1,1,-1
 242 698 l 1,2,-1
 273 302 l 1,3,-1
 273 -289 l 2,4,5
 273 -315 273 -315 255 -333 c 0,6,7
 237 -350 237 -350 212 -350 c 2,8,-1
 209 -350 l 2,9,10
 184 -350 184 -350 166 -333 c 0,11,12
 148 -315 148 -315 148 -289 c 2,13,-1
 148 302 l 1,0,-1
210 1033 m 0,14,15
 244 1033 244 1033 267 1010 c 256,16,17
 290 987 290 987 290 953 c 0,18,19
 290 920 290 920 267 897 c 256,20,21
 244 874 244 874 210 874 c 0,22,23
 177 874 177 874 154 897 c 0,24,25
 130 921 130 921 130 953 c 0,26,27
 130 986 130 986 154 1010 c 0,28,29
 177 1033 177 1033 210 1033 c 0,14,15
EndSplineSet
EndChar

StartChar: cent
Encoding: 162 162 100
Width: 1012
Flags: W
LayerCount: 2
Fore
SplineSet
457 102 m 1,0,1
 508 96 508 96 525 96 c 0,2,3
 736 85 736 85 843 288 c 1,4,-1
 964 260 l 1,5,6
 924 150 924 150 821 66 c 1,7,8
 697 -26 697 -26 526 -26 c 0,9,10
 490 -26 490 -26 427 -14 c 1,11,-1
 327 -408 l 1,12,-1
 244 -408 l 1,13,-1
 352 14 l 1,14,15
 263 65 263 65 200 132 c 0,16,17
 48 298 48 298 48 518 c 0,18,19
 48 745 48 745 189 904 c 0,20,21
 329 1062 329 1062 526 1062 c 0,22,23
 559 1062 559 1062 618 1055 c 1,24,-1
 709 1415 l 1,25,-1
 791 1415 l 1,26,-1
 694 1032 l 1,27,28
 762 1001 762 1001 803 971 c 0,29,30
 911 884 911 884 950 774 c 1,31,-1
 815 750 l 1,32,33
 777 818 777 818 712 871 c 0,34,35
 705 877 705 877 662 908 c 1,36,-1
 457 102 l 1,0,1
587 937 m 1,37,38
 539 941 539 941 526 941 c 0,39,40
 384 941 384 941 280 811 c 1,41,42
 182 678 182 678 182 518 c 0,43,44
 182 364 182 364 290 224 c 0,45,46
 318 192 318 192 383 136 c 1,47,-1
 587 937 l 1,37,38
EndSplineSet
EndChar

StartChar: sterling
Encoding: 163 163 101
Width: 1101
Flags: W
LayerCount: 2
Fore
SplineSet
760 1260 m 0,1,2
 685 1318 685 1318 591 1318 c 0,3,4
 476 1318 476 1318 394 1236 c 256,5,6
 312 1154 312 1154 312 1039 c 2,7,-1
 312 711 l 1,8,-1
 660 711 l 2,9,10
 686 711 686 711 704 693 c 0,11,12
 721 675 721 675 721 650 c 2,13,-1
 721 647 l 2,14,15
 721 622 721 622 704 604 c 0,16,17
 686 586 686 586 660 586 c 2,18,-1
 312 586 l 1,19,-1
 312 125 l 1,20,-1
 939 125 l 2,21,22
 965 125 965 125 983 107 c 256,23,24
 1001 89 1001 89 1001 63 c 2,25,-1
 1001 61 l 2,26,27
 1001 36 1001 36 983 18 c 256,28,29
 965 0 965 0 939 0 c 2,30,-1
 248 0 l 2,31,32
 223 0 223 0 205 18 c 256,33,34
 187 36 187 36 187 61 c 2,35,-1
 187 586 l 1,36,-1
 128 586 l 2,37,38
 116 586 116 586 108 594 c 256,39,40
 100 602 100 602 100 615 c 2,41,-1
 100 682 l 2,42,43
 100 695 100 695 108 703 c 256,44,45
 116 711 116 711 128 711 c 2,46,-1
 187 711 l 1,47,-1
 187 1039 l 2,48,49
 187 1207 187 1207 305 1324 c 0,50,51
 423 1442 423 1442 591 1442 c 0,52,53
 728 1442 728 1442 837 1358 c 0,54,55
 944 1276 944 1276 979 1146 c 0,56,57
 987 1117 987 1117 969 1093 c 256,58,59
 951 1069 951 1069 920 1069 c 2,60,-1
 917 1069 l 2,61,62
 871 1069 871 1069 858 1114 c 0,63,0
 833 1203 833 1203 760 1260 c 0,1,2
EndSplineSet
EndChar

StartChar: currency
Encoding: 164 164 102
Width: 1114
Flags: W
LayerCount: 2
Fore
SplineSet
557 1058 m 256,0,1
 422 1058 422 1058 326 962 c 128,-1,2
 230 866 230 866 230 731 c 0,3,4
 230 595 230 595 326 499 c 128,-1,5
 422 403 422 403 557 403 c 256,6,7
 692 403 692 403 788 499 c 128,-1,8
 884 595 884 595 884 731 c 0,9,10
 884 866 884 866 788 962 c 128,-1,11
 692 1058 692 1058 557 1058 c 256,0,1
214 991 m 1,12,-1
 62 1142 l 1,13,-1
 145 1225 l 1,14,-1
 297 1073 l 1,15,16
 421 1160 421 1160 558 1160 c 0,17,18
 694 1160 694 1160 820 1073 c 1,19,-1
 971 1225 l 1,20,-1
 1052 1144 l 1,21,-1
 900 991 l 1,22,23
 987 867 987 867 987 731 c 0,24,25
 987 594 987 594 900 470 c 1,26,-1
 1052 317 l 1,27,-1
 970 236 l 1,28,-1
 819 388 l 1,29,30
 693 301 693 301 558 301 c 0,31,32
 421 301 421 301 297 388 c 1,33,-1
 145 236 l 1,34,-1
 64 317 l 1,35,-1
 215 468 l 1,36,37
 128 595 128 595 128 731 c 0,38,39
 128 866 128 866 214 991 c 1,12,-1
EndSplineSet
EndChar

StartChar: yen
Encoding: 165 165 103
Width: 1095
Flags: W
LayerCount: 2
Fore
SplineSet
597 226 m 1,0,-1
 597 0 l 1,1,-1
 480 0 l 1,2,-1
 480 226 l 1,3,-1
 196 226 l 1,4,-1
 196 329 l 1,5,-1
 480 329 l 1,6,-1
 480 492 l 1,7,-1
 196 492 l 1,8,-1
 196 595 l 1,9,-1
 490 595 l 1,10,-1
 29 1505 l 1,11,-1
 156 1505 l 1,12,-1
 537 745 l 1,13,-1
 936 1505 l 1,14,-1
 1065 1505 l 1,15,-1
 586 595 l 1,16,-1
 899 595 l 1,17,-1
 899 492 l 1,18,-1
 597 492 l 1,19,-1
 597 329 l 1,20,-1
 899 329 l 1,21,-1
 899 226 l 1,22,-1
 597 226 l 1,0,-1
EndSplineSet
EndChar

StartChar: brokenbar
Encoding: 166 166 104
Width: 423
Flags: W
LayerCount: 2
Fore
SplineSet
150 1503 m 1,0,-1
 273 1503 l 1,1,-1
 273 719 l 1,2,-1
 150 719 l 1,3,-1
 150 1503 l 1,0,-1
150 321 m 1,4,-1
 273 321 l 1,5,-1
 273 -463 l 1,6,-1
 150 -463 l 1,7,-1
 150 321 l 1,4,-1
EndSplineSet
EndChar

StartChar: section
Encoding: 167 167 105
Width: 1015
Flags: W
LayerCount: 2
Fore
SplineSet
714 190 m 1,0,1
 872 111 872 111 919 47 c 0,2,3
 945 9 945 9 958 -37 c 0,4,5
 971 -85 971 -85 969 -145 c 0,6,7
 965 -258 965 -258 888 -348 c 0,8,9
 818 -430 818 -430 701 -471 c 0,10,11
 613 -502 613 -502 526 -499 c 0,12,13
 146 -489 146 -489 80 -159 c 1,14,-1
 190 -140 l 1,15,16
 226 -303 226 -303 382 -378 c 0,17,18
 437 -405 437 -405 516 -410 c 0,19,20
 672 -421 672 -421 777 -321 c 0,21,22
 829 -271 829 -271 847 -205 c 0,23,24
 874 -104 874 -104 825 -27 c 0,25,26
 782 41 782 41 679 87 c 1,27,28
 602 117 602 117 510 144 c 0,29,30
 290 208 290 208 213 276 c 0,31,32
 120 360 120 360 120 510 c 0,33,34
 120 694 120 694 251 791 c 0,35,36
 277 809 277 809 360 852 c 1,37,38
 246 906 246 906 213 935 c 0,39,40
 120 1019 120 1019 120 1169 c 0,41,42
 120 1353 120 1353 251 1450 c 0,43,44
 327 1506 327 1506 435 1524 c 0,45,46
 488 1533 488 1533 546 1531 c 0,47,48
 719 1525 719 1525 816 1447 c 0,49,50
 916 1366 916 1366 940 1229 c 1,51,-1
 824 1212 l 1,52,53
 797 1348 797 1348 663 1414 c 0,54,55
 605 1442 605 1442 529 1442 c 0,56,57
 419 1442 419 1442 336 1381 c 0,58,59
 242 1311 242 1311 239 1199 c 0,60,61
 237 1140 237 1140 255 1093 c 0,62,63
 271 1048 271 1048 306 1013 c 0,64,65
 358 960 358 960 423 938 c 128,-1,66
 488 916 488 916 604 885 c 0,67,68
 841 814 841 814 919 706 c 0,69,70
 945 668 945 668 958 622 c 0,71,72
 971 574 971 574 969 514 c 0,73,74
 965 401 965 401 888 311 c 0,75,76
 839 253 839 253 714 190 c 1,0,1
522 249 m 1,77,78
 675 241 675 241 777 338 c 0,79,80
 829 388 829 388 847 454 c 0,81,82
 874 555 874 555 825 632 c 0,83,84
 782 700 782 700 679 746 c 0,85,86
 638 762 638 762 594 777 c 1,87,88
 562 783 562 783 529 783 c 0,89,90
 419 783 419 783 336 722 c 0,91,92
 242 652 242 652 239 540 c 0,93,94
 237 481 237 481 255 434 c 0,95,96
 271 389 271 389 306 354 c 0,97,98
 358 301 358 301 426 278 c 0,99,100
 463 266 463 266 522 249 c 1,77,78
EndSplineSet
EndChar

StartChar: dieresis
Encoding: 168 168 106
Width: 723
Flags: W
LayerCount: 2
Fore
SplineSet
180 1183 m 0,0,1
 146 1183 146 1183 123 1206 c 256,2,3
 100 1229 100 1229 100 1263 c 0,4,5
 100 1296 100 1296 123 1319 c 256,6,7
 146 1342 146 1342 180 1342 c 0,8,9
 213 1342 213 1342 236 1319 c 0,10,11
 260 1295 260 1295 260 1263 c 0,12,13
 260 1230 260 1230 236 1206 c 0,14,15
 213 1183 213 1183 180 1183 c 0,0,1
543 1183 m 0,16,17
 509 1183 509 1183 486 1206 c 256,18,19
 463 1229 463 1229 463 1263 c 0,20,21
 463 1296 463 1296 486 1319 c 256,22,23
 509 1342 509 1342 543 1342 c 0,24,25
 576 1342 576 1342 599 1319 c 0,26,27
 623 1295 623 1295 623 1263 c 0,28,29
 623 1230 623 1230 599 1206 c 0,30,31
 576 1183 576 1183 543 1183 c 0,16,17
EndSplineSet
EndChar

StartChar: copyright
Encoding: 169 169 107
Width: 1751
Flags: W
LayerCount: 2
Fore
SplineSet
876 1493 m 256,0,1
 1071 1493 1071 1493 1257 1393 c 128,-1,2
 1443 1293 1443 1293 1547 1106 c 128,-1,3
 1651 919 1651 919 1651 717 c 0,4,5
 1651 517 1651 517 1549 331.5 c 128,-1,6
 1447 146 1447 146 1262 44 c 128,-1,7
 1077 -58 1077 -58 876 -58 c 256,8,9
 675 -58 675 -58 490.5 44 c 128,-1,10
 306 146 306 146 203 331.5 c 128,-1,11
 100 517 100 517 100 717 c 0,12,13
 100 919 100 919 204.5 1106 c 128,-1,14
 309 1293 309 1293 495 1393 c 128,-1,15
 681 1493 681 1493 876 1493 c 256,0,1
876 1420 m 0,16,17
 698 1420 698 1420 530.5 1329 c 128,-1,18
 363 1238 363 1238 268 1069 c 128,-1,19
 173 900 173 900 173 717 c 0,20,21
 173 535 173 535 266.5 368.5 c 128,-1,22
 360 202 360 202 527 108.5 c 128,-1,23
 694 15 694 15 876 15 c 256,24,25
 1058 15 1058 15 1225 108.5 c 128,-1,26
 1392 202 1392 202 1485 368.5 c 128,-1,27
 1578 535 1578 535 1578 717 c 0,28,29
 1578 900 1578 900 1483.5 1069 c 128,-1,30
 1389 1238 1389 1238 1221 1329 c 128,-1,31
 1053 1420 1053 1420 876 1420 c 0,16,17
1176 925 m 1,32,33
 1162 989 1162 989 1098 1053 c 0,34,35
 1014 1133 1014 1133 891 1133 c 0,36,37
 755 1133 755 1133 660 1035 c 0,38,39
 567 939 567 939 567 801 c 2,40,-1
 567 623 l 2,41,42
 567 486 567 486 660 390 c 0,43,44
 755 291 755 291 891 291 c 0,45,46
 1011 291 1011 291 1095 370 c 0,47,48
 1175 447 1175 447 1187 535 c 1,49,-1
 1246 529 l 1,50,51
 1231 419 1231 419 1131 326 c 0,52,53
 1029 232 1029 232 891 232 c 0,54,55
 729 232 729 232 615 349 c 0,56,57
 502 465 502 465 502 629 c 2,58,-1
 502 795 l 2,59,60
 502 960 502 960 615 1076 c 0,61,62
 729 1193 729 1193 891 1193 c 0,63,64
 1029 1193 1029 1193 1132 1098 c 0,65,66
 1215 1020 1215 1020 1233 937 c 1,67,-1
 1176 925 l 1,32,33
EndSplineSet
EndChar

StartChar: ordfeminine
Encoding: 170 170 108
Width: 861
Flags: W
LayerCount: 2
Fore
SplineSet
665 1354 m 0,1,2
 761 1267 761 1267 761 1144 c 2,3,-1
 761 871 l 2,4,5
 761 862 761 862 753 855 c 0,6,7
 744 847 744 847 731 847 c 2,8,-1
 729 847 l 2,9,10
 715 847 715 847 706 855 c 0,11,12
 699 862 699 862 699 871 c 2,13,-1
 699 1001 l 1,14,15
 620 847 620 847 430 847 c 0,16,17
 293 847 293 847 196 935 c 0,18,19
 100 1022 100 1022 100 1144 c 0,20,21
 100 1267 100 1267 196 1354 c 0,22,23
 293 1442 293 1442 430 1442 c 0,24,0
 568 1442 568 1442 665 1354 c 0,1,2
260 1302 m 0,26,27
 189 1237 189 1237 189 1144 c 256,28,29
 189 1051 189 1051 260 987 c 0,30,31
 330 923 330 923 430 923 c 256,32,33
 530 923 530 923 600 987 c 0,34,35
 672 1051 672 1051 672 1144 c 256,36,37
 672 1237 672 1237 600 1302 c 0,38,39
 530 1366 530 1366 430 1366 c 256,40,25
 330 1366 330 1366 260 1302 c 0,26,27
EndSplineSet
EndChar

StartChar: guillemotleft
Encoding: 171 171 109
Width: 1012
Flags: W
LayerCount: 2
Fore
SplineSet
402 1031 m 1,0,-1
 538 1031 l 1,1,-1
 147 690 l 1,2,-1
 538 349 l 1,3,-1
 402 349 l 1,4,-1
 38 671 l 2,5,6
 30 678 30 678 30 690 c 0,7,8
 30 703 30 703 38 710 c 2,9,-1
 402 1031 l 1,0,-1
796 1031 m 1,10,-1
 932 1031 l 1,11,-1
 541 690 l 1,12,-1
 932 349 l 1,13,-1
 796 349 l 1,14,-1
 432 671 l 2,15,16
 424 678 424 678 424 690 c 0,17,18
 424 703 424 703 432 710 c 2,19,-1
 796 1031 l 1,10,-1
EndSplineSet
EndChar

StartChar: logicalnot
Encoding: 172 172 110
Width: 987
Flags: W
LayerCount: 2
Fore
SplineSet
130 756 m 1,0,-1
 857 756 l 1,1,-1
 857 350 l 1,2,-1
 785 350 l 1,3,-1
 785 695 l 1,4,-1
 130 695 l 1,5,-1
 130 756 l 1,0,-1
EndSplineSet
EndChar

StartChar: registered
Encoding: 174 174 111
Width: 1751
Flags: W
LayerCount: 2
Fore
SplineSet
876 1503 m 256,0,1
 1071 1503 1071 1503 1257 1403 c 128,-1,2
 1443 1303 1443 1303 1547 1116 c 128,-1,3
 1651 929 1651 929 1651 727 c 0,4,5
 1651 527 1651 527 1549 341.5 c 128,-1,6
 1447 156 1447 156 1262 54 c 128,-1,7
 1077 -48 1077 -48 876 -48 c 256,8,9
 675 -48 675 -48 490.5 54 c 128,-1,10
 306 156 306 156 203 341.5 c 128,-1,11
 100 527 100 527 100 727 c 0,12,13
 100 929 100 929 204.5 1116 c 128,-1,14
 309 1303 309 1303 495 1403 c 128,-1,15
 681 1503 681 1503 876 1503 c 256,0,1
876 1430 m 0,16,17
 698 1430 698 1430 530.5 1339 c 128,-1,18
 363 1248 363 1248 268 1079 c 128,-1,19
 173 910 173 910 173 727 c 0,20,21
 173 545 173 545 266.5 378.5 c 128,-1,22
 360 212 360 212 527 118.5 c 128,-1,23
 694 25 694 25 876 25 c 256,24,25
 1058 25 1058 25 1225 118.5 c 128,-1,26
 1392 212 1392 212 1485 378.5 c 128,-1,27
 1578 545 1578 545 1578 727 c 0,28,29
 1578 910 1578 910 1483.5 1079 c 128,-1,30
 1389 1248 1389 1248 1221 1339 c 128,-1,31
 1053 1430 1053 1430 876 1430 c 0,16,17
615 1177 m 1,32,-1
 968 1176 l 2,33,34
 1068 1175 1068 1175 1139 1104 c 0,35,36
 1209 1033 1209 1033 1209 933 c 0,37,38
 1209 819 1209 819 1121 744 c 0,39,40
 1076 706 1076 706 1024.5 695.5 c 128,-1,41
 973 685 973 685 890 688 c 1,42,-1
 1194 211 l 1,43,-1
 1129 211 l 1,44,-1
 821 688 l 1,45,-1
 682 688 l 1,46,-1
 682 211 l 1,47,-1
 615 211 l 1,48,-1
 615 1177 l 1,32,-1
968 747 m 1,49,50
 1054 754 1054 754 1097 803 c 0,51,52
 1150 857 1150 857 1150 933 c 0,53,54
 1150 1008 1150 1008 1097 1062 c 256,55,56
 1044 1116 1044 1116 968 1118 c 2,57,-1
 682 1118 l 1,58,-1
 682 747 l 1,59,-1
 968 747 l 1,49,50
EndSplineSet
EndChar

StartChar: degree
Encoding: 176 176 113
Width: 782
Flags: W
LayerCount: 2
Fore
SplineSet
189 1182 m 0,0,1
 189 1102 189 1102 246 1047 c 0,2,3
 301 990 301 990 379 990 c 2,4,-1
 401 990 l 2,5,6
 481 990 481 990 536 1047 c 0,7,8
 593 1102 593 1102 593 1182 c 0,9,10
 593 1259 593 1259 536 1316 c 0,11,12
 480 1372 480 1372 401 1372 c 2,13,-1
 379 1372 l 2,14,15
 302 1372 302 1372 246 1316 c 0,16,17
 189 1259 189 1259 189 1182 c 0,0,1
100 1182 m 0,18,19
 100 1294 100 1294 180 1374 c 256,20,21
 260 1454 260 1454 374 1454 c 2,22,-1
 408 1454 l 2,23,24
 521 1454 521 1454 602 1374 c 0,25,26
 682 1294 682 1294 682 1182 c 0,27,28
 682 1068 682 1068 602 988 c 0,29,30
 521 908 521 908 408 908 c 2,31,-1
 374 908 l 2,32,33
 260 908 260 908 180 988 c 256,34,35
 100 1068 100 1068 100 1182 c 0,18,19
EndSplineSet
EndChar

StartChar: plusminus
Encoding: 177 177 114
Width: 1032
Flags: W
LayerCount: 2
Fore
SplineSet
579 784 m 1,0,-1
 920 784 l 2,1,2
 946 784 946 784 964 766 c 256,3,4
 982 748 982 748 982 722 c 2,5,-1
 982 720 l 2,6,7
 982 695 982 695 964 677 c 256,8,9
 946 659 946 659 920 659 c 2,10,-1
 579 659 l 1,11,-1
 579 318 l 2,12,13
 579 292 579 292 561 274 c 256,14,15
 543 256 543 256 517 256 c 2,16,-1
 515 256 l 2,17,18
 490 256 490 256 472 274 c 256,19,20
 454 292 454 292 454 318 c 2,21,-1
 454 659 l 1,22,-1
 111 659 l 2,23,24
 86 659 86 659 68 677 c 256,25,26
 50 695 50 695 50 720 c 2,27,-1
 50 722 l 2,28,29
 50 748 50 748 68 766 c 256,30,31
 86 784 86 784 111 784 c 2,32,-1
 454 784 l 1,33,-1
 454 1127 l 2,34,35
 454 1152 454 1152 472 1170 c 256,36,37
 490 1188 490 1188 515 1188 c 2,38,-1
 517 1188 l 2,39,40
 543 1188 543 1188 561 1170 c 256,41,42
 579 1152 579 1152 579 1127 c 2,43,-1
 579 784 l 1,0,-1
982 61 m 2,44,45
 982 36 982 36 964 18 c 256,46,47
 946 0 946 0 920 0 c 2,48,-1
 111 0 l 2,49,50
 86 0 86 0 68 18 c 256,51,52
 50 36 50 36 50 61 c 2,53,-1
 50 63 l 2,54,55
 50 89 50 89 68 107 c 256,56,57
 86 125 86 125 111 125 c 2,58,-1
 920 125 l 2,59,60
 946 125 946 125 964 107 c 256,61,62
 982 89 982 89 982 63 c 2,63,-1
 982 61 l 2,44,45
EndSplineSet
EndChar

StartChar: acute
Encoding: 180 180 115
Width: 561
Flags: W
LayerCount: 2
Fore
SplineSet
278 1153 m 2,0,1
 271 1146 271 1146 262 1146 c 2,2,-1
 171 1146 l 2,3,4
 166 1146 166 1146 164 1150 c 256,5,6
 162 1154 162 1154 166 1160 c 2,7,-1
 342 1411 l 2,8,9
 343 1413 343 1413 347 1413 c 2,10,-1
 521 1413 l 2,11,12
 533 1412 533 1412 531 1402 c 1,13,-1
 278 1153 l 2,0,1
EndSplineSet
EndChar

StartChar: mu
Encoding: 181 181 116
Width: 1067
Flags: W
LayerCount: 2
Fore
SplineSet
235 202 m 1,0,-1
 235 -350 l 2,1,2
 235 -375 235 -375 217 -393 c 256,3,4
 199 -411 199 -411 174 -411 c 2,5,-1
 171 -411 l 2,6,7
 146 -411 146 -411 128 -393 c 256,8,9
 110 -375 110 -375 110 -350 c 2,10,-1
 110 970 l 2,11,12
 110 996 110 996 128 1014 c 0,13,14
 146 1031 146 1031 171 1031 c 2,15,-1
 174 1031 l 2,16,17
 199 1031 199 1031 217 1013 c 256,18,19
 235 995 235 995 235 969 c 2,20,-1
 235 422 l 2,21,22
 235 299 235 299 322 211 c 0,23,24
 410 124 410 124 534 124 c 0,25,26
 657 124 657 124 745 211 c 0,27,28
 832 299 832 299 832 422 c 2,29,-1
 832 970 l 2,30,31
 832 996 832 996 850 1014 c 0,32,33
 868 1031 868 1031 893 1031 c 2,34,-1
 896 1031 l 2,35,36
 921 1031 921 1031 939 1014 c 0,37,38
 957 996 957 996 957 970 c 2,39,-1
 957 -50 l 2,40,41
 957 -75 957 -75 939 -93 c 256,42,43
 921 -111 921 -111 896 -111 c 2,44,-1
 893 -111 l 2,45,46
 868 -111 868 -111 850 -93 c 256,47,48
 832 -75 832 -75 832 -50 c 2,49,-1
 832 202 l 1,50,51
 703 -1 703 -1 534 -1 c 0,52,53
 364 -1 364 -1 235 202 c 1,0,-1
EndSplineSet
EndChar

StartChar: paragraph
Encoding: 182 182 117
Width: 1008
Flags: W
LayerCount: 2
Fore
SplineSet
952 1414 m 1,0,-1
 865 1414 l 1,1,-1
 865 0 l 1,2,-1
 776 0 l 1,3,-1
 776 1414 l 1,4,-1
 594 1414 l 1,5,-1
 594 0 l 1,6,-1
 495 0 l 1,7,-1
 495 699 l 1,8,9
 294 729 294 729 198 842 c 0,10,11
 100 953 100 953 100 1101 c 0,12,13
 100 1247 100 1247 198 1360 c 1,14,15
 301 1489 301 1489 466 1503 c 1,16,-1
 952 1503 l 1,17,-1
 952 1414 l 1,0,-1
EndSplineSet
EndChar

StartChar: periodcentered
Encoding: 183 183 118
AltUni2: 002219.ffffffff.0
Width: 327
Flags: W
LayerCount: 2
Fore
SplineSet
164 658 m 0,0,1
 136 658 136 658 118 676 c 256,2,3
 100 694 100 694 100 721 c 256,4,5
 100 748 100 748 118 766 c 256,6,7
 136 784 136 784 164 784 c 0,8,9
 190 784 190 784 208 766 c 0,10,11
 227 747 227 747 227 721 c 256,12,13
 227 695 227 695 208 676 c 0,14,15
 190 658 190 658 164 658 c 0,0,1
EndSplineSet
EndChar

StartChar: cedilla
Encoding: 184 184 119
Width: 580
Flags: W
LayerCount: 2
Fore
SplineSet
220 -159 m 256,1,2
 212 -148 212 -148 214 -135 c 2,3,-1
 240 5 l 1,4,-1
 323 5 l 1,5,-1
 303 -89 l 1,6,7
 395 -90 395 -90 440 -130.5 c 128,-1,8
 485 -171 485 -171 488 -226 c 0,9,10
 488 -289 488 -289 424 -339 c 0,11,12
 359 -392 359 -392 218 -392 c 0,13,14
 171 -392 171 -392 123 -388 c 0,15,16
 109 -385 109 -385 100 -376 c 0,17,18
 91 -366 91 -366 92 -355 c 2,19,-1
 94 -338 l 2,20,21
 95 -325 95 -325 104 -317 c 256,22,23
 113 -309 113 -309 126 -308 c 0,24,25
 148 -309 148 -309 178 -312 c 0,26,27
 284 -323 284 -323 332 -291 c 0,28,29
 348 -280 348 -280 359 -268 c 0,30,31
 376 -249 376 -249 376 -225 c 0,32,33
 376 -197 376 -197 351.5 -177.5 c 128,-1,34
 327 -158 327 -158 292 -158 c 0,35,36
 264 -158 264 -158 246 -164 c 128,-1,0
 228 -170 228 -170 220 -159 c 256,1,2
EndSplineSet
EndChar

StartChar: guillemotright
Encoding: 187 187 120
Width: 1022
Flags: W
LayerCount: 2
Fore
SplineSet
580 710 m 2,0,1
 588 703 588 703 588 690 c 0,2,3
 588 678 588 678 580 671 c 2,4,-1
 216 349 l 1,5,-1
 80 349 l 1,6,-1
 471 690 l 1,7,-1
 80 1031 l 1,8,-1
 216 1031 l 1,9,-1
 580 710 l 2,0,1
984 710 m 2,10,11
 992 703 992 703 992 690 c 0,12,13
 992 678 992 678 984 671 c 2,14,-1
 620 349 l 1,15,-1
 484 349 l 1,16,-1
 875 690 l 1,17,-1
 484 1031 l 1,18,-1
 620 1031 l 1,19,-1
 984 710 l 2,10,11
EndSplineSet
EndChar

StartChar: AE
Encoding: 198 198 131
Width: 1699
Flags: W
LayerCount: 2
Fore
SplineSet
900 691 m 1,0,-1
 900 985 l 2,1,2
 900 1122 900 1122 803 1220 c 0,3,4
 705 1318 705 1318 567 1318 c 0,5,6
 430 1318 430 1318 332 1220 c 0,7,8
 235 1122 235 1122 235 985 c 2,9,-1
 235 691 l 1,10,-1
 900 691 l 1,0,-1
901 399 m 2,11,12
 900 406 900 406 900 411 c 2,13,-1
 900 567 l 1,14,-1
 235 567 l 1,15,-1
 235 61 l 2,16,17
 235 36 235 36 217 18 c 256,18,19
 199 0 199 0 174 0 c 2,20,-1
 171 0 l 2,21,22
 146 0 146 0 128 18 c 256,23,24
 110 36 110 36 110 61 c 2,25,-1
 110 985 l 2,26,27
 110 1175 110 1175 244 1309 c 0,28,29
 378 1442 378 1442 567 1442 c 0,30,31
 757 1442 757 1442 891 1309 c 0,32,33
 897 1303 897 1303 929 1271 c 1,34,35
 967 1328 967 1328 990 1353 c 0,36,37
 1079 1442 1079 1442 1206 1442 c 2,38,-1
 1562 1442 l 2,39,40
 1588 1442 1588 1442 1606 1424 c 256,41,42
 1624 1406 1624 1406 1624 1381 c 2,43,-1
 1624 1378 l 2,44,45
 1624 1353 1624 1353 1606 1335 c 256,46,47
 1588 1317 1588 1317 1562 1317 c 2,48,-1
 1206 1317 l 2,49,50
 1131 1317 1131 1317 1078 1264 c 256,51,52
 1025 1211 1025 1211 1025 1137 c 2,53,-1
 1025 783 l 1,54,-1
 1562 783 l 2,55,56
 1588 783 1588 783 1606 765 c 256,57,58
 1624 747 1624 747 1624 722 c 2,59,-1
 1624 719 l 2,60,61
 1624 694 1624 694 1606 676 c 256,62,63
 1588 658 1588 658 1562 658 c 2,64,-1
 1025 658 l 1,65,-1
 1025 305 l 2,66,67
 1025 230 1025 230 1078 177 c 256,68,69
 1131 124 1131 124 1206 124 c 2,70,-1
 1562 124 l 2,71,72
 1588 124 1588 124 1606 107 c 0,73,74
 1624 89 1624 89 1624 63 c 2,75,-1
 1624 61 l 2,76,77
 1624 35 1624 35 1606 17 c 0,78,79
 1588 0 1588 0 1562 0 c 2,80,-1
 1206 0 l 2,81,82
 1079 0 1079 0 990 89 c 256,83,84
 901 178 901 178 901 305 c 2,85,-1
 901 399 l 2,11,12
EndSplineSet
EndChar

StartChar: Eth
Encoding: 208 208 141
Width: 1294
Flags: W
LayerCount: 2
Fore
SplineSet
130 784 m 1,0,-1
 130 1220 l 2,1,2
 130 1313 130 1313 195 1378 c 0,3,4
 260 1442 260 1442 352 1442 c 2,5,-1
 503 1442 l 2,6,7
 802 1442 802 1442 1013 1231 c 256,8,9
 1224 1020 1224 1020 1224 721 c 256,10,11
 1224 422 1224 422 1013 211 c 256,12,13
 802 0 802 0 503 0 c 2,14,-1
 352 0 l 2,15,16
 260 0 260 0 195 65 c 256,17,18
 130 130 130 130 130 222 c 2,19,-1
 130 659 l 1,20,-1
 10 659 l 1,21,-1
 10 784 l 1,22,-1
 130 784 l 1,0,-1
255 784 m 1,23,-1
 560 784 l 1,24,-1
 560 659 l 1,25,-1
 255 659 l 1,26,-1
 255 222 l 2,27,28
 255 182 255 182 283 153 c 0,29,30
 312 125 312 125 352 125 c 2,31,-1
 503 125 l 2,32,33
 750 125 750 125 925 299 c 0,34,35
 1100 474 1100 474 1100 721 c 256,36,37
 1100 968 1100 968 925 1143 c 256,38,39
 750 1318 750 1318 503 1318 c 2,40,-1
 352 1318 l 2,41,42
 312 1318 312 1318 283 1289 c 0,43,44
 255 1260 255 1260 255 1220 c 2,45,-1
 255 784 l 1,23,-1
EndSplineSet
EndChar

StartChar: multiply
Encoding: 215 215 148
Width: 797
Flags: W
LayerCount: 2
Fore
SplineSet
399 811 m 1,0,-1
 640 1052 l 2,1,2
 658 1070 658 1070 684 1070 c 256,3,4
 710 1070 710 1070 724 1055 c 1,5,-1
 725 1053 l 1,6,7
 747 1032 747 1032 747 1007 c 0,8,9
 747 981 747 981 729 963 c 2,10,-1
 488 722 l 1,11,-1
 729 481 l 2,12,13
 747 463 747 463 747 437 c 256,14,15
 747 411 747 411 732 397 c 1,16,-1
 730 396 l 1,17,18
 709 374 709 374 684 374 c 0,19,20
 658 374 658 374 640 392 c 2,21,-1
 399 633 l 1,22,-1
 157 391 l 2,23,24
 139 373 139 373 113 374 c 0,25,26
 88 373 88 373 70 391 c 2,27,-1
 69 392 l 2,28,29
 51 410 51 410 51 436 c 0,30,31
 50 462 50 462 68 480 c 2,32,-1
 310 722 l 1,33,-1
 68 964 l 2,34,35
 50 982 50 982 51 1008 c 0,36,37
 50 1033 50 1033 68 1051 c 2,38,-1
 69 1052 l 2,39,40
 87 1070 87 1070 113 1070 c 0,41,42
 139 1071 139 1071 157 1053 c 2,43,-1
 399 811 l 1,0,-1
EndSplineSet
EndChar

StartChar: Oslash
Encoding: 216 216 149
Width: 1603
Flags: W
LayerCount: 2
Fore
SplineSet
1001 1287 m 1,0,1
 889 1318 889 1318 801 1318 c 0,2,3
 555 1318 555 1318 380 1143 c 256,4,5
 205 968 205 968 205 721 c 256,6,7
 205 474 205 474 380 299 c 0,8,9
 431 247 431 247 517 193 c 1,10,-1
 1001 1287 l 1,0,1
607 155 m 1,11,12
 716 125 716 125 801 125 c 0,13,14
 1048 125 1048 125 1223 299 c 0,15,16
 1398 474 1398 474 1398 721 c 256,17,18
 1398 968 1398 968 1223 1143 c 0,19,20
 1174 1193 1174 1193 1089 1247 c 1,21,-1
 607 155 l 1,11,12
1140 1361 m 1,22,23
 1242 1300 1242 1300 1312 1231 c 0,24,25
 1523 1020 1523 1020 1523 721 c 256,26,27
 1523 422 1523 422 1312 211 c 0,28,29
 1100 0 1100 0 801 0 c 0,30,31
 684 0 684 0 555 41 c 1,32,-1
 441 -217 l 1,33,-1
 336 -217 l 1,34,-1
 467 80 l 1,35,36
 362 140 362 140 291 211 c 0,37,38
 80 422 80 422 80 721 c 256,39,40
 80 1020 80 1020 291 1231 c 256,41,42
 502 1442 502 1442 801 1442 c 0,43,44
 921 1442 921 1442 1053 1400 c 1,45,-1
 1129 1572 l 1,46,-1
 1233 1572 l 1,47,-1
 1140 1361 l 1,22,23
EndSplineSet
EndChar

StartChar: Thorn
Encoding: 222 222 155
Width: 1160
Flags: W
LayerCount: 2
Fore
SplineSet
265 298 m 1,0,-1
 265 61 l 2,1,2
 265 36 265 36 247 18 c 256,3,4
 229 0 229 0 204 0 c 2,5,-1
 201 0 l 2,6,7
 176 0 176 0 158 18 c 256,8,9
 140 36 140 36 140 61 c 2,10,-1
 140 1381 l 2,11,12
 140 1407 140 1407 158 1425 c 0,13,14
 176 1442 176 1442 201 1442 c 2,15,-1
 204 1442 l 2,16,17
 229 1442 229 1442 247 1425 c 0,18,19
 265 1407 265 1407 265 1381 c 2,20,-1
 265 1145 l 1,21,-1
 661 1145 l 2,22,23
 837 1145 837 1145 961 1021 c 256,24,25
 1085 897 1085 897 1085 722 c 0,26,27
 1085 546 1085 546 961 422 c 256,28,29
 837 298 837 298 661 298 c 2,30,-1
 265 298 l 1,0,-1
265 1020 m 1,31,-1
 265 423 l 1,32,-1
 661 423 l 2,33,34
 784 423 784 423 872 510 c 0,35,36
 960 598 960 598 960 722 c 0,37,38
 960 845 960 845 872 933 c 0,39,40
 784 1020 784 1020 661 1020 c 2,41,-1
 265 1020 l 1,31,-1
EndSplineSet
EndChar

StartChar: germandbls
Encoding: 223 223 156
Width: 1064
Flags: W
LayerCount: 2
Fore
SplineSet
225 61 m 2,0,1
 225 36 225 36 207 18 c 256,2,3
 189 0 189 0 164 0 c 2,4,-1
 161 0 l 2,5,6
 136 0 136 0 118 18 c 256,7,8
 100 36 100 36 100 61 c 2,9,-1
 100 1220 l 2,10,11
 100 1313 100 1313 165 1378 c 0,12,13
 230 1442 230 1442 322 1442 c 2,14,-1
 560 1442 l 2,15,16
 719 1442 719 1442 830 1331 c 256,17,18
 941 1220 941 1220 941 1062 c 0,19,20
 941 884 941 884 776 746 c 1,21,22
 964 602 964 602 964 403 c 0,23,24
 964 236 964 236 846 118 c 256,25,26
 728 0 728 0 560 0 c 2,27,-1
 499 0 l 2,28,29
 473 0 473 0 455 18 c 0,30,31
 438 35 438 35 438 61 c 2,32,-1
 438 63 l 2,33,34
 438 89 438 89 455 107 c 0,35,36
 473 125 473 125 499 125 c 2,37,-1
 560 125 l 2,38,39
 675 125 675 125 757 206 c 0,40,41
 838 288 838 288 838 403 c 256,42,43
 838 518 838 518 757 600 c 0,44,45
 675 682 675 682 560 682 c 2,46,-1
 503 682 l 2,47,48
 477 682 477 682 459 700 c 0,49,50
 442 717 442 717 442 743 c 2,51,-1
 442 745 l 2,52,53
 442 771 442 771 459 789 c 0,54,55
 477 806 477 806 503 806 c 2,56,-1
 560 807 l 2,57,58
 666 807 666 807 741 881 c 0,59,60
 816 956 816 956 816 1062 c 0,61,62
 816 1167 816 1167 741 1242 c 0,63,64
 667 1318 667 1318 560 1318 c 2,65,-1
 322 1318 l 2,66,67
 282 1318 282 1318 253 1289 c 0,68,69
 225 1260 225 1260 225 1220 c 2,70,-1
 225 61 l 2,0,1
EndSplineSet
EndChar

StartChar: ae
Encoding: 230 230 163
Width: 2125
Flags: W
LayerCount: 2
Fore
SplineSet
339 792 m 0,0,1
 225 677 225 677 225 516 c 0,2,3
 225 354 225 354 339 239 c 0,4,5
 454 125 454 125 616 125 c 256,6,7
 778 125 778 125 892 239 c 0,8,9
 1007 354 1007 354 1007 516 c 0,10,11
 1007 677 1007 677 892 792 c 0,12,13
 779 907 779 907 616 907 c 0,14,15
 454 907 454 907 339 792 c 0,0,1
1524 905 m 0,16,17
 1362 905 1362 905 1247 790 c 0,18,19
 1133 675 1133 675 1133 513 c 0,20,21
 1133 484 1133 484 1143 416 c 1,22,-1
 1848 735 l 1,23,24
 1706 905 1706 905 1524 905 c 0,16,17
1132 174 m 1,25,-1
 1132 61 l 2,26,27
 1132 36 1132 36 1114 18 c 256,28,29
 1096 0 1096 0 1071 0 c 2,30,-1
 1068 0 l 2,31,32
 1043 0 1043 0 1025 18 c 256,33,34
 1007 36 1007 36 1007 61 c 2,35,-1
 1007 174 l 1,36,37
 811 0 811 0 616 0 c 0,38,39
 402 0 402 0 251 151 c 256,40,41
 100 302 100 302 100 516 c 256,42,43
 100 730 100 730 251 881 c 256,44,45
 402 1032 402 1032 616 1032 c 256,46,47
 830 1032 830 1032 981 881 c 0,48,49
 1018 844 1018 844 1070 768 c 1,50,51
 1122 844 1122 844 1159 881 c 0,52,53
 1310 1032 1310 1032 1524 1032 c 0,54,55
 1678 1032 1678 1032 1806 948 c 0,56,57
 1931 866 1931 866 1993 730 c 0,58,59
 2004 707 2004 707 1995 683 c 0,60,61
 1986 660 1986 660 1963 649 c 0,62,63
 1823 586 1823 586 1595 483 c 0,64,65
 1312 355 1312 355 1193 302 c 1,66,67
 1333 122 1333 122 1524 122 c 0,68,69
 1651 122 1651 122 1754 197 c 0,70,71
 1853 269 1853 269 1893 385 c 0,72,73
 1908 427 1908 427 1953 427 c 0,74,75
 1985 427 1985 427 2004 401 c 0,76,77
 2022 375 2022 375 2011 345 c 0,78,79
 1958 192 1958 192 1826 97 c 0,80,81
 1690 0 1690 0 1524 0 c 0,82,83
 1326 0 1326 0 1132 174 c 1,25,-1
EndSplineSet
EndChar

StartChar: eth
Encoding: 240 240 173
Width: 1232
Flags: W
LayerCount: 2
Fore
SplineSet
616 905 m 0,0,1
 454 905 454 905 339 790 c 0,2,3
 225 675 225 675 225 513 c 0,4,5
 225 352 225 352 339 237 c 0,6,7
 454 122 454 122 616 122 c 0,8,9
 779 122 779 122 892 237 c 0,10,11
 1007 352 1007 352 1007 513 c 0,12,13
 1007 675 1007 675 892 790 c 0,14,15
 779 905 779 905 616 905 c 0,0,1
672 1501 m 2,16,-1
 720 1465 l 2,17,18
 726 1460 726 1460 721 1454 c 2,19,-1
 634 1338 l 1,20,21
 942 1132 942 1132 1063 833 c 0,22,23
 1124 683 1124 683 1129 573 c 0,24,25
 1132 544 1132 544 1132 516 c 0,26,27
 1132 302 1132 302 981 151 c 256,28,29
 830 0 830 0 616 0 c 256,30,31
 402 0 402 0 251 151 c 256,32,33
 100 302 100 302 100 516 c 256,34,35
 100 730 100 730 251 881 c 256,36,37
 402 1032 402 1032 616 1032 c 0,38,39
 693 1032 693 1032 865 980 c 1,40,41
 708 1158 708 1158 573 1255 c 1,42,-1
 472 1122 l 2,43,44
 467 1115 467 1115 461 1120 c 2,45,-1
 413 1156 l 2,46,47
 407 1161 407 1161 412 1168 c 2,48,-1
 508 1297 l 1,49,50
 443 1335 443 1335 406 1352 c 0,51,52
 403 1354 403 1354 402 1358 c 256,53,54
 401 1362 401 1362 402 1365 c 2,55,-1
 445 1429 l 2,56,57
 449 1435 449 1435 455 1432 c 0,58,59
 502 1412 502 1412 569 1376 c 1,60,-1
 660 1499 l 2,61,62
 665 1506 665 1506 672 1501 c 2,16,-1
EndSplineSet
EndChar

StartChar: divide
Encoding: 247 247 180
Width: 832
Flags: W
LayerCount: 2
Fore
SplineSet
782 720 m 2,0,1
 782 695 782 695 764 677 c 256,2,3
 746 659 746 659 720 659 c 2,4,-1
 111 659 l 2,5,6
 86 659 86 659 68 677 c 256,7,8
 50 695 50 695 50 720 c 2,9,-1
 50 722 l 2,10,11
 50 748 50 748 68 766 c 256,12,13
 86 784 86 784 111 784 c 2,14,-1
 720 784 l 2,15,16
 746 784 746 784 764 766 c 256,17,18
 782 748 782 748 782 722 c 2,19,-1
 782 720 l 2,0,1
416 306 m 0,20,21
 382 306 382 306 359 329 c 256,22,23
 336 352 336 352 336 386 c 0,24,25
 336 419 336 419 359 442 c 256,26,27
 382 465 382 465 416 465 c 0,28,29
 449 465 449 465 472 442 c 0,30,31
 496 418 496 418 496 386 c 0,32,33
 496 353 496 353 472 329 c 0,34,35
 449 306 449 306 416 306 c 0,20,21
416 979 m 0,36,37
 382 979 382 979 359 1002 c 256,38,39
 336 1025 336 1025 336 1059 c 0,40,41
 336 1092 336 1092 359 1115 c 256,42,43
 382 1138 382 1138 416 1138 c 0,44,45
 449 1138 449 1138 472 1115 c 0,46,47
 496 1091 496 1091 496 1059 c 0,48,49
 496 1026 496 1026 472 1002 c 0,50,51
 449 979 449 979 416 979 c 0,36,37
EndSplineSet
EndChar

StartChar: oslash
Encoding: 248 248 181
Width: 1172
Flags: W
LayerCount: 2
Fore
SplineSet
331 65 m 1,0,1
 263 109 263 109 221 151 c 0,2,3
 70 302 70 302 70 516 c 256,4,5
 70 730 70 730 221 881 c 256,6,7
 372 1032 372 1032 586 1032 c 0,8,9
 665 1032 665 1032 761 1004 c 1,10,-1
 864 1232 l 1,11,-1
 968 1232 l 1,12,-1
 846 964 l 1,13,14
 911 921 911 921 951 881 c 0,15,16
 1102 730 1102 730 1102 516 c 256,17,18
 1102 302 1102 302 951 151 c 256,19,20
 800 0 800 0 586 0 c 0,21,22
 510 0 510 0 418 26 c 1,23,-1
 311 -210 l 1,24,-1
 206 -210 l 1,25,-1
 331 65 l 1,0,1
793 847 m 1,26,-1
 469 137 l 1,27,28
 545 122 545 122 586 122 c 0,29,30
 749 122 749 122 862 237 c 0,31,32
 977 352 977 352 977 513 c 0,33,34
 977 675 977 675 863 790 c 0,35,36
 844 810 844 810 793 847 c 1,26,-1
382 176 m 1,37,-1
 708 889 l 1,38,39
 630 905 630 905 586 905 c 0,40,41
 424 905 424 905 309 790 c 0,42,43
 195 675 195 675 195 513 c 0,44,45
 195 352 195 352 309 237 c 0,46,47
 329 216 329 216 382 176 c 1,37,-1
EndSplineSet
EndChar

StartChar: thorn
Encoding: 254 254 187
Width: 1202
Flags: W
LayerCount: 2
Fore
SplineSet
225 859 m 1,0,1
 418 1032 418 1032 616 1032 c 0,2,3
 830 1032 830 1032 981 881 c 256,4,5
 1132 730 1132 730 1132 516 c 256,6,7
 1132 302 1132 302 981 151 c 256,8,9
 830 0 830 0 616 0 c 0,10,11
 420 0 420 0 225 174 c 1,12,-1
 225 -350 l 2,13,14
 225 -375 225 -375 207 -393 c 256,15,16
 189 -411 189 -411 164 -411 c 2,17,-1
 161 -411 l 2,18,19
 136 -411 136 -411 118 -393 c 256,20,21
 100 -375 100 -375 100 -350 c 2,22,-1
 100 1381 l 2,23,24
 100 1407 100 1407 118 1425 c 0,25,26
 136 1442 136 1442 161 1442 c 2,27,-1
 164 1442 l 2,28,29
 189 1442 189 1442 207 1425 c 0,30,31
 225 1407 225 1407 225 1381 c 2,32,-1
 225 859 l 1,0,1
225 518 m 0,33,34
 225 357 225 357 339 242 c 0,35,36
 454 127 454 127 616 127 c 0,37,38
 779 127 779 127 892 242 c 0,39,40
 1007 357 1007 357 1007 518 c 0,41,42
 1007 680 1007 680 892 795 c 0,43,44
 778 909 778 909 616 909 c 256,45,46
 454 909 454 909 339 795 c 0,47,48
 225 680 225 680 225 518 c 0,33,34
EndSplineSet
EndChar

StartChar: dotlessi
Encoding: 305 305 189
Width: 400
Flags: W
LayerCount: 2
Fore
SplineSet
201 1032 m 2,0,1
 226 1032 226 1032 244 1014 c 256,2,3
 262 996 262 996 262 970 c 2,4,-1
 262 61 l 2,5,6
 262 36 262 36 244 18 c 256,7,8
 226 0 226 0 201 0 c 2,9,-1
 199 0 l 2,10,11
 173 0 173 0 155 18 c 256,12,13
 137 36 137 36 137 61 c 2,14,-1
 137 970 l 2,15,16
 137 996 137 996 155 1014 c 256,17,18
 173 1032 173 1032 199 1032 c 2,19,-1
 201 1032 l 2,0,1
EndSplineSet
EndChar

StartChar: circumflex
Encoding: 710 710 190
Width: 822
Flags: W
LayerCount: 2
Fore
SplineSet
499 1413 m 2,0,1
 503 1413 503 1413 504 1411 c 2,2,-1
 680 1160 l 2,3,4
 684 1154 684 1154 682 1150 c 256,5,6
 680 1146 680 1146 675 1146 c 2,7,-1
 584 1146 l 2,8,9
 575 1146 575 1146 568 1153 c 2,10,-1
 411 1318 l 1,11,-1
 253 1153 l 2,12,13
 246 1146 246 1146 237 1146 c 2,14,-1
 146 1146 l 2,15,16
 141 1146 141 1146 139 1150 c 256,17,18
 137 1154 137 1154 141 1160 c 2,19,-1
 317 1411 l 2,20,21
 318 1413 318 1413 322 1413 c 2,22,-1
 499 1413 l 2,0,1
EndSplineSet
EndChar

StartChar: caron
Encoding: 711 711 191
Width: 822
Flags: W
LayerCount: 2
Fore
SplineSet
322 1146 m 2,0,1
 318 1146 318 1146 317 1148 c 2,2,-1
 141 1399 l 2,3,4
 137 1405 137 1405 139 1409 c 256,5,6
 141 1413 141 1413 146 1413 c 2,7,-1
 237 1413 l 2,8,9
 246 1413 246 1413 253 1406 c 2,10,-1
 411 1241 l 1,11,-1
 568 1406 l 2,12,13
 575 1413 575 1413 584 1413 c 2,14,-1
 675 1413 l 2,15,16
 680 1413 680 1413 682 1409 c 256,17,18
 684 1405 684 1405 680 1399 c 2,19,-1
 504 1148 l 2,20,21
 503 1146 503 1146 499 1146 c 2,22,-1
 322 1146 l 2,0,1
EndSplineSet
EndChar

StartChar: uni02C9
Encoding: 713 713 192
Width: 532
Flags: W
LayerCount: 2
Fore
SplineSet
482 1239 m 2,0,1
 482 1216 482 1216 464 1200 c 0,2,3
 446 1183 446 1183 420 1183 c 2,4,-1
 111 1183 l 2,5,6
 86 1183 86 1183 68 1200 c 0,7,8
 50 1216 50 1216 50 1239 c 2,9,-1
 50 1241 l 2,10,11
 50 1265 50 1265 68 1281 c 0,12,13
 86 1298 86 1298 111 1298 c 2,14,-1
 420 1298 l 2,15,16
 446 1298 446 1298 464 1281 c 0,17,18
 482 1265 482 1265 482 1241 c 2,19,-1
 482 1239 l 2,0,1
EndSplineSet
EndChar

StartChar: breve
Encoding: 728 728 193
Width: 688
Flags: W
LayerCount: 2
Fore
SplineSet
591 1415 m 2,0,1
 613 1415 613 1415 626 1397 c 0,2,3
 638 1380 638 1380 632 1359 c 0,4,5
 599 1263 599 1263 517 1209 c 0,6,7
 440 1159 440 1159 344 1159 c 256,8,9
 248 1159 248 1159 171 1209 c 0,10,11
 90 1263 90 1263 57 1359 c 0,12,13
 50 1380 50 1380 62 1397 c 0,14,15
 76 1415 76 1415 98 1415 c 2,16,-1
 118 1415 l 2,17,18
 146 1415 146 1415 157 1389 c 0,19,20
 207 1265 207 1265 344 1265 c 0,21,22
 483 1265 483 1265 532 1388 c 0,23,24
 543 1415 543 1415 572 1415 c 2,25,-1
 591 1415 l 2,0,1
EndSplineSet
EndChar

StartChar: dotaccent
Encoding: 729 729 194
Width: 360
Flags: W
LayerCount: 2
Fore
SplineSet
180 1183 m 0,0,1
 146 1183 146 1183 123 1206 c 256,2,3
 100 1229 100 1229 100 1263 c 0,4,5
 100 1296 100 1296 123 1319 c 256,6,7
 146 1342 146 1342 180 1342 c 0,8,9
 213 1342 213 1342 236 1319 c 0,10,11
 260 1295 260 1295 260 1263 c 0,12,13
 260 1230 260 1230 236 1206 c 0,14,15
 213 1183 213 1183 180 1183 c 0,0,1
EndSplineSet
EndChar

StartChar: ring
Encoding: 730 730 195
Width: 588
Flags: W
LayerCount: 2
Fore
SplineSet
190 1273 m 0,0,1
 190 1231 190 1231 220 1203 c 0,2,3
 248 1174 248 1174 288 1174 c 2,4,-1
 299 1174 l 2,5,6
 340 1174 340 1174 368 1203 c 0,7,8
 398 1231 398 1231 398 1273 c 0,9,10
 398 1313 398 1313 368 1343 c 0,11,12
 340 1371 340 1371 299 1371 c 2,13,-1
 288 1371 l 2,14,15
 248 1371 248 1371 220 1343 c 0,16,17
 190 1313 190 1313 190 1273 c 0,0,1
100 1273 m 0,18,19
 100 1348 100 1348 153 1401 c 256,20,21
 206 1454 206 1454 282 1454 c 2,22,-1
 306 1454 l 2,23,24
 381 1454 381 1454 435 1401 c 0,25,26
 488 1348 488 1348 488 1273 c 0,27,28
 488 1197 488 1197 435 1144 c 0,29,30
 381 1091 381 1091 306 1091 c 2,31,-1
 282 1091 l 2,32,33
 206 1091 206 1091 153 1144 c 256,34,35
 100 1197 100 1197 100 1273 c 0,18,19
EndSplineSet
EndChar

StartChar: ogonek
Encoding: 731 731 196
Width: 463
Flags: W
LayerCount: 2
Fore
SplineSet
373 -354 m 1,0,1
 348 -366 348 -366 261 -366 c 0,2,3
 195 -366 195 -366 143 -329 c 1,4,5
 100 -290 100 -290 100 -223 c 0,6,7
 100 -162 100 -162 143 -76 c 0,8,9
 160 -48 160 -48 183 -18 c 0,10,11
 189 -8 189 -8 198 0 c 1,12,-1
 286 0 l 1,13,14
 266 -24 266 -24 254 -42 c 0,15,16
 188 -157 188 -157 219 -229 c 1,17,18
 260 -297 260 -297 373 -284 c 1,19,-1
 373 -354 l 1,0,1
EndSplineSet
EndChar

StartChar: tilde
Encoding: 732 732 197
Width: 781
Flags: W
LayerCount: 2
Fore
SplineSet
142 1291 m 0,1,2
 190 1330 190 1330 261 1330 c 0,3,4
 323 1330 323 1330 410 1289 c 0,5,6
 462 1265 462 1265 509 1261 c 1,7,8
 570 1263 570 1263 583 1319 c 0,9,10
 588 1338 588 1338 610 1338 c 2,11,-1
 644 1338 l 2,12,13
 657 1338 657 1338 665 1329 c 256,14,15
 673 1320 673 1320 671 1308 c 0,16,17
 648 1165 648 1165 506 1165 c 0,18,19
 445 1165 445 1165 361 1210 c 0,20,21
 314 1233 314 1233 267 1233 c 0,22,23
 202 1233 202 1233 188 1180 c 0,24,25
 184 1160 184 1160 162 1160 c 2,26,-1
 115 1160 l 2,27,28
 103 1160 103 1160 93 1169 c 0,29,30
 86 1179 86 1179 88 1190 c 0,31,0
 99 1253 99 1253 142 1291 c 0,1,2
EndSplineSet
EndChar

StartChar: endash
Encoding: 8211 8211 199
Width: 1077
Flags: W
LayerCount: 2
Fore
SplineSet
100 569 m 1,0,-1
 977 569 l 1,1,-1
 977 460 l 1,2,-1
 100 460 l 1,3,-1
 100 569 l 1,0,-1
EndSplineSet
EndChar

StartChar: emdash
Encoding: 8212 8212 200
Width: 1477
Flags: W
LayerCount: 2
Fore
SplineSet
100 569 m 1,0,-1
 1377 569 l 1,1,-1
 1377 460 l 1,2,-1
 100 460 l 1,3,-1
 100 569 l 1,0,-1
EndSplineSet
EndChar

StartChar: quoteleft
Encoding: 8216 8216 201
Width: 335
Flags: W
LayerCount: 2
Fore
SplineSet
208 1441 m 1,0,1
 165 1382 165 1382 167 1282 c 1,2,-1
 174 1282 l 2,3,4
 199 1282 199 1282 217 1264 c 256,5,6
 235 1246 235 1246 235 1221 c 2,7,-1
 235 1155 l 2,8,9
 235 1129 235 1129 217 1111 c 0,10,11
 199 1094 199 1094 174 1094 c 2,12,-1
 162 1094 l 2,13,14
 136 1094 136 1094 118 1111 c 0,15,16
 100 1129 100 1129 100 1155 c 2,17,-1
 100 1312 l 1,18,19
 110 1405 110 1405 148 1441 c 1,20,-1
 208 1441 l 1,0,1
EndSplineSet
EndChar

StartChar: quoteright
Encoding: 8217 8217 202
Width: 335
Flags: W
LayerCount: 2
Fore
SplineSet
127 1094 m 1,0,1
 170 1153 170 1153 168 1253 c 1,2,-1
 162 1253 l 2,3,4
 136 1253 136 1253 118 1271 c 256,5,6
 100 1289 100 1289 100 1314 c 2,7,-1
 100 1380 l 2,8,9
 100 1406 100 1406 118 1424 c 0,10,11
 136 1441 136 1441 161 1441 c 2,12,-1
 173 1441 l 2,13,14
 199 1441 199 1441 217 1424 c 0,15,16
 235 1406 235 1406 235 1380 c 2,17,-1
 235 1223 l 1,18,19
 225 1130 225 1130 187 1094 c 1,20,-1
 127 1094 l 1,0,1
EndSplineSet
EndChar

StartChar: dagger
Encoding: 8224 8224 207
Width: 1020
Flags: W
LayerCount: 2
Fore
SplineSet
560 952 m 1,0,-1
 560 -278 l 1,1,-1
 460 -278 l 1,2,-1
 460 952 l 1,3,-1
 10 952 l 1,4,-1
 10 1052 l 1,5,-1
 460 1052 l 1,6,-1
 460 1502 l 1,7,-1
 560 1502 l 1,8,-1
 560 1052 l 1,9,-1
 1010 1052 l 1,10,-1
 1010 952 l 1,11,-1
 560 952 l 1,0,-1
EndSplineSet
EndChar

StartChar: daggerdbl
Encoding: 8225 8225 208
Width: 1020
Flags: W
LayerCount: 2
Fore
SplineSet
460 1042 m 1,0,-1
 460 1502 l 1,1,-1
 560 1502 l 1,2,-1
 560 1042 l 1,3,-1
 1010 1042 l 1,4,-1
 1010 942 l 1,5,-1
 560 942 l 1,6,-1
 560 282 l 1,7,-1
 1010 282 l 1,8,-1
 1010 182 l 1,9,-1
 560 182 l 1,10,-1
 560 -278 l 1,11,-1
 460 -278 l 1,12,-1
 460 182 l 1,13,-1
 10 182 l 1,14,-1
 10 282 l 1,15,-1
 460 282 l 1,16,-1
 460 942 l 1,17,-1
 10 942 l 1,18,-1
 10 1042 l 1,19,-1
 460 1042 l 1,0,-1
EndSplineSet
EndChar

StartChar: bullet
Encoding: 8226 8226 209
Width: 773
Flags: W
LayerCount: 2
Fore
SplineSet
589.5 876.5 m 128,-1,1
 673 793 673 793 673 674 c 0,2,3
 673 554 673 554 589.5 470.5 c 128,-1,4
 506 387 506 387 386 387 c 0,5,6
 267 387 267 387 183.5 470.5 c 128,-1,7
 100 554 100 554 100 674 c 0,8,9
 100 793 100 793 183.5 876.5 c 128,-1,10
 267 960 267 960 386 960 c 0,11,0
 506 960 506 960 589.5 876.5 c 128,-1,1
EndSplineSet
EndChar

StartChar: ellipsis
Encoding: 8230 8230 210
Width: 1988
Flags: W
LayerCount: 2
Fore
SplineSet
180 0 m 0,0,1
 146 0 146 0 123 23 c 256,2,3
 100 46 100 46 100 80 c 0,4,5
 100 113 100 113 123 136 c 256,6,7
 146 159 146 159 180 159 c 0,8,9
 213 159 213 159 236 136 c 0,10,11
 260 112 260 112 260 80 c 0,12,13
 260 47 260 47 236 23 c 0,14,15
 213 0 213 0 180 0 c 0,0,1
863 0 m 0,16,17
 829 0 829 0 806 23 c 256,18,19
 783 46 783 46 783 80 c 0,20,21
 783 113 783 113 806 136 c 256,22,23
 829 159 829 159 863 159 c 0,24,25
 896 159 896 159 919 136 c 0,26,27
 943 112 943 112 943 80 c 0,28,29
 943 47 943 47 919 23 c 0,30,31
 896 0 896 0 863 0 c 0,16,17
1546 0 m 0,32,33
 1512 0 1512 0 1489 23 c 256,34,35
 1466 46 1466 46 1466 80 c 0,36,37
 1466 113 1466 113 1489 136 c 256,38,39
 1512 159 1512 159 1546 159 c 0,40,41
 1579 159 1579 159 1602 136 c 0,42,43
 1626 112 1626 112 1626 80 c 0,44,45
 1626 47 1626 47 1602 23 c 0,46,47
 1579 0 1579 0 1546 0 c 0,32,33
EndSplineSet
EndChar

StartChar: guilsinglleft
Encoding: 8249 8249 211
Width: 618
Flags: W
LayerCount: 2
Fore
SplineSet
402 1031 m 1,0,-1
 538 1031 l 1,1,-1
 147 690 l 1,2,-1
 538 349 l 1,3,-1
 402 349 l 1,4,-1
 38 671 l 2,5,6
 30 678 30 678 30 690 c 0,7,8
 30 703 30 703 38 710 c 2,9,-1
 402 1031 l 1,0,-1
EndSplineSet
EndChar

StartChar: guilsinglright
Encoding: 8250 8250 212
Width: 618
Flags: W
LayerCount: 2
Fore
SplineSet
580 710 m 2,0,1
 588 703 588 703 588 690 c 0,2,3
 588 678 588 678 580 671 c 2,4,-1
 216 349 l 1,5,-1
 80 349 l 1,6,-1
 471 690 l 1,7,-1
 80 1031 l 1,8,-1
 216 1031 l 1,9,-1
 580 710 l 2,0,1
EndSplineSet
EndChar

StartChar: fraction
Encoding: 8260 8260 213
AltUni2: 002215.ffffffff.0
Width: 376
Flags: W
LayerCount: 2
Fore
SplineSet
464 1512 m 1,0,-1
 -20 -124 l 1,1,-1
 -99 -124 l 1,2,-1
 386 1512 l 1,3,-1
 464 1512 l 1,0,-1
EndSplineSet
EndChar

StartChar: franc
Encoding: 8355 8355 214
Width: 910
Flags: W
LayerCount: 2
Fore
SplineSet
454 408 m 2,0,1
 476 407 476 407 493 391 c 0,2,3
 511 373 511 373 511 347 c 2,4,-1
 511 345 l 2,5,6
 511 319 511 319 493 301 c 0,7,8
 476 285 476 285 424 283 c 1,9,-1
 424 283 l 1,10,-1
 312 283 l 1,11,-1
 312 61 l 2,12,13
 312 36 312 36 294 18 c 256,14,15
 276 0 276 0 251 0 c 2,16,-1
 248 0 l 2,17,18
 223 0 223 0 205 18 c 256,19,20
 187 36 187 36 187 61 c 2,21,-1
 187 283 l 1,22,-1
 97 283 l 1,23,-1
 97 283 l 1,24,25
 45 285 45 285 28 301 c 0,26,27
 10 319 10 319 10 345 c 2,28,-1
 10 347 l 2,29,30
 10 373 10 373 28 391 c 0,31,32
 45 407 45 407 67 408 c 2,33,-1
 187 408 l 1,34,-1
 187 1137 l 2,35,36
 187 1264 187 1264 276 1353 c 256,37,38
 365 1442 365 1442 492 1442 c 2,39,-1
 799 1442 l 2,40,41
 824 1442 824 1442 842 1425 c 0,42,43
 860 1407 860 1407 860 1381 c 2,44,-1
 860 1379 l 2,45,46
 860 1353 860 1353 842 1335 c 0,47,48
 824 1318 824 1318 799 1318 c 2,49,-1
 492 1318 l 2,50,51
 418 1318 418 1318 365 1265 c 256,52,53
 312 1212 312 1212 312 1137 c 2,54,-1
 312 783 l 1,55,-1
 789 783 l 2,56,57
 814 783 814 783 832 766 c 0,58,59
 850 748 850 748 850 722 c 2,60,-1
 850 720 l 2,61,62
 850 695 850 695 832 677 c 256,63,64
 814 659 814 659 789 659 c 2,65,-1
 312 659 l 1,66,-1
 312 408 l 1,67,-1
 454 408 l 2,0,1
EndSplineSet
EndChar

StartChar: peseta
Encoding: 8359 8359 216
Width: 2353
Flags: W
LayerCount: 2
Fore
SplineSet
894 1062 m 128,-1,1
 894 1223 894 1223 825 1301 c 256,2,3
 756 1379 756 1379 657 1382 c 2,4,-1
 274 1382 l 1,5,-1
 274 742 l 1,6,-1
 657 742 l 2,7,8
 756 745 756 745 825 823 c 256,9,0
 894 901 894 901 894 1062 c 128,-1,1
1525 -13 m 2,10,11
 1317 -15 1317 -15 1262 21 c 0,12,13
 1168 82 1168 82 1167 328 c 2,14,-1
 1167 939 l 1,15,-1
 986 939 l 1,16,17
 953 797 953 797 871 720 c 1,18,19
 791 630 791 630 624 630 c 2,20,-1
 274 630 l 1,21,-1
 274 0 l 1,22,-1
 160 0 l 1,23,-1
 160 1503 l 1,24,-1
 626 1503 l 1,25,-1
 626 1502 l 1,26,27
 796 1500 796 1500 896 1388 c 0,28,29
 993 1278 993 1278 996 1037 c 1,30,-1
 1187 1037 l 1,31,-1
 1187 1407 l 1,32,-1
 1300 1478 l 1,33,-1
 1300 1037 l 1,34,-1
 1734 1037 l 1,35,36
 1819 1065 1819 1065 1921 1062 c 0,37,38
 2239 1053 2239 1053 2283 826 c 1,39,-1
 2165 811 l 1,40,41
 2130 970 2130 970 1906 970 c 0,42,43
 1824 970 1824 970 1751 933 c 0,44,45
 1657 885 1657 885 1653 800 c 0,46,47
 1649 699 1649 699 1756 655 c 0,48,49
 1806 635 1806 635 1974 591 c 0,50,51
 2159 543 2159 543 2230 491 c 0,52,53
 2338 413 2338 413 2325 275 c 0,54,55
 2313 141 2313 141 2183 63 c 0,56,57
 2072 -4 2072 -4 1925 -13 c 1,58,-1
 1525 -13 l 2,10,11
1926 89 m 2,59,60
 2002 88 2002 88 2066 112 c 0,61,62
 2166 149 2166 149 2192 224 c 0,63,64
 2235 347 2235 347 2096 416 c 0,65,66
 2059 433 2059 433 1887 478 c 0,67,68
 1714 522 1714 522 1642 570 c 0,69,70
 1531 643 1531 643 1531 776 c 0,71,72
 1531 844 1531 844 1579 939 c 1,73,-1
 1300 939 l 1,74,-1
 1300 307 l 1,75,76
 1307 152 1307 152 1369 114 c 0,77,78
 1403 95 1403 95 1495 91 c 1,79,-1
 1495 89 l 1,80,-1
 1926 89 l 2,59,60
EndSplineSet
EndChar

StartChar: Euro
Encoding: 8364 8364 217
Width: 1316
Flags: W
LayerCount: 2
Fore
SplineSet
1171 1420 m 0,1,2
 1216 1408 1216 1408 1216 1361 c 2,3,-1
 1216 1358 l 2,4,5
 1216 1328 1216 1328 1193 1310 c 0,6,7
 1169 1292 1169 1292 1140 1299 c 0,8,9
 1067 1318 1067 1318 991 1318 c 0,10,11
 797 1318 797 1318 640 1204 c 0,12,13
 487 1093 487 1093 413 874 c 1,14,-1
 925 874 l 2,15,16
 937 874 937 874 945 866 c 256,17,18
 953 858 953 858 953 846 c 2,19,-1
 953 823 l 2,20,21
 953 811 953 811 944 803 c 0,22,23
 936 794 936 794 925 794 c 2,24,-1
 399 794 l 1,25,26
 394 744 394 744 394 721 c 0,27,28
 394 686 394 686 401 624 c 1,29,-1
 859 624 l 2,30,31
 871 624 871 624 880 615 c 0,32,33
 888 608 888 608 888 596 c 2,34,-1
 888 573 l 2,35,36
 888 561 888 561 880 553 c 0,37,38
 871 544 871 544 859 544 c 2,39,-1
 419 544 l 1,40,41
 501 335 501 335 651 230 c 0,42,43
 804 125 804 125 991 125 c 0,44,45
 1067 125 1067 125 1139 143 c 0,46,47
 1169 150 1169 150 1193 132 c 0,48,49
 1216 114 1216 114 1216 84 c 2,50,-1
 1216 82 l 2,51,52
 1216 34 1216 34 1171 22 c 0,53,54
 1082 0 1082 0 991 0 c 0,55,56
 746 0 746 0 553 148 c 0,57,58
 362 294 362 294 291 544 c 1,59,-1
 128 544 l 2,60,61
 116 544 116 544 109 552 c 0,62,63
 100 561 100 561 100 573 c 2,64,-1
 100 596 l 2,65,66
 100 608 100 608 108 616 c 256,67,68
 116 624 116 624 128 624 c 2,69,-1
 276 624 l 1,70,71
 270 689 270 689 270 721 c 0,72,73
 270 741 270 741 272 794 c 1,74,-1
 128 794 l 2,75,76
 116 794 116 794 109 802 c 0,77,78
 100 811 100 811 100 823 c 2,79,-1
 100 846 l 2,80,81
 100 858 100 858 108 866 c 256,82,83
 116 874 116 874 128 874 c 2,84,-1
 285 874 l 1,85,86
 351 1135 351 1135 544 1287 c 0,87,88
 740 1442 740 1442 991 1442 c 0,89,0
 1082 1442 1082 1442 1171 1420 c 0,1,2
EndSplineSet
EndChar

StartChar: uni2116
Encoding: 8470 8470 218
Width: 2169
Flags: W
LayerCount: 2
Fore
SplineSet
306 1503 m 1,0,1
 835 613 835 613 1070 164 c 1,2,-1
 1070 1503 l 1,3,-1
 1203 1503 l 1,4,-1
 1203 0 l 1,5,-1
 1057 0 l 1,6,7
 529 890 529 890 293 1353 c 1,8,-1
 293 0 l 1,9,-1
 160 0 l 1,10,-1
 160 1503 l 1,11,-1
 306 1503 l 1,0,1
1426 1 m 1,12,-1
 1426 116 l 1,13,-1
 2092 116 l 1,14,-1
 2092 1 l 1,15,-1
 1426 1 l 1,12,-1
1419 748 m 0,16,17
 1419 941 1419 941 1530 1052 c 0,18,19
 1629 1151 1629 1151 1772 1151 c 256,20,21
 1915 1151 1915 1151 2014 1052 c 0,22,23
 2124 941 2124 941 2124 748 c 0,24,25
 2124 556 2124 556 2014 446 c 0,26,27
 1915 347 1915 347 1772 347 c 256,28,29
 1629 347 1629 347 1530 446 c 0,30,31
 1419 557 1419 557 1419 748 c 0,16,17
1541 749 m 0,32,33
 1541 620 1541 620 1612 544 c 0,34,35
 1677 473 1677 473 1771 473 c 256,36,37
 1865 473 1865 473 1930 544 c 0,38,39
 2001 620 2001 620 2001 749 c 0,40,41
 2001 877 2001 877 1930 954 c 0,42,43
 1865 1025 1865 1025 1771 1025 c 256,44,45
 1677 1025 1677 1025 1612 954 c 0,46,47
 1541 877 1541 877 1541 749 c 0,32,33
EndSplineSet
EndChar

StartChar: partialdiff
Encoding: 8706 8706 220
Width: 1005
Flags: W
LayerCount: 2
Fore
SplineSet
438 717 m 0,1,2
 273 624 273 624 253 444 c 0,3,4
 235 283 235 283 315 239 c 0,5,6
 394 195 394 195 515 267 c 0,7,8
 656 351 656 351 717 519 c 0,9,10
 761 638 761 638 774 800 c 0,11,12
 774 802 774 802 774 803 c 1,13,0
 569 792 569 792 438 717 c 0,1,2
904 868 m 2,14,15
 904 864 904 864 904 861 c 0,16,17
 902 824 902 824 900 791 c 0,18,19
 886 611 886 611 836 475 c 0,20,21
 759 265 759 265 580 159 c 0,22,23
 397 50 397 50 254 128 c 0,24,25
 100 212 100 212 127 458 c 0,26,27
 153 692 153 692 356 815 c 0,28,29
 523 918 523 918 779 930 c 1,30,31
 779 951 779 951 779 1011 c 0,32,33
 779 1113 779 1113 753 1181 c 0,34,35
 716 1281 716 1281 632 1281 c 0,36,37
 574 1281 574 1281 512 1218 c 0,38,39
 461 1167 461 1167 431 1103 c 0,40,41
 419 1079 419 1079 395 1070 c 0,42,43
 370 1061 370 1061 346 1072 c 0,44,45
 323 1083 323 1083 314 1108 c 256,46,47
 305 1133 305 1133 316 1156 c 0,48,49
 345 1218 345 1218 395 1278 c 0,50,51
 504 1407 504 1407 632 1407 c 0,52,53
 714 1407 714 1407 776 1361 c 0,54,55
 905 1264 905 1264 905 1011 c 0,56,57
 905 914 905 914 904 871 c 2,58,-1
 904 868 l 2,14,15
EndSplineSet
EndChar

StartChar: Delta
Encoding: 8710 8710 221
Width: 1269
Flags: W
LayerCount: 2
Fore
SplineSet
596 1325 m 2,0,1
 607 1350 607 1350 634 1350 c 0,2,3
 662 1350 662 1350 673 1325 c 2,4,-1
 1159 239 l 2,5,6
 1169 218 1169 218 1156 199 c 0,7,8
 1144 180 1144 180 1121 180 c 2,9,-1
 148 180 l 2,10,11
 125 180 125 180 112 199 c 0,12,13
 100 218 100 218 109 239 c 2,14,-1
 596 1325 l 2,0,1
991 309 m 1,15,-1
 634 1106 l 1,16,-1
 277 309 l 1,17,-1
 991 309 l 1,15,-1
EndSplineSet
EndChar

StartChar: product
Encoding: 8719 8719 222
Width: 1345
Flags: W
LayerCount: 2
Fore
SplineSet
1118 1377 m 1,0,-1
 227 1377 l 1,1,-1
 227 -123 l 2,2,3
 227 -149 227 -149 208 -167 c 0,4,5
 189 -186 189 -186 163 -186 c 256,6,7
 137 -186 137 -186 119 -167 c 0,8,9
 100 -149 100 -149 100 -123 c 2,10,-1
 100 1440 l 2,11,12
 100 1466 100 1466 119 1485 c 0,13,14
 137 1504 137 1504 163 1504 c 2,15,-1
 1181 1504 l 2,16,17
 1208 1504 1208 1504 1226 1485 c 0,18,19
 1245 1466 1245 1466 1245 1440 c 2,20,-1
 1245 -123 l 2,21,22
 1245 -149 1245 -149 1226 -167 c 0,23,24
 1208 -186 1208 -186 1181 -186 c 0,25,26
 1155 -186 1155 -186 1137 -167 c 0,27,28
 1118 -149 1118 -149 1118 -123 c 2,29,-1
 1118 1377 l 1,0,-1
EndSplineSet
EndChar

StartChar: summation
Encoding: 8721 8721 223
Width: 1369
Flags: W
LayerCount: 2
Fore
SplineSet
305 1375 m 1,0,-1
 818 725 l 2,1,2
 849 686 849 686 818 647 c 2,3,-1
 305 -3 l 1,4,-1
 1206 -3 l 2,5,6
 1232 -3 1232 -3 1251 -22 c 0,7,8
 1269 -41 1269 -41 1269 -67 c 256,9,10
 1269 -93 1269 -93 1251 -111 c 0,11,12
 1232 -130 1232 -130 1206 -130 c 2,13,-1
 174 -130 l 2,14,15
 135 -130 135 -130 117 -94 c 0,16,17
 100 -59 100 -59 125 -27 c 2,18,-1
 688 686 l 1,19,-1
 125 1399 l 2,20,21
 100 1430 100 1430 117 1466 c 0,22,23
 135 1502 135 1502 174 1502 c 2,24,-1
 1206 1502 l 2,25,26
 1232 1502 1232 1502 1251 1483 c 0,27,28
 1269 1464 1269 1464 1269 1438 c 256,29,30
 1269 1412 1269 1412 1251 1394 c 0,31,32
 1232 1375 1232 1375 1206 1375 c 2,33,-1
 305 1375 l 1,0,-1
EndSplineSet
EndChar

StartChar: minus
Encoding: 8722 8722 224
Width: 832
Flags: W
LayerCount: 2
Fore
SplineSet
782 720 m 2,0,1
 782 695 782 695 764 677 c 256,2,3
 746 659 746 659 720 659 c 2,4,-1
 111 659 l 2,5,6
 86 659 86 659 68 677 c 256,7,8
 50 695 50 695 50 720 c 2,9,-1
 50 722 l 2,10,11
 50 748 50 748 68 766 c 256,12,13
 86 784 86 784 111 784 c 2,14,-1
 720 784 l 2,15,16
 746 784 746 784 764 766 c 256,17,18
 782 748 782 748 782 722 c 2,19,-1
 782 720 l 2,0,1
EndSplineSet
Substitution2: "'sinf' Scientific Inferiors in Latin lookup 0 subtable" uni208B
EndChar

StartChar: radical
Encoding: 8730 8730 225
Width: 1161
Flags: W
LayerCount: 2
Fore
SplineSet
932 1571 m 2,0,1
 936 1596 936 1596 958 1612 c 0,2,3
 979 1627 979 1627 1005 1623 c 256,4,5
 1031 1619 1031 1619 1046 1598 c 0,6,7
 1061 1576 1061 1576 1057 1550 c 2,8,-1
 816 54 l 2,9,10
 809 9 809 9 763 2 c 256,11,12
 717 -5 717 -5 697 37 c 2,13,-1
 343 760 l 1,14,-1
 193 698 l 2,15,16
 168 688 168 688 144 698 c 256,17,18
 120 708 120 708 110 733 c 0,19,20
 100 757 100 757 110 781 c 256,21,22
 120 805 120 805 144 815 c 2,23,-1
 350 900 l 2,24,25
 373 910 373 910 396 901 c 0,26,27
 420 892 420 892 431 869 c 2,28,-1
 723 272 l 1,29,-1
 932 1571 l 2,0,1
EndSplineSet
EndChar

StartChar: infinity
Encoding: 8734 8734 226
Width: 1215
Flags: W
LayerCount: 2
Fore
SplineSet
862 1046 m 0,1,2
 1001 1046 1001 1046 1061 968 c 0,3,4
 1115 899 1115 899 1115 755 c 0,5,6
 1115 619 1115 619 1054 544 c 0,7,8
 987 464 987 464 855 464 c 0,9,10
 701 464 701 464 568 644 c 1,11,12
 457 513 457 513 315 513 c 0,13,14
 206 513 206 513 150 586 c 0,15,16
 100 651 100 651 100 762 c 0,17,18
 100 865 100 865 152 928 c 0,19,20
 208 996 208 996 310 1001 c 1,21,-1
 312 1001 l 2,22,23
 453 1004 453 1004 569 859 c 1,24,0
 705 1046 705 1046 862 1046 c 0,1,2
718 629 m 0,26,27
 782 569 782 569 855 569 c 0,28,29
 922 569 922 569 957 597 c 0,30,31
 1010 638 1010 638 1010 755 c 0,32,33
 1010 875 1010 875 970 911 c 0,34,35
 939 940 939 940 862 940 c 0,36,37
 810 940 810 940 766 914 c 0,38,39
 710 880 710 880 622 750 c 1,40,25
 683 663 683 663 718 629 c 0,26,27
314 896 m 1,42,43
 205 890 205 890 205 762 c 0,44,45
 205 618 205 618 315 618 c 0,46,47
 422 618 422 618 519 751 c 1,48,41
 415 897 415 897 314 896 c 1,42,43
EndSplineSet
EndChar

StartChar: integral
Encoding: 8747 8747 227
Width: 608
Flags: W
LayerCount: 2
Fore
SplineSet
432 1376 m 0,1,2
 398 1378 398 1378 394 1369 c 0,3,4
 384 1348 384 1348 377 1246 c 0,5,6
 371 1156 371 1156 368 1014 c 0,7,8
 367 964 367 964 367 629 c 256,9,10
 367 294 367 294 366 243 c 0,11,12
 364 93 364 93 357 -1 c 0,13,14
 347 -129 347 -129 327 -168 c 0,15,16
 291 -237 291 -237 199 -243 c 0,17,18
 127 -248 127 -248 46 -215 c 0,19,20
 21 -205 21 -205 11 -181 c 256,21,22
 1 -157 1 -157 11 -132 c 0,23,24
 21 -108 21 -108 45 -98 c 256,25,26
 69 -88 69 -88 93 -97 c 0,27,28
 135 -114 135 -114 176 -117 c 0,29,30
 210 -119 210 -119 214 -110 c 0,31,32
 223 -89 223 -89 231 13 c 0,33,34
 237 103 237 103 240 245 c 0,35,36
 241 295 241 295 241 629 c 0,37,38
 241 965 241 965 242 1016 c 0,39,40
 244 1166 244 1166 251 1260 c 0,41,42
 261 1388 261 1388 281 1427 c 0,43,44
 317 1496 317 1496 409 1502 c 0,45,46
 481 1507 481 1507 562 1474 c 0,47,48
 586 1464 586 1464 597 1440 c 0,49,50
 607 1415 607 1415 597 1391 c 256,51,52
 587 1367 587 1367 563 1357 c 256,53,54
 539 1347 539 1347 515 1356 c 0,55,0
 473 1373 473 1373 432 1376 c 0,1,2
EndSplineSet
EndChar

StartChar: approxequal
Encoding: 8776 8776 228
Width: 1198
Flags: W
LayerCount: 2
Fore
SplineSet
408 967 m 0,1,2
 484 967 484 967 611 921 c 0,3,4
 780 860 780 860 814 860 c 0,5,6
 897 860 897 860 992 939 c 0,7,8
 1012 956 1012 956 1039 954 c 0,9,10
 1065 951 1065 951 1081 931 c 0,11,12
 1098 911 1098 911 1096 885 c 256,13,14
 1094 859 1094 859 1073 842 c 0,15,16
 943 733 943 733 814 733 c 0,17,18
 758 733 758 733 568 802 c 0,19,20
 462 840 462 840 408 840 c 0,21,22
 300 840 300 840 206 760 c 0,23,24
 186 743 186 743 160 745 c 256,25,26
 134 747 134 747 117 767 c 256,27,28
 100 787 100 787 102 813 c 256,29,30
 104 839 104 839 124 857 c 0,31,0
 252 967 252 967 408 967 c 0,1,2
408 695 m 0,33,34
 484 695 484 695 610 649 c 0,35,36
 780 588 780 588 814 588 c 0,37,38
 897 588 897 588 992 667 c 0,39,40
 1012 684 1012 684 1038 682 c 0,41,42
 1065 680 1065 680 1081 659 c 0,43,44
 1098 639 1098 639 1096 613 c 0,45,46
 1093 587 1093 587 1073 570 c 0,47,48
 943 461 943 461 814 461 c 0,49,50
 758 461 758 461 567 530 c 0,51,52
 462 568 462 568 408 568 c 0,53,54
 300 568 300 568 206 489 c 0,55,56
 186 472 186 472 160 474 c 256,57,58
 134 476 134 476 117 496 c 0,59,60
 100 515 100 515 102 542 c 0,61,62
 104 568 104 568 124 585 c 0,63,32
 252 695 252 695 408 695 c 0,33,34
EndSplineSet
EndChar

StartChar: lessequal
Encoding: 8804 8804 229
Width: 1102
Flags: W
LayerCount: 2
Fore
SplineSet
934 358 m 2,0,1
 960 358 960 358 978 339 c 0,2,3
 997 321 997 321 997 295 c 0,4,5
 997 268 997 268 978 250 c 0,6,7
 960 231 960 231 934 231 c 2,8,-1
 163 231 l 2,9,10
 137 231 137 231 119 250 c 0,11,12
 100 268 100 268 100 295 c 0,13,14
 100 321 100 321 119 339 c 0,15,16
 137 358 137 358 163 358 c 2,17,-1
 934 358 l 2,0,1
958 614 m 2,18,19
 982 604 982 604 992 580 c 0,20,21
 1002 555 1002 555 992 531 c 256,22,23
 982 507 982 507 958 497 c 0,24,25
 933 487 933 487 909 497 c 2,26,-1
 139 821 l 2,27,28
 100 838 100 838 100 880 c 256,29,30
 100 922 100 922 139 938 c 2,31,-1
 909 1262 l 2,32,33
 933 1272 933 1272 958 1262 c 0,34,35
 982 1252 982 1252 992 1228 c 256,36,37
 1002 1204 1002 1204 992 1179 c 0,38,39
 982 1155 982 1155 958 1145 c 2,40,-1
 327 880 l 1,41,-1
 958 614 l 2,18,19
EndSplineSet
EndChar

StartChar: greaterequal
Encoding: 8805 8805 230
Width: 1102
Flags: W
LayerCount: 2
Fore
SplineSet
934 358 m 2,0,1
 960 358 960 358 979 339 c 0,2,3
 997 321 997 321 997 295 c 0,4,5
 997 268 997 268 979 250 c 0,6,7
 960 231 960 231 934 231 c 2,8,-1
 163 231 l 2,9,10
 137 231 137 231 119 250 c 0,11,12
 100 268 100 268 100 295 c 0,13,14
 100 321 100 321 119 339 c 0,15,16
 137 358 137 358 163 358 c 2,17,-1
 934 358 l 2,0,1
770 880 m 1,18,-1
 139 1145 l 2,19,20
 115 1155 115 1155 105 1179 c 0,21,22
 95 1204 95 1204 105 1228 c 256,23,24
 115 1252 115 1252 140 1262 c 0,25,26
 164 1272 164 1272 188 1262 c 2,27,-1
 958 938 l 2,28,29
 997 922 997 922 997 880 c 256,30,31
 997 838 997 838 958 821 c 2,32,-1
 188 497 l 2,33,34
 164 487 164 487 140 497 c 0,35,36
 115 507 115 507 105 531 c 256,37,38
 95 555 95 555 105 580 c 0,39,40
 115 604 115 604 139 614 c 2,41,-1
 770 880 l 1,18,-1
EndSplineSet
EndChar

StartChar: uni2070
Encoding: 8304 8304 233
Width: 732
Flags: W
LayerCount: 2
Fore
SplineSet
597 1356 m 0,1,2
 692 1268 692 1268 692 1149 c 2,3,-1
 692 856 l 2,4,5
 692 736 692 736 597 648 c 0,6,7
 502 561 502 561 366 561 c 256,8,9
 230 561 230 561 135 648 c 0,10,11
 40 736 40 736 40 856 c 2,12,-1
 40 1149 l 2,13,14
 40 1268 40 1268 135 1356 c 0,15,16
 230 1443 230 1443 366 1443 c 256,17,0
 502 1443 502 1443 597 1356 c 0,1,2
217 1291 m 0,19,20
 152 1231 152 1231 152 1145 c 2,21,-1
 152 860 l 2,22,23
 152 774 152 774 217 713 c 0,24,25
 279 656 279 656 366 656 c 0,26,27
 452 656 452 656 516 715 c 256,28,29
 580 774 580 774 580 860 c 2,30,-1
 580 1145 l 2,31,32
 580 1231 580 1231 516 1289 c 0,33,34
 452 1349 452 1349 366 1349 c 0,35,18
 279 1349 279 1349 217 1291 c 0,19,20
EndSplineSet
EndChar

StartChar: uni00B9
Encoding: 185 185 234
Width: 377
Flags: W
LayerCount: 2
Fore
SplineSet
337 605 m 2,0,1
 337 589 337 589 322 574 c 0,2,3
 307 561 307 561 282 561 c 2,4,-1
 280 561 l 2,5,6
 256 561 256 561 241 574 c 0,7,8
 225 589 225 589 225 605 c 2,9,-1
 225 1352 l 1,10,-1
 95 1352 l 2,11,12
 71 1352 71 1352 54 1367 c 0,13,14
 40 1379 40 1379 40 1396 c 2,15,-1
 40 1397 l 2,16,17
 40 1414 40 1414 54 1427 c 0,18,19
 71 1442 71 1442 95 1442 c 2,20,-1
 282 1442 l 2,21,22
 307 1442 307 1442 324 1427 c 0,23,24
 337 1414 337 1414 337 1397 c 2,25,-1
 337 605 l 2,0,1
EndSplineSet
EndChar

StartChar: uni00B2
Encoding: 178 178 235
Width: 699
Flags: W
LayerCount: 2
Fore
SplineSet
389 1442 m 2,0,1
 500 1442 500 1442 576 1373 c 0,2,3
 652 1302 652 1302 652 1206 c 0,4,5
 652 1123 652 1123 578 1054 c 0,6,7
 531 1009 531 1009 409 939 c 0,8,9
 283 867 283 867 238 826 c 0,10,11
 157 752 157 752 157 652 c 1,12,-1
 603 652 l 2,13,14
 628 652 628 652 644 636 c 0,15,16
 659 623 659 623 659 607 c 2,17,-1
 659 605 l 2,18,19
 659 589 659 589 645 576 c 0,20,21
 628 561 628 561 603 561 c 2,22,-1
 95 561 l 2,23,24
 71 561 71 561 54 576 c 0,25,26
 40 589 40 589 40 605 c 2,27,-1
 40 662 l 2,28,29
 40 760 40 760 115 842 c 0,30,31
 169 899 169 899 285 968 c 0,32,33
 431 1055 431 1055 458 1074 c 0,34,35
 540 1137 540 1137 540 1206 c 0,36,37
 540 1268 540 1268 493 1311 c 0,38,39
 450 1352 450 1352 389 1352 c 2,40,-1
 128 1352 l 2,41,42
 102 1352 102 1352 86 1366 c 0,43,44
 72 1379 72 1379 72 1396 c 2,45,-1
 72 1397 l 2,46,47
 72 1414 72 1414 86 1427 c 0,48,49
 103 1442 103 1442 128 1442 c 2,50,-1
 389 1442 l 2,0,1
EndSplineSet
EndChar

StartChar: uni00B3
Encoding: 179 179 236
Width: 595
Flags: W
LayerCount: 2
Fore
SplineSet
277 1442 m 2,0,1
 387 1442 387 1442 466 1371 c 0,2,3
 540 1302 540 1302 540 1206 c 0,4,5
 540 1098 540 1098 436 1017 c 1,6,7
 555 932 555 932 555 811 c 0,8,9
 555 709 555 709 474 634 c 0,10,11
 394 561 394 561 277 561 c 2,12,-1
 95 561 l 2,13,14
 71 561 71 561 54 576 c 0,15,16
 40 589 40 589 40 605 c 2,17,-1
 40 607 l 2,18,19
 40 623 40 623 57 638 c 0,20,21
 71 652 71 652 95 652 c 2,22,-1
 277 652 l 2,23,24
 344 652 344 652 392 696 c 0,25,26
 442 743 442 743 442 811 c 256,27,28
 442 879 442 879 392 926 c 0,29,30
 344 970 344 970 277 970 c 2,31,-1
 124 970 l 2,32,33
 99 970 99 970 85 984 c 0,34,35
 69 998 69 998 69 1015 c 2,36,-1
 69 1016 l 2,37,38
 69 1032 69 1032 83 1045 c 0,39,40
 99 1060 99 1060 124 1060 c 2,41,-1
 277 1061 l 2,42,43
 338 1061 338 1061 381 1101 c 0,44,45
 427 1144 427 1144 427 1206 c 256,46,47
 427 1268 427 1268 382 1311 c 0,48,49
 338 1352 338 1352 277 1352 c 2,50,-1
 95 1352 l 2,51,52
 71 1352 71 1352 54 1367 c 0,53,54
 40 1379 40 1379 40 1396 c 2,55,-1
 40 1397 l 2,56,57
 40 1414 40 1414 54 1427 c 0,58,59
 71 1442 71 1442 95 1442 c 2,60,-1
 277 1442 l 2,0,1
EndSplineSet
EndChar

StartChar: uni2074
Encoding: 8308 8308 237
Width: 787
Flags: W
LayerCount: 2
Fore
SplineSet
391 1417 m 2,0,1
 406 1442 406 1442 441 1442 c 2,2,-1
 538 1442 l 2,3,4
 563 1442 563 1442 580 1427 c 0,5,6
 594 1414 594 1414 594 1397 c 2,7,-1
 594 826 l 1,8,-1
 692 826 l 2,9,10
 716 826 716 826 733 810 c 0,11,12
 747 797 747 797 747 781 c 2,13,-1
 747 779 l 2,14,15
 747 763 747 763 732 748 c 0,16,17
 717 735 717 735 692 735 c 2,18,-1
 594 735 l 1,19,-1
 594 605 l 2,20,21
 594 589 594 589 580 577 c 0,22,23
 563 561 563 561 538 561 c 2,24,-1
 537 561 l 2,25,26
 512 561 512 561 495 577 c 0,27,28
 481 589 481 589 481 605 c 2,29,-1
 481 735 l 1,30,-1
 95 735 l 2,31,32
 71 735 71 735 54 750 c 0,33,34
 40 763 40 763 40 779 c 2,35,-1
 40 821 l 2,36,37
 40 832 40 832 45 841 c 2,38,-1
 391 1417 l 2,0,1
481 826 m 1,39,-1
 481 1361 l 1,40,-1
 161 826 l 1,41,-1
 481 826 l 1,39,-1
EndSplineSet
EndChar

StartChar: uni2075
Encoding: 8309 8309 238
Width: 673
Flags: W
LayerCount: 2
Fore
SplineSet
95 970 m 2,0,1
 71 970 71 970 54 985 c 0,2,3
 40 998 40 998 40 1015 c 2,4,-1
 40 1397 l 2,5,6
 40 1414 40 1414 54 1427 c 0,7,8
 71 1442 71 1442 95 1442 c 2,9,-1
 492 1442 l 2,10,11
 516 1442 516 1442 533 1427 c 0,12,13
 547 1414 547 1414 547 1397 c 2,14,-1
 547 1396 l 2,15,16
 547 1379 547 1379 533 1367 c 0,17,18
 516 1352 516 1352 492 1352 c 2,19,-1
 152 1352 l 1,20,-1
 152 1060 l 1,21,-1
 355 1060 l 2,22,23
 471 1060 471 1060 554 985 c 0,24,25
 633 913 633 913 633 811 c 256,26,27
 633 709 633 709 552 634 c 0,28,29
 471 561 471 561 355 561 c 2,30,-1
 95 561 l 2,31,32
 71 561 71 561 54 576 c 0,33,34
 40 589 40 589 40 605 c 2,35,-1
 40 607 l 2,36,37
 40 623 40 623 57 638 c 0,38,39
 71 652 71 652 95 652 c 2,40,-1
 355 652 l 2,41,42
 422 652 422 652 469 696 c 0,43,44
 520 743 520 743 520 811 c 256,45,46
 520 879 520 879 469 926 c 0,47,48
 422 970 422 970 355 970 c 2,49,-1
 95 970 l 2,0,1
EndSplineSet
EndChar

StartChar: uni2076
Encoding: 8310 8310 239
Width: 721
Flags: W
LayerCount: 2
Fore
SplineSet
152 970 m 1,0,-1
 152 811 l 2,1,2
 152 743 152 743 203 696 c 0,3,4
 251 652 251 652 317 652 c 2,5,-1
 403 652 l 2,6,7
 470 652 470 652 517 696 c 0,8,9
 568 743 568 743 568 811 c 256,10,11
 568 879 568 879 517 926 c 0,12,13
 470 970 470 970 403 970 c 2,14,-1
 152 970 l 1,0,-1
317 561 m 2,15,16
 201 561 201 561 121 634 c 0,17,18
 40 709 40 709 40 811 c 2,19,-1
 40 1192 l 2,20,21
 40 1294 40 1294 119 1366 c 0,22,23
 201 1442 201 1442 317 1442 c 2,24,-1
 516 1442 l 2,25,26
 541 1442 541 1442 558 1427 c 0,27,28
 572 1414 572 1414 572 1397 c 2,29,-1
 572 1396 l 2,30,31
 572 1379 572 1379 558 1367 c 0,32,33
 541 1352 541 1352 516 1352 c 2,34,-1
 317 1352 l 2,35,36
 251 1352 251 1352 201 1305 c 0,37,38
 152 1260 152 1260 152 1192 c 2,39,-1
 152 1060 l 1,40,-1
 403 1060 l 2,41,42
 519 1060 519 1060 602 985 c 0,43,44
 681 913 681 913 681 811 c 256,45,46
 681 709 681 709 600 634 c 0,47,48
 519 561 519 561 403 561 c 2,49,-1
 317 561 l 2,15,16
EndSplineSet
EndChar

StartChar: uni2077
Encoding: 8311 8311 240
Width: 631
Flags: W
LayerCount: 2
Fore
SplineSet
591 605 m 2,0,1
 591 589 591 589 576 574 c 0,2,3
 561 561 561 561 536 561 c 2,4,-1
 535 561 l 2,5,6
 510 561 510 561 493 576 c 0,7,8
 479 589 479 589 479 605 c 2,9,-1
 479 1352 l 1,10,-1
 95 1352 l 2,11,12
 71 1352 71 1352 54 1367 c 0,13,14
 40 1379 40 1379 40 1396 c 2,15,-1
 40 1397 l 2,16,17
 40 1414 40 1414 54 1427 c 0,18,19
 71 1442 71 1442 95 1442 c 2,20,-1
 536 1442 l 2,21,22
 561 1442 561 1442 578 1427 c 0,23,24
 591 1414 591 1414 591 1397 c 2,25,-1
 591 605 l 2,0,1
EndSplineSet
EndChar

StartChar: uni2078
Encoding: 8312 8312 241
Width: 732
Flags: W
LayerCount: 2
Fore
SplineSet
415 1442 m 2,0,1
 525 1442 525 1442 603 1371 c 0,2,3
 678 1302 678 1302 678 1206 c 0,4,5
 678 1098 678 1098 574 1017 c 1,6,7
 692 933 692 933 692 811 c 0,8,9
 692 709 692 709 614 636 c 0,10,11
 532 561 532 561 415 561 c 2,12,-1
 317 561 l 2,13,14
 201 561 201 561 121 634 c 0,15,16
 40 709 40 709 40 811 c 0,17,18
 40 932 40 932 159 1017 c 1,19,20
 55 1098 55 1098 55 1206 c 0,21,22
 55 1302 55 1302 131 1373 c 0,23,24
 207 1442 207 1442 317 1442 c 2,25,-1
 415 1442 l 2,0,1
415 652 m 2,26,27
 482 652 482 652 531 698 c 0,28,29
 580 743 580 743 580 811 c 0,30,31
 580 878 580 878 530 926 c 0,32,33
 482 970 482 970 415 970 c 2,34,-1
 317 970 l 2,35,36
 251 970 251 970 201 924 c 0,37,38
 152 878 152 878 152 811 c 0,39,40
 152 743 152 743 203 696 c 0,41,42
 251 652 251 652 317 652 c 2,43,-1
 415 652 l 2,26,27
415 1061 m 2,44,45
 476 1061 476 1061 519 1101 c 0,46,47
 565 1144 565 1144 565 1206 c 256,48,49
 565 1268 565 1268 518 1311 c 0,50,51
 475 1352 475 1352 415 1352 c 2,52,-1
 317 1352 l 2,53,54
 257 1352 257 1352 214 1311 c 0,55,56
 167 1268 167 1268 167 1206 c 256,57,58
 167 1144 167 1144 214 1101 c 0,59,60
 257 1061 257 1061 317 1061 c 2,61,-1
 415 1061 l 2,44,45
EndSplineSet
EndChar

StartChar: uni2079
Encoding: 8313 8313 242
Width: 721
Flags: W
LayerCount: 2
Fore
SplineSet
568 1033 m 1,0,-1
 568 1192 l 2,1,2
 568 1260 568 1260 520 1305 c 0,3,4
 470 1352 470 1352 403 1352 c 2,5,-1
 317 1352 l 2,6,7
 251 1352 251 1352 201 1305 c 0,8,9
 152 1260 152 1260 152 1192 c 256,10,11
 152 1124 152 1124 201 1079 c 0,12,13
 251 1033 251 1033 317 1033 c 2,14,-1
 568 1033 l 1,0,-1
403 1442 m 2,15,16
 519 1442 519 1442 602 1366 c 0,17,18
 681 1294 681 1294 681 1192 c 2,19,-1
 681 811 l 2,20,21
 681 709 681 709 600 634 c 0,22,23
 519 561 519 561 403 561 c 2,24,-1
 148 561 l 2,25,26
 123 561 123 561 109 574 c 0,27,28
 93 589 93 589 93 605 c 2,29,-1
 93 607 l 2,30,31
 93 623 93 623 107 636 c 0,32,33
 123 652 123 652 148 652 c 2,34,-1
 403 652 l 2,35,36
 470 652 470 652 517 696 c 0,37,38
 568 743 568 743 568 811 c 2,39,-1
 568 942 l 1,40,-1
 317 942 l 2,41,42
 201 942 201 942 121 1016 c 0,43,44
 40 1091 40 1091 40 1192 c 0,45,46
 40 1294 40 1294 119 1366 c 0,47,48
 201 1442 201 1442 317 1442 c 2,49,-1
 403 1442 l 2,15,16
EndSplineSet
EndChar

StartChar: uni207A
Encoding: 8314 8314 243
Width: 717
Flags: W
LayerCount: 2
Fore
SplineSet
415 946 m 1,0,-1
 621 946 l 2,1,2
 646 946 646 946 660 932 c 0,3,4
 677 917 677 917 677 900 c 2,5,-1
 677 899 l 2,6,7
 677 883 677 883 663 870 c 0,8,9
 646 855 646 855 621 855 c 2,10,-1
 415 855 l 1,11,-1
 415 658 l 2,12,13
 415 641 415 641 399 626 c 0,14,15
 384 613 384 613 359 613 c 2,16,-1
 358 613 l 2,17,18
 333 613 333 613 317 628 c 0,19,20
 303 641 303 641 303 658 c 2,21,-1
 303 855 l 1,22,-1
 95 855 l 2,23,24
 70 855 70 855 54 870 c 0,25,26
 40 883 40 883 40 899 c 2,27,-1
 40 900 l 2,28,29
 40 917 40 917 55 930 c 0,30,31
 70 946 70 946 95 946 c 2,32,-1
 303 946 l 1,33,-1
 303 1143 l 2,34,35
 303 1160 303 1160 317 1172 c 0,36,37
 333 1188 333 1188 358 1188 c 2,38,-1
 359 1188 l 2,39,40
 384 1188 384 1188 401 1173 c 0,41,42
 415 1160 415 1160 415 1143 c 2,43,-1
 415 946 l 1,0,-1
EndSplineSet
EndChar

StartChar: uni207B
Encoding: 8315 8315 244
Width: 587
Flags: W
LayerCount: 2
Fore
SplineSet
547 738 m 2,0,1
 547 721 547 721 533 708 c 0,2,3
 516 693 516 693 491 693 c 2,4,-1
 95 693 l 2,5,6
 70 693 70 693 55 709 c 0,7,8
 40 722 40 722 40 738 c 2,9,-1
 40 739 l 2,10,11
 40 755 40 755 55 768 c 0,12,13
 70 784 70 784 95 784 c 2,14,-1
 491 784 l 2,15,16
 516 784 516 784 531 770 c 0,17,18
 547 755 547 755 547 739 c 2,19,-1
 547 738 l 2,0,1
EndSplineSet
EndChar

StartChar: uni207C
Encoding: 8316 8316 245
Width: 717
Flags: W
LayerCount: 2
Fore
SplineSet
677 687 m 2,0,1
 677 670 677 670 663 657 c 0,2,3
 646 642 646 642 621 642 c 2,4,-1
 95 642 l 2,5,6
 70 642 70 642 55 658 c 0,7,8
 40 671 40 671 40 687 c 2,9,-1
 40 688 l 2,10,11
 40 704 40 704 55 717 c 0,12,13
 70 733 70 733 95 733 c 2,14,-1
 621 733 l 2,15,16
 646 733 646 733 661 719 c 0,17,18
 677 704 677 704 677 688 c 2,19,-1
 677 687 l 2,0,1
677 948 m 2,20,21
 677 931 677 931 663 918 c 0,22,23
 646 903 646 903 621 903 c 2,24,-1
 95 903 l 2,25,26
 70 903 70 903 55 919 c 0,27,28
 40 932 40 932 40 948 c 2,29,-1
 40 949 l 2,30,31
 40 965 40 965 55 978 c 0,32,33
 70 994 70 994 95 994 c 2,34,-1
 621 994 l 2,35,36
 646 994 646 994 661 980 c 0,37,38
 677 965 677 965 677 949 c 2,39,-1
 677 948 l 2,20,21
EndSplineSet
EndChar

StartChar: uni2071
Encoding: 8305 8305 246
Width: 215
Flags: W
LayerCount: 2
Fore
SplineSet
108 1196 m 2,0,1
 133 1196 133 1196 149 1180 c 0,2,3
 163 1167 163 1167 163 1150 c 2,4,-1
 163 605 l 2,5,6
 163 588 163 588 149 576 c 0,7,8
 133 560 133 560 108 560 c 2,9,-1
 107 560 l 2,10,11
 82 560 82 560 65 576 c 0,12,13
 51 589 51 589 51 605 c 2,14,-1
 51 1150 l 2,15,16
 51 1167 51 1167 68 1182 c 0,17,18
 82 1196 82 1196 107 1196 c 2,19,-1
 108 1196 l 2,0,1
108 1330 m 0,20,21
 77 1330 77 1330 59 1346 c 0,22,23
 40 1364 40 1364 40 1386 c 0,24,25
 40 1407 40 1407 59 1424 c 256,26,27
 78 1441 78 1441 108 1441 c 0,28,29
 137 1441 137 1441 157 1423 c 0,30,31
 175 1407 175 1407 175 1386 c 0,32,33
 175 1364 175 1364 157 1348 c 0,34,35
 137 1330 137 1330 108 1330 c 0,20,21
EndSplineSet
EndChar

StartChar: uni207D
Encoding: 8317 8317 247
Width: 405
Flags: W
LayerCount: 2
Fore
SplineSet
112 424 m 0,1,2
 40 505 40 505 40 608 c 2,3,-1
 40 1153 l 2,4,5
 40 1256 40 1256 112 1337 c 0,6,7
 184 1420 184 1420 296 1443 c 0,8,9
 325 1449 325 1449 346 1433 c 0,10,11
 365 1420 365 1420 365 1399 c 2,12,-1
 365 1394 l 2,13,14
 365 1380 365 1380 353 1366 c 0,15,16
 343 1354 343 1354 323 1350 c 0,17,18
 249 1335 249 1335 200 1281 c 0,19,20
 146 1224 146 1224 146 1149 c 2,21,-1
 146 612 l 2,22,23
 146 537 146 537 200 480 c 0,24,25
 249 426 249 426 323 411 c 0,26,27
 343 407 343 407 353 395 c 0,28,29
 365 382 365 382 365 367 c 2,30,-1
 365 362 l 2,31,32
 365 342 365 342 346 328 c 0,33,34
 325 312 325 312 296 318 c 0,35,0
 184 341 184 341 112 424 c 0,1,2
EndSplineSet
EndChar

StartChar: uni207E
Encoding: 8318 8318 248
Width: 405
Flags: W
LayerCount: 2
Fore
SplineSet
109 318 m 0,0,1
 81 312 81 312 59 328 c 0,2,3
 40 342 40 342 40 362 c 2,4,-1
 40 367 l 2,5,6
 40 382 40 382 52 395 c 0,7,8
 62 407 62 407 82 411 c 0,9,10
 157 426 157 426 206 480 c 0,11,12
 259 537 259 537 259 612 c 2,13,-1
 259 1149 l 2,14,15
 259 1224 259 1224 206 1281 c 0,16,17
 157 1335 157 1335 82 1350 c 0,18,19
 62 1354 62 1354 52 1366 c 0,20,21
 40 1380 40 1380 40 1394 c 2,22,-1
 40 1399 l 2,23,24
 40 1420 40 1420 59 1433 c 0,25,26
 81 1449 81 1449 109 1443 c 0,27,28
 221 1420 221 1420 293 1337 c 0,29,30
 365 1256 365 1256 365 1153 c 2,31,-1
 365 608 l 2,32,33
 365 505 365 505 293 424 c 0,34,35
 221 341 221 341 109 318 c 0,0,1
EndSplineSet
EndChar

StartChar: uni207F
Encoding: 8319 8319 249
Width: 662
Flags: W
LayerCount: 2
Fore
SplineSet
152 851 m 2,0,1
 152 835 152 835 138 822 c 0,2,3
 121 807 121 807 97 807 c 2,4,-1
 95 807 l 2,5,6
 71 807 71 807 54 822 c 0,7,8
 40 835 40 835 40 851 c 2,9,-1
 40 1180 l 2,10,11
 40 1286 40 1286 125 1365 c 0,12,13
 209 1442 209 1442 331 1442 c 256,14,15
 453 1442 453 1442 537 1365 c 0,16,17
 622 1286 622 1286 622 1180 c 2,18,-1
 622 851 l 2,19,20
 622 835 622 835 608 822 c 0,21,22
 591 807 591 807 566 807 c 2,23,-1
 565 807 l 2,24,25
 540 807 540 807 523 823 c 0,26,27
 509 835 509 835 509 851 c 2,28,-1
 509 1180 l 2,29,30
 509 1252 509 1252 455 1303 c 0,31,32
 403 1351 403 1351 331 1351 c 0,33,34
 258 1351 258 1351 207 1303 c 0,35,36
 152 1252 152 1252 152 1180 c 2,37,-1
 152 851 l 2,0,1
EndSplineSet
EndChar

StartChar: uni2080
Encoding: 8320 8320 250
Width: 732
Flags: W
LayerCount: 2
Fore
SplineSet
597 324 m 0,1,2
 692 236 692 236 692 117 c 2,3,-1
 692 -176 l 2,4,5
 692 -296 692 -296 597 -384 c 0,6,7
 502 -471 502 -471 366 -471 c 256,8,9
 230 -471 230 -471 135 -384 c 0,10,11
 40 -296 40 -296 40 -176 c 2,12,-1
 40 117 l 2,13,14
 40 236 40 236 135 324 c 0,15,16
 230 411 230 411 366 411 c 256,17,0
 502 411 502 411 597 324 c 0,1,2
217 259 m 0,19,20
 152 199 152 199 152 113 c 2,21,-1
 152 -172 l 2,22,23
 152 -258 152 -258 217 -319 c 0,24,25
 279 -376 279 -376 366 -376 c 0,26,27
 452 -376 452 -376 516 -317 c 256,28,29
 580 -258 580 -258 580 -172 c 2,30,-1
 580 113 l 2,31,32
 580 199 580 199 516 257 c 0,33,34
 452 317 452 317 366 317 c 0,35,18
 279 317 279 317 217 259 c 0,19,20
EndSplineSet
EndChar

StartChar: uni2081
Encoding: 8321 8321 251
Width: 377
Flags: W
LayerCount: 2
Fore
SplineSet
337 -426 m 2,0,1
 337 -443 337 -443 322 -457 c 0,2,3
 306 -471 306 -471 282 -471 c 2,4,-1
 280 -471 l 2,5,6
 256 -471 256 -471 241 -457 c 0,7,8
 225 -442 225 -442 225 -426 c 2,9,-1
 225 320 l 1,10,-1
 95 320 l 2,11,12
 71 320 71 320 54 335 c 0,13,14
 40 348 40 348 40 365 c 2,15,-1
 40 366 l 2,16,17
 40 383 40 383 54 396 c 0,18,19
 71 411 71 411 95 411 c 2,20,-1
 282 411 l 2,21,22
 307 411 307 411 324 396 c 0,23,24
 337 383 337 383 337 366 c 2,25,-1
 337 -426 l 2,0,1
EndSplineSet
EndChar

StartChar: uni2082
Encoding: 8322 8322 252
Width: 699
Flags: W
LayerCount: 2
Fore
SplineSet
389 411 m 2,0,1
 500 411 500 411 576 341 c 256,2,3
 652 271 652 271 652 175 c 0,4,5
 652 92 652 92 578 23 c 0,6,7
 531 -22 531 -22 409 -92 c 0,8,9
 283 -165 283 -165 238 -206 c 0,10,11
 157 -279 157 -279 157 -380 c 1,12,-1
 603 -380 l 2,13,14
 628 -380 628 -380 645 -395 c 0,15,16
 659 -408 659 -408 659 -425 c 2,17,-1
 659 -426 l 2,18,19
 659 -442 659 -442 645 -455 c 0,20,21
 628 -471 628 -471 603 -471 c 2,22,-1
 95 -471 l 2,23,24
 71 -471 71 -471 54 -455 c 0,25,26
 40 -442 40 -442 40 -426 c 2,27,-1
 40 -370 l 2,28,29
 40 -272 40 -272 115 -190 c 0,30,31
 169 -132 169 -132 285 -64 c 0,32,33
 432 24 432 24 458 43 c 0,34,35
 540 106 540 106 540 175 c 0,36,37
 540 236 540 236 493 279 c 0,38,39
 450 320 450 320 389 320 c 2,40,-1
 128 320 l 2,41,42
 103 320 103 320 86 335 c 0,43,44
 72 348 72 348 72 365 c 2,45,-1
 72 366 l 2,46,47
 72 383 72 383 86 396 c 0,48,49
 103 411 103 411 128 411 c 2,50,-1
 389 411 l 2,0,1
EndSplineSet
EndChar

StartChar: uni2083
Encoding: 8323 8323 253
Width: 595
Flags: W
LayerCount: 2
Fore
SplineSet
277 411 m 2,0,1
 387 411 387 411 466 339 c 0,2,3
 540 271 540 271 540 175 c 0,4,5
 540 66 540 66 436 -15 c 1,6,7
 555 -100 555 -100 555 -221 c 0,8,9
 555 -322 555 -322 474 -397 c 0,10,11
 394 -471 394 -471 277 -471 c 2,12,-1
 95 -471 l 2,13,14
 71 -471 71 -471 54 -455 c 0,15,16
 40 -442 40 -442 40 -426 c 2,17,-1
 40 -425 l 2,18,19
 40 -408 40 -408 56 -393 c 0,20,21
 71 -380 71 -380 95 -380 c 2,22,-1
 277 -380 l 2,23,24
 344 -380 344 -380 392 -336 c 0,25,26
 442 -289 442 -289 442 -221 c 256,27,28
 442 -153 442 -153 393 -106 c 0,29,30
 344 -61 344 -61 277 -61 c 2,31,-1
 124 -61 l 2,32,33
 99 -61 99 -61 84 -48 c 0,34,35
 69 -34 69 -34 69 -17 c 2,36,-1
 69 -16 l 2,37,38
 69 1 69 1 83 14 c 0,39,40
 99 29 99 29 124 29 c 2,41,-1
 277 30 l 2,42,43
 337 30 337 30 381 69 c 0,44,45
 427 112 427 112 427 175 c 0,46,47
 427 236 427 236 382 279 c 0,48,49
 338 320 338 320 277 320 c 2,50,-1
 95 320 l 2,51,52
 71 320 71 320 54 335 c 0,53,54
 40 348 40 348 40 365 c 2,55,-1
 40 366 l 2,56,57
 40 383 40 383 54 396 c 0,58,59
 71 411 71 411 95 411 c 2,60,-1
 277 411 l 2,0,1
EndSplineSet
EndChar

StartChar: uni2084
Encoding: 8324 8324 254
Width: 787
Flags: W
LayerCount: 2
Fore
SplineSet
391 385 m 2,0,1
 406 411 406 411 441 411 c 2,2,-1
 538 411 l 2,3,4
 563 411 563 411 580 396 c 0,5,6
 594 383 594 383 594 366 c 2,7,-1
 594 -206 l 1,8,-1
 692 -206 l 2,9,10
 717 -206 717 -206 734 -221 c 0,11,12
 747 -234 747 -234 747 -251 c 2,13,-1
 747 -252 l 2,14,15
 747 -269 747 -269 732 -283 c 0,16,17
 716 -297 716 -297 692 -297 c 2,18,-1
 594 -297 l 1,19,-1
 594 -426 l 2,20,21
 594 -442 594 -442 580 -455 c 0,22,23
 562 -471 562 -471 538 -471 c 2,24,-1
 537 -471 l 2,25,26
 513 -471 513 -471 495 -455 c 0,27,28
 481 -442 481 -442 481 -426 c 2,29,-1
 481 -297 l 1,30,-1
 95 -297 l 2,31,32
 71 -297 71 -297 54 -281 c 0,33,34
 40 -268 40 -268 40 -252 c 2,35,-1
 40 -210 l 2,36,37
 40 -200 40 -200 45 -191 c 2,38,-1
 391 385 l 2,0,1
481 -206 m 1,39,-1
 481 330 l 1,40,-1
 161 -206 l 1,41,-1
 481 -206 l 1,39,-1
EndSplineSet
EndChar

StartChar: uni2085
Encoding: 8325 8325 255
Width: 673
Flags: W
LayerCount: 2
Fore
SplineSet
95 -61 m 2,0,1
 71 -61 71 -61 54 -46 c 0,2,3
 40 -33 40 -33 40 -17 c 2,4,-1
 40 366 l 2,5,6
 40 383 40 383 54 396 c 0,7,8
 71 411 71 411 95 411 c 2,9,-1
 492 411 l 2,10,11
 516 411 516 411 533 396 c 0,12,13
 547 383 547 383 547 366 c 2,14,-1
 547 365 l 2,15,16
 547 348 547 348 533 335 c 0,17,18
 516 320 516 320 492 320 c 2,19,-1
 152 320 l 1,20,-1
 152 29 l 1,21,-1
 355 29 l 2,22,23
 471 29 471 29 554 -46 c 0,24,25
 633 -119 633 -119 633 -221 c 0,26,27
 633 -322 633 -322 552 -397 c 0,28,29
 471 -471 471 -471 355 -471 c 2,30,-1
 95 -471 l 2,31,32
 71 -471 71 -471 54 -455 c 0,33,34
 40 -442 40 -442 40 -426 c 2,35,-1
 40 -425 l 2,36,37
 40 -408 40 -408 56 -393 c 0,38,39
 71 -380 71 -380 95 -380 c 2,40,-1
 355 -380 l 2,41,42
 422 -380 422 -380 469 -336 c 0,43,44
 520 -289 520 -289 520 -221 c 256,45,46
 520 -153 520 -153 470 -106 c 0,47,48
 422 -61 422 -61 355 -61 c 2,49,-1
 95 -61 l 2,0,1
EndSplineSet
EndChar

StartChar: uni2086
Encoding: 8326 8326 256
Width: 721
Flags: W
LayerCount: 2
Fore
SplineSet
152 -61 m 1,0,-1
 152 -221 l 2,1,2
 152 -289 152 -289 203 -336 c 0,3,4
 251 -380 251 -380 317 -380 c 2,5,-1
 403 -380 l 2,6,7
 470 -380 470 -380 517 -336 c 0,8,9
 568 -289 568 -289 568 -221 c 256,10,11
 568 -153 568 -153 518 -106 c 0,12,13
 470 -61 470 -61 403 -61 c 2,14,-1
 152 -61 l 1,0,-1
317 -471 m 2,15,16
 201 -471 201 -471 121 -397 c 0,17,18
 40 -322 40 -322 40 -221 c 2,19,-1
 40 161 l 2,20,21
 40 263 40 263 119 335 c 0,22,23
 201 411 201 411 317 411 c 2,24,-1
 516 411 l 2,25,26
 541 411 541 411 558 396 c 0,27,28
 572 383 572 383 572 366 c 2,29,-1
 572 365 l 2,30,31
 572 348 572 348 558 335 c 0,32,33
 541 320 541 320 516 320 c 2,34,-1
 317 320 l 2,35,36
 251 320 251 320 201 274 c 0,37,38
 152 229 152 229 152 161 c 2,39,-1
 152 29 l 1,40,-1
 403 29 l 2,41,42
 519 29 519 29 602 -46 c 0,43,44
 681 -119 681 -119 681 -221 c 0,45,46
 681 -322 681 -322 600 -397 c 0,47,48
 519 -471 519 -471 403 -471 c 2,49,-1
 317 -471 l 2,15,16
EndSplineSet
EndChar

StartChar: uni2087
Encoding: 8327 8327 257
Width: 631
Flags: W
LayerCount: 2
Fore
SplineSet
591 -426 m 2,0,1
 591 -443 591 -443 576 -457 c 0,2,3
 560 -471 560 -471 536 -471 c 2,4,-1
 535 -471 l 2,5,6
 510 -471 510 -471 493 -455 c 0,7,8
 479 -442 479 -442 479 -426 c 2,9,-1
 479 320 l 1,10,-1
 95 320 l 2,11,12
 71 320 71 320 54 335 c 0,13,14
 40 348 40 348 40 365 c 2,15,-1
 40 366 l 2,16,17
 40 383 40 383 54 396 c 0,18,19
 71 411 71 411 95 411 c 2,20,-1
 536 411 l 2,21,22
 561 411 561 411 578 396 c 0,23,24
 591 383 591 383 591 366 c 2,25,-1
 591 -426 l 2,0,1
EndSplineSet
EndChar

StartChar: uni2088
Encoding: 8328 8328 258
Width: 732
Flags: W
LayerCount: 2
Fore
SplineSet
415 411 m 2,0,1
 525 411 525 411 603 339 c 0,2,3
 678 271 678 271 678 175 c 0,4,5
 678 66 678 66 574 -15 c 1,6,7
 692 -99 692 -99 692 -221 c 0,8,9
 692 -322 692 -322 614 -395 c 0,10,11
 532 -471 532 -471 415 -471 c 2,12,-1
 317 -471 l 2,13,14
 201 -471 201 -471 121 -397 c 0,15,16
 40 -322 40 -322 40 -221 c 0,17,18
 40 -100 40 -100 159 -15 c 1,19,20
 55 66 55 66 55 175 c 0,21,22
 55 271 55 271 131 341 c 256,23,24
 207 411 207 411 317 411 c 2,25,-1
 415 411 l 2,0,1
415 -380 m 2,26,27
 482 -380 482 -380 531 -334 c 0,28,29
 580 -289 580 -289 580 -221 c 256,30,31
 580 -153 580 -153 530 -106 c 0,32,33
 482 -61 482 -61 415 -61 c 2,34,-1
 317 -61 l 2,35,36
 251 -61 251 -61 201 -108 c 0,37,38
 152 -153 152 -153 152 -221 c 256,39,40
 152 -289 152 -289 203 -336 c 0,41,42
 251 -380 251 -380 317 -380 c 2,43,-1
 415 -380 l 2,26,27
415 30 m 2,44,45
 475 30 475 30 519 69 c 0,46,47
 565 112 565 112 565 175 c 0,48,49
 565 236 565 236 518 279 c 0,50,51
 475 320 475 320 415 320 c 2,52,-1
 317 320 l 2,53,54
 257 320 257 320 214 279 c 0,55,56
 167 236 167 236 167 175 c 0,57,58
 167 112 167 112 214 69 c 0,59,60
 258 30 258 30 317 30 c 2,61,-1
 415 30 l 2,44,45
EndSplineSet
EndChar

StartChar: uni2089
Encoding: 8329 8329 259
Width: 721
Flags: W
LayerCount: 2
Fore
SplineSet
568 1 m 1,0,-1
 568 161 l 2,1,2
 568 229 568 229 519 274 c 0,3,4
 470 320 470 320 403 320 c 2,5,-1
 317 320 l 2,6,7
 251 320 251 320 201 274 c 0,8,9
 152 229 152 229 152 161 c 256,10,11
 152 93 152 93 201 48 c 0,12,13
 251 1 251 1 317 1 c 2,14,-1
 568 1 l 1,0,-1
403 411 m 2,15,16
 519 411 519 411 602 335 c 0,17,18
 681 263 681 263 681 161 c 2,19,-1
 681 -221 l 2,20,21
 681 -322 681 -322 600 -397 c 0,22,23
 519 -471 519 -471 403 -471 c 2,24,-1
 148 -471 l 2,25,26
 123 -471 123 -471 109 -457 c 0,27,28
 93 -443 93 -443 93 -426 c 2,29,-1
 93 -425 l 2,30,31
 93 -408 93 -408 107 -395 c 0,32,33
 123 -380 123 -380 148 -380 c 2,34,-1
 403 -380 l 2,35,36
 470 -380 470 -380 517 -336 c 0,37,38
 568 -289 568 -289 568 -221 c 2,39,-1
 568 -89 l 1,40,-1
 317 -89 l 2,41,42
 201 -89 201 -89 121 -15 c 0,43,44
 40 59 40 59 40 161 c 256,45,46
 40 263 40 263 119 335 c 0,47,48
 201 411 201 411 317 411 c 2,49,-1
 403 411 l 2,15,16
EndSplineSet
EndChar

StartChar: uni208A
Encoding: 8330 8330 260
Width: 717
Flags: W
LayerCount: 2
Fore
SplineSet
415 15 m 1,0,-1
 621 15 l 2,1,2
 646 15 646 15 661 2 c 0,3,4
 677 -13 677 -13 677 -30 c 2,5,-1
 677 -31 l 2,6,7
 677 -47 677 -47 663 -60 c 0,8,9
 646 -76 646 -76 621 -76 c 2,10,-1
 415 -76 l 1,11,-1
 415 -272 l 2,12,13
 415 -289 415 -289 398 -304 c 0,14,15
 384 -318 384 -318 359 -318 c 2,16,-1
 358 -318 l 2,17,18
 333 -318 333 -318 317 -302 c 0,19,20
 303 -289 303 -289 303 -272 c 2,21,-1
 303 -76 l 1,22,-1
 95 -76 l 2,23,24
 70 -76 70 -76 55 -60 c 0,25,26
 40 -47 40 -47 40 -31 c 2,27,-1
 40 -30 l 2,28,29
 40 -13 40 -13 55 0 c 0,30,31
 70 15 70 15 95 15 c 2,32,-1
 303 15 l 1,33,-1
 303 213 l 2,34,35
 303 230 303 230 317 242 c 0,36,37
 333 258 333 258 358 258 c 2,38,-1
 359 258 l 2,39,40
 384 258 384 258 401 242 c 0,41,42
 415 229 415 229 415 213 c 2,43,-1
 415 15 l 1,0,-1
EndSplineSet
EndChar

StartChar: uni208B
Encoding: 8331 8331 261
Width: 587
Flags: W
LayerCount: 2
Fore
SplineSet
547 -31 m 2,0,1
 547 -47 547 -47 533 -60 c 0,2,3
 516 -75 516 -75 491 -75 c 2,4,-1
 95 -75 l 2,5,6
 70 -75 70 -75 54 -60 c 0,7,8
 40 -47 40 -47 40 -31 c 2,9,-1
 40 -30 l 2,10,11
 40 -13 40 -13 55 0 c 0,12,13
 70 16 70 16 95 16 c 2,14,-1
 491 16 l 2,15,16
 516 16 516 16 530 2 c 0,17,18
 547 -13 547 -13 547 -30 c 2,19,-1
 547 -31 l 2,0,1
EndSplineSet
EndChar

StartChar: uni208C
Encoding: 8332 8332 262
Width: 717
Flags: W
LayerCount: 2
Fore
SplineSet
677 -161 m 2,0,1
 677 -178 677 -178 663 -191 c 0,2,3
 646 -206 646 -206 621 -206 c 2,4,-1
 95 -206 l 2,5,6
 70 -206 70 -206 55 -190 c 0,7,8
 40 -177 40 -177 40 -161 c 2,9,-1
 40 -160 l 2,10,11
 40 -144 40 -144 55 -131 c 0,12,13
 70 -115 70 -115 95 -115 c 2,14,-1
 621 -115 l 2,15,16
 646 -115 646 -115 661 -129 c 0,17,18
 677 -144 677 -144 677 -160 c 2,19,-1
 677 -161 l 2,0,1
677 100 m 2,20,21
 677 83 677 83 663 70 c 0,22,23
 646 55 646 55 621 55 c 2,24,-1
 95 55 l 2,25,26
 70 55 70 55 55 71 c 0,27,28
 40 84 40 84 40 100 c 2,29,-1
 40 101 l 2,30,31
 40 117 40 117 55 130 c 0,32,33
 70 146 70 146 95 146 c 2,34,-1
 621 146 l 2,35,36
 646 146 646 146 661 132 c 0,37,38
 677 117 677 117 677 101 c 2,39,-1
 677 100 l 2,20,21
EndSplineSet
EndChar

StartChar: uni208D
Encoding: 8333 8333 263
Width: 405
Flags: W
LayerCount: 2
Fore
SplineSet
111 -306 m 0,1,2
 40 -226 40 -226 40 -122 c 2,3,-1
 40 423 l 2,4,5
 40 526 40 526 112 607 c 0,6,7
 184 690 184 690 296 713 c 0,8,9
 325 719 325 719 346 702 c 0,10,11
 365 689 365 689 365 669 c 2,12,-1
 365 664 l 2,13,14
 365 649 365 649 353 636 c 0,15,16
 343 624 343 624 323 620 c 0,17,18
 249 604 249 604 200 551 c 0,19,20
 146 493 146 493 146 419 c 2,21,-1
 146 -119 l 2,22,23
 146 -193 146 -193 200 -250 c 0,24,25
 249 -304 249 -304 323 -319 c 0,26,27
 343 -323 343 -323 353 -335 c 0,28,29
 365 -349 365 -349 365 -363 c 2,30,-1
 365 -369 l 2,31,32
 365 -388 365 -388 346 -402 c 0,33,34
 325 -418 325 -418 296 -412 c 0,35,0
 184 -389 184 -389 111 -306 c 0,1,2
EndSplineSet
EndChar

